<svg xmlns="http://www.w3.org/2000/svg" viewBox="0 0 750 500"><g id="freepik--background-complete--inject-9"><rect x="62.41" y="73.2" width="48.65" height="12.87" style="fill:#fafafa"></rect><path d="M90.49,99.62a1,1,0,0,1,0-.23l0-.66c0-.61,0-1.45,0-2.53,0-2.23,0-5.42-.09-9.45l.16.15L41.84,87c.11-.11-.25.25.24-.25h0V99.62l-.25-.24,34.67.11,10.24.07,2.77,0,.72,0h.26l-.23,0h-.69l-2.72,0-10.18.07-34.84.11h-.24V86.76h0l.26-.25,48.65.1h.15v.15c0,4.07-.07,7.29-.09,9.54,0,1.06,0,1.9,0,2.5,0,.26,0,.46,0,.63A1.23,1.23,0,0,1,90.49,99.62Z" style="fill:#e0e0e0"></path><rect x="134.05" y="388.6" width="48.65" height="12.87" style="fill:#fafafa"></rect><path d="M162.13,415s0-.08,0-.23l0-.66c0-.61,0-1.45,0-2.54,0-2.22,0-5.41-.08-9.44l.15.15-48.65.1c.11-.11-.25.24.25-.25h0v3.27c0,1.09,0,2.17,0,3.25V415l-.24-.24,34.67.11,10.23.07,2.77,0h.72l.26,0-.22,0h-.7l-2.71,0-10.18.07-34.84.11h-.24V415q0-3.11,0-6.33v-6.52h0l.25-.25,48.65.1h.15v.15c0,4.06-.06,7.29-.08,9.53,0,1.07,0,1.9,0,2.5,0,.26,0,.47,0,.64S162.14,415,162.13,415Z" style="fill:#e0e0e0"></path><rect x="400.26" y="325.87" width="48.65" height="12.87" style="fill:#fafafa"></rect><path d="M428.34,352.29a2.07,2.07,0,0,1,0-.23l0-.66c0-.61,0-1.45,0-2.53,0-2.22,0-5.42-.08-9.45l.15.15-48.65.1.25-.25h0V346q0,3.23,0,6.33l-.24-.24,34.67.11,10.23.07,2.77,0,.73,0h.25s-.07,0-.22,0l-.7,0-2.71,0-10.18.07-34.84.11h-.24v-.25q0-3.1,0-6.33v-6.53h0l.25-.24,48.65.09h.15v.15c0,4.07-.06,7.29-.08,9.54,0,1.07,0,1.9,0,2.5,0,.26,0,.46,0,.63S428.35,352.3,428.34,352.29Z" style="fill:#e0e0e0"></path><rect x="641.31" y="41.96" width="48.65" height="12.87" style="fill:#ebebeb"></rect><path d="M669.39,68.39s0-.09,0-.24,0-.39,0-.66c0-.6,0-1.45,0-2.53,0-2.22,0-5.42-.08-9.44l.15.15-48.65.09c.11-.11-.25.25.25-.24h0v6.52c0,2.14,0,4.26,0,6.33l-.24-.25,34.67.11,10.23.07,2.77,0h.73a1.27,1.27,0,0,1,.25,0h-.22l-.7,0-2.71,0-10.18.07-34.84.11h-.24v-.24c0-2.07,0-4.19,0-6.33V55.54h0l.25-.25,48.65.1h.15v.15c0,4.06-.06,7.29-.08,9.53,0,1.07,0,1.9,0,2.5,0,.26,0,.47,0,.63A.85.85,0,0,1,669.39,68.39Z" style="fill:#e0e0e0"></path><rect x="652.92" y="325.82" width="48.65" height="12.87" style="fill:#ebebeb"></rect><path d="M681,352.24a2.07,2.07,0,0,1,0-.23l0-.66c0-.6,0-1.45,0-2.53,0-2.22,0-5.42-.08-9.45l.15.15-48.65.1.25-.25h0v6.53c0,2.15,0,4.27,0,6.33l-.24-.24,34.67.11,10.23.07,2.77,0,.73,0H681s-.07,0-.22,0l-.7,0-2.71,0-10.18.07-34.84.11h-.24v-.25c0-2.06,0-4.18,0-6.33v-6.53h0l.25-.24,48.65.09h.15v.15c0,4.07-.06,7.29-.08,9.54,0,1.07,0,1.9,0,2.5,0,.26,0,.47,0,.63S681,352.25,681,352.24Z" style="fill:#e0e0e0"></path><path d="M339.4,104.84a2.07,2.07,0,0,1,0-.23l0-.66c0-.61,0-1.45,0-2.53,0-2.23,0-5.42-.09-9.45l.15.15-48.65.1L291,92h0v6.52c0,2.15,0,4.26,0,6.33l-.24-.24,34.67.11,10.24.07,2.76,0,.73,0h.25s-.07,0-.22,0h-.7l-2.71,0-10.18.06-34.84.11h-.24v-.25q0-3.11,0-6.33V92h0c.5-.49.14-.14.25-.25l48.65.1h.16V92c0,4.07-.06,7.29-.08,9.54,0,1.06,0,1.9,0,2.49v.64C339.41,104.78,339.41,104.85,339.4,104.84Z" style="fill:#e0e0e0"></path><path d="M346,92a1.22,1.22,0,0,1,0-.24c0-.19,0-.41,0-.69l0-2.58c0-2.25-.06-5.44-.1-9.36l.18.18-29.23.07.25-.25h0v6.61c0,2.15,0,4.24,0,6.24l-.23-.23,20.91.11,6.09.06,1.64,0,.59,0a3.28,3.28,0,0,1-.53,0l-1.59,0-6,.07-21.07.11h-.24V92c0-2,0-4.09,0-6.24V79.12h0l.25-.25,29.23.07h.18v.18c0,4-.07,7.19-.1,9.47,0,1.07,0,1.92,0,2.54S346,92,346,92Z" style="fill:#e0e0e0"></path><path d="M697.56,223.31a2.07,2.07,0,0,1,0-.23l0-.66c0-.61,0-1.45,0-2.53,0-2.22,0-5.42-.09-9.45l.15.15-48.65.1.25-.25h0V217q0,3.22,0,6.33l-.24-.24,34.67.11,10.24.07,2.76,0,.73,0h.25s-.07,0-.22,0l-.69,0-2.72,0-10.18.07-34.84.11h-.24V217c0-1.07,0-2.15,0-3.24v-3.29h0l.25-.24,48.65.09h.16v.15c0,4.07-.07,7.29-.09,9.54,0,1.07,0,1.9,0,2.5l0,.63C697.57,223.25,697.57,223.32,697.56,223.31Z" style="fill:#e0e0e0"></path><path d="M704.16,210.44s0-.09,0-.24,0-.41,0-.68c0-.64,0-1.5,0-2.58,0-2.26-.06-5.45-.1-9.37l.18.18-29.23.07.25-.25h0v3.35c0,1.1,0,2.2,0,3.27q0,3.24,0,6.24l-.23-.23,20.91.11,6.09.07,1.64,0,.59,0a3.28,3.28,0,0,1-.53,0l-1.59,0-6,.07-21.07.11h-.24v-.24q0-3,0-6.24v-6.62h0c0,.06.47-.47.25-.25l29.23.07h.18v.18c0,4-.07,7.19-.1,9.47,0,1.07,0,1.92,0,2.55A6.36,6.36,0,0,1,704.16,210.44Z" style="fill:#e0e0e0"></path><rect x="242.19" y="49.12" width="5.43" height="117.87" style="fill:#e0e0e0"></rect><rect x="163.39" y="50.02" width="77.98" height="116.06" rx="0.08" style="fill:#f5f5f5"></rect><path d="M242.19,167H162.56a.09.09,0,0,1-.08-.08V49.19a.08.08,0,0,1,.08-.07h79.63a.07.07,0,0,1,.08.07V166.91A.08.08,0,0,1,242.19,167Zm-77.82-1.81h76a.08.08,0,0,0,.07-.08V51a.08.08,0,0,0-.07-.08h-76a.09.09,0,0,0-.08.08V165.1A.09.09,0,0,0,164.37,165.18Z" style="fill:#ebebeb"></path><rect x="171.24" y="57.18" width="62.41" height="101.67" rx="0.08" style="fill:#fff"></rect><rect x="184.85" y="86" width="35.05" height="41.08" rx="0.06" style="fill:#ebebeb"></rect><path d="M217.13,122.05c0,.13-1.69.89-5,.5a12.14,12.14,0,0,1-5.59-2.23,11.35,11.35,0,0,1-4.35-6.84,9.82,9.82,0,0,1,3.33-9.34,8.77,8.77,0,0,1,2.52-1.48,6.73,6.73,0,0,1,3.15-.36,5.55,5.55,0,0,1,3.15,1.38,4.09,4.09,0,0,1,1.24,3.67,6,6,0,0,1-1.73,3.15,11.33,11.33,0,0,1-2.64,2,14.37,14.37,0,0,1-6.3,1.79,12.55,12.55,0,0,1-6.71-1.52,12.26,12.26,0,0,1-4.94-5.12,10.45,10.45,0,0,1-.88-7.17,10.57,10.57,0,0,1,3.78-5.91,9.25,9.25,0,0,1,3.16-1.6,7.83,7.83,0,0,1,3.57-.11,5.77,5.77,0,0,1,3.24,1.82,5.37,5.37,0,0,1,1.27,3.46,6.59,6.59,0,0,1-.85,3.3,8.74,8.74,0,0,1-2,2.4,13.54,13.54,0,0,1-5,2.64,12.76,12.76,0,0,1-5.22.4,10.68,10.68,0,0,1-4.55-1.74,9.86,9.86,0,0,1-4.34-6.88,8.32,8.32,0,0,1,1.61-5.89,7.11,7.11,0,0,1,3-2.38c.82-.31,1.29-.3,1.31-.22s-.37.29-1,.74A7.82,7.82,0,0,0,188,92.94a7.34,7.34,0,0,0-.95,5,8.26,8.26,0,0,0,3.86,5.4,9.52,9.52,0,0,0,8,.76,11,11,0,0,0,4-2.25,4.87,4.87,0,0,0,1.86-3.74,2.69,2.69,0,0,0-2.4-2.65,5.25,5.25,0,0,0-2.29.11,6.79,6.79,0,0,0-2.16,1.13,7.87,7.87,0,0,0-2.72,4.35,7.6,7.6,0,0,0,.66,5.21,9.46,9.46,0,0,0,3.78,3.92,9.73,9.73,0,0,0,5.18,1.2,11.81,11.81,0,0,0,5.11-1.39,9,9,0,0,0,2-1.44,3.36,3.36,0,0,0,1-1.68,1.45,1.45,0,0,0-.41-1.35,3,3,0,0,0-1.69-.75,4.28,4.28,0,0,0-2,.17,6.32,6.32,0,0,0-1.85,1,7.71,7.71,0,0,0-2.82,7.14,9.84,9.84,0,0,0,3.34,5.92,11.78,11.78,0,0,0,4.8,2.39C215.32,122.14,217.1,121.8,217.13,122.05Z" style="fill:#e0e0e0"></path><rect x="386.18" y="39.85" width="120.78" height="247.64" style="fill:#ebebeb"></rect><rect x="393.42" y="48.01" width="105.39" height="231.32" style="fill:#fafafa"></rect><path d="M507,39.85s0,.06-.12.16l-.39.42-1.57,1.62-6,6.07,0,0h-.07l-52.38.11-53-.12h-.07l0,0c-2.25-2.57-4-4.62-5.28-6.06l-1.39-1.62-.35-.43-.11-.15a.54.54,0,0,1,.14.13c.11.1.23.23.38.39l1.45,1.57,5.39,6-.12,0,53-.12,52.38.12-.11,0,6.06-6,1.62-1.56.43-.4Z" style="fill:#e0e0e0"></path><path d="M386.18,287.49l.45-.54,1.37-1.58c1.22-1.4,3-3.44,5.34-6.08l0,.07c-.1-18.78-.17-61.09-.17-110.23,0-33.44.07-63.71.09-85.65,0-10.94.06-19.81.09-26,0-3,0-5.42.05-7.05,0-.8,0-1.4,0-1.84s0-.62,0-.62,0,.21,0,.62,0,1,0,1.84c0,1.63,0,4,0,7.05,0,6.15.05,15,.09,26,0,21.94.05,52.21.08,85.65,0,49.14-.06,91.45-.16,110.23v.05l0,0-5.42,6L386.68,287C386.36,287.33,386.18,287.49,386.18,287.49Z" style="fill:#e0e0e0"></path><path d="M507,286.9s-.2-.16-.58-.48L504.76,285l-6.06-5.54.11,0-47.12.12-41.2-.09L398,279.41l-3.39-.06-.89,0-.3,0,.3,0,.89,0,3.39-.05,12.49-.09,41.2-.08,47.12.11h.06l.05.05c2.54,2.4,4.55,4.32,6,5.66l1.57,1.51A4.33,4.33,0,0,1,507,286.9Z" style="fill:#e0e0e0"></path><path d="M440.86,279.38c-2.48-10.43-1.66-24.5,2-33.69,2.74-6.89,6.81-11.53,10.49-16.77s7.21-11.82,8.07-20.21c.84-8.21-1.05-16.75-.19-25,1.11-10.62,6.51-18.14,8.28-28.45,1.88-10.88-.59-22.54-.72-33.94-.16-13.59,3.25-27.17,9-35.83s13.66-12.2,20.93-9.35V279.38Z" style="fill:#f5f5f5"></path><path d="M414.65,202.22s0-.08.14-.21l.45-.55c.45-.52,1.05-1.22,1.8-2.11l6.64-7.72c5.6-6.52,13.27-15.59,21.56-25.76s15.63-19.5,20.89-26.3l6.22-8.06,1.71-2.18.45-.56a1.64,1.64,0,0,1,.17-.18s0,.08-.12.21l-.41.6-1.62,2.24c-1.42,2-3.49,4.74-6.09,8.17-5.18,6.86-12.48,16.24-20.77,26.42s-16,19.2-21.69,25.66c-2.84,3.23-5.16,5.83-6.78,7.6l-1.87,2-.5.52A1.33,1.33,0,0,1,414.65,202.22Z" style="fill:#e0e0e0"></path><path d="M426.05,170.94c-.11-.1,4.69-5.86,10.74-12.87s11-12.61,11.15-12.51-4.68,5.86-10.73,12.87S426.17,171,426.05,170.94Z" style="fill:#e0e0e0"></path><path d="M438.32,190.05A19.48,19.48,0,0,1,440.5,188c1.38-1.25,3.26-3,5.24-5s3.7-3.93,4.92-5.34a20.22,20.22,0,0,1,2-2.23,13.62,13.62,0,0,1-1.73,2.49,69.26,69.26,0,0,1-4.82,5.47,65.14,65.14,0,0,1-5.38,4.93A14,14,0,0,1,438.32,190.05Z" style="fill:#e0e0e0"></path><rect x="76.1" y="294.97" width="4.14" height="159.98" style="fill:#e0e0e0"></rect><polygon points="52.51 459.55 101.92 459.55 80.24 448.29 76.1 448.29 52.51 459.55" style="fill:#e0e0e0"></polygon><path d="M105.75,212.89c.6-6.18,15.44-40.33,15.44-46.51s-16-11.93-23.86-16-7-16.05-7-16.05h-25s.83,11.94-7,16.05-23.87,9.88-23.87,16S49.35,206.71,50,212.89,55.08,231,52.2,238s-17.87,25.71-20.31,59.8l45.45,1.11h1l44.17-1.11c.38-29.49-16.15-52.8-19-59.8S105.14,219.06,105.75,212.89Z" style="fill:#f5f5f5"></path><path d="M90.07,134.37c.63-.47-5-3.68-9.34-3.79s-11.93,1.31-15.39,4A19.92,19.92,0,0,0,90.07,134.37Z" style="fill:#e0e0e0"></path><path d="M43.39,164.73a9,9,0,0,1-3.07-.41,9.33,9.33,0,0,1-3-.94,9,9,0,0,1,3.08.41A9.44,9.44,0,0,1,43.39,164.73Z" style="fill:#e0e0e0"></path><path d="M71.84,168.35a39.34,39.34,0,0,1-7.18-.23,38.34,38.34,0,0,1-7.11-1,66.28,66.28,0,0,1,7.16.5A61.94,61.94,0,0,1,71.84,168.35Z" style="fill:#e0e0e0"></path><path d="M100.5,167.54a39,39,0,0,1-7.13.88,37.44,37.44,0,0,1-7.18.07,64.24,64.24,0,0,1,7.14-.6A65.49,65.49,0,0,1,100.5,167.54Z" style="fill:#e0e0e0"></path><path d="M120.75,164.24a8.84,8.84,0,0,1-3,.88,9.48,9.48,0,0,1-3.09.36,9.16,9.16,0,0,1,3-.88A9.41,9.41,0,0,1,120.75,164.24Z" style="fill:#e0e0e0"></path><path d="M62.64,239.81a20.63,20.63,0,0,1-5.89-1.93,19.94,19.94,0,0,1-5.31-3.21c.09-.13,2.44,1.31,5.53,2.72S62.69,239.66,62.64,239.81Z" style="fill:#e0e0e0"></path><path d="M87.09,240.62A20.59,20.59,0,0,1,81,241.87a21,21,0,0,1-6.2-.07c0-.16,2.77-.13,6.15-.46S87.05,240.47,87.09,240.62Z" style="fill:#e0e0e0"></path><path d="M100.3,235.3c.08.13-.24.45-.71.72s-.9.38-1,.25.24-.45.7-.72S100.22,235.17,100.3,235.3Z" style="fill:#e0e0e0"></path><path d="M78.07,149.05a35.32,35.32,0,0,1-.09-6.18,35.16,35.16,0,0,1,.44-6.18,35.52,35.52,0,0,1,.09,6.19A36.16,36.16,0,0,1,78.07,149.05Z" style="fill:#e0e0e0"></path><path d="M77.58,173.78a36.9,36.9,0,0,1-.16-6.19,37.17,37.17,0,0,1,.37-6.17A34.88,34.88,0,0,1,78,167.6,35.56,35.56,0,0,1,77.58,173.78Z" style="fill:#e0e0e0"></path><path d="M77.3,198.5a35.84,35.84,0,0,1-.21-6.18,36.31,36.31,0,0,1,.33-6.18,35.84,35.84,0,0,1,.21,6.18A37.7,37.7,0,0,1,77.3,198.5Z" style="fill:#e0e0e0"></path><path d="M77.09,223.22a35.2,35.2,0,0,1-.22-6.18,35.76,35.76,0,0,1,.32-6.18,35.2,35.2,0,0,1,.22,6.18A35.76,35.76,0,0,1,77.09,223.22Z" style="fill:#e0e0e0"></path><path d="M76.86,247.94a35.84,35.84,0,0,1-.21-6.18,37.7,37.7,0,0,1,.33-6.18,35.92,35.92,0,0,1,.21,6.19A37.52,37.52,0,0,1,76.86,247.94Z" style="fill:#e0e0e0"></path><path d="M76.48,272.66a35.52,35.52,0,0,1-.16-6.18,34.92,34.92,0,0,1,.37-6.18,35.6,35.6,0,0,1,.16,6.19A37.29,37.29,0,0,1,76.48,272.66Z" style="fill:#e0e0e0"></path><path d="M75.87,296.49a29.92,29.92,0,0,1-.1-5.74A30.84,30.84,0,0,1,76.2,285a31.07,31.07,0,0,1,.1,5.75A30.67,30.67,0,0,1,75.87,296.49Z" style="fill:#e0e0e0"></path><path d="M122.53,297.79c0,.75-20.29,1.35-45.32,1.35s-45.32-.6-45.32-1.35,20.29-1.34,45.32-1.34S122.53,297.05,122.53,297.79Z" style="fill:#e0e0e0"></path></g><g id="freepik--Floor--inject-9"><path d="M704.56,461.2c0,.14-147.56.26-329.54.26s-329.58-.12-329.58-.26S193,460.94,375,460.94,704.56,461.06,704.56,461.2Z" style="fill:#263238"></path></g><g id="freepik--Plant--inject-9"><path d="M412.1,428.55s-4.7-32.35-4.31-51.18,0-40,0-40h2.16s-1.46,37.36.13,59.9,5.81,31.28,5.81,31.28H412.1" style="fill:#263238"></path><path d="M426.12,301a5.72,5.72,0,0,0-2-2.9c-1.37-.87-3.18-.51-4.71,0-6.55,2.31-12.36,14.53-15,21l8.7,29.31C428.82,333.81,431.54,314.7,426.12,301Z" style="fill:#455a64"></path><path d="M423.64,299.26a2.44,2.44,0,0,1-.13.38c-.11.28-.25.64-.43,1.07-.38.92-.91,2.26-1.55,3.93-1.28,3.33-2.91,8-4.37,13.22s-2.46,10.08-3.07,13.59c-.31,1.76-.55,3.18-.7,4.17-.07.46-.13.83-.18,1.13a1.83,1.83,0,0,1-.09.39,1.51,1.51,0,0,1,0-.4q0-.45.12-1.14c.1-1,.3-2.43.58-4.19a123.48,123.48,0,0,1,3-13.64,125.59,125.59,0,0,1,4.48-13.22c.67-1.66,1.24-3,1.67-3.9.19-.42.36-.76.48-1A1.76,1.76,0,0,1,423.64,299.26Z" style="fill:#263238"></path><path d="M409.25,355.4a26.51,26.51,0,0,1-13.4-22.28c-.32-6.51,1.68-12.89,3.94-19a2.45,2.45,0,0,1,.93-1.38,2.32,2.32,0,0,1,2.22.34c5.92,3.38,9.51,9.81,11.42,16.35a33,33,0,0,1,1.34,13.45,22.22,22.22,0,0,1-6.45,12.51" style="fill:#455a64"></path><path d="M409.25,355.4a1.93,1.93,0,0,1,0-.39c0-.3,0-.67,0-1.12,0-1,0-2.39-.12-4.14a114,114,0,0,0-1.52-13.54c-.9-5.25-2-9.95-2.81-13.34l-1-4c-.1-.44-.19-.81-.25-1.1a1.59,1.59,0,0,1-.07-.38,1.47,1.47,0,0,1,.14.37c.08.28.18.64.31,1.08.27.94.64,2.3,1.08,4,.87,3.39,2,8.09,2.92,13.35a99.13,99.13,0,0,1,1.41,13.59c.05,1.75.05,3.17,0,4.15,0,.45,0,.83,0,1.12S409.27,355.41,409.25,355.4Z" style="fill:#263238"></path><g style="opacity:0.30000000000000004"><path d="M409.25,355.4a26.51,26.51,0,0,1-13.4-22.28c-.32-6.51,1.68-12.89,3.94-19a2.45,2.45,0,0,1,.93-1.38,2.32,2.32,0,0,1,2.22.34c5.92,3.38,9.51,9.81,11.42,16.35a33,33,0,0,1,1.34,13.45,22.22,22.22,0,0,1-6.45,12.51"></path></g><path d="M418.45,404.91c8,1.76,14.63,7.42,22.38,10.17,5.12,1.83,10.91,2.47,15,6.05-1-2.48-3.31-4.13-5.57-5.54A99.36,99.36,0,0,0,430,405.91c-3.64-1.26-7.59-2.31-11.3-1.27" style="fill:#455a64"></path><path d="M406.85,412.06c-10.05-.16-20.63-8.72-30.64-9.23,10.47-3.38,25.46-.62,30.64,9.23" style="fill:#455a64"></path><path d="M410.78,388a32.59,32.59,0,0,1,16.06-1.09,97.6,97.6,0,0,1,15.69,4.26c-.52-3.49-3.34-6.11-6-8.43a42,42,0,0,0-6.3-4.84,14.05,14.05,0,0,0-7.56-2.13,11.9,11.9,0,0,0-8.33,4.2,13.79,13.79,0,0,0-3.57,8" style="fill:#455a64"></path><path d="M390.15,376.85c-6.33-5.4-15.91-4.87-24.22-4.68a196.92,196.92,0,0,1,37.56,23.41C403.83,389.7,398.14,383.68,390.15,376.85Z" style="fill:#455a64"></path><g style="opacity:0.30000000000000004"><path d="M390.15,376.85c-6.33-5.4-15.91-4.87-24.22-4.68a196.92,196.92,0,0,1,37.56,23.41C403.83,389.7,398.14,383.68,390.15,376.85Z"></path></g><path d="M413.62,369.4a71.2,71.2,0,0,1,9.73-5.66c3.33-1.51,6.44-3.92,9.65-5.66,4.17-2.26,7.79-5.4,11.61-8.2s8-5.32,12.72-6.07a25.2,25.2,0,0,0-11.57.67,75.07,75.07,0,0,0-10.89,4.24c-4.94,2.22-10,4.5-14,8.11s-7.68,7.17-7.26,12.57" style="fill:#455a64"></path><path d="M440.64,412.06l-.32-.14-.87-.45c-.76-.41-1.85-1-3.21-1.69q-1-.54-2.25-1.11c-.8-.4-1.68-.8-2.61-1.2a38.5,38.5,0,0,0-6.18-2.16,13.37,13.37,0,0,0-6.45-.16A17.9,17.9,0,0,0,416,406a13,13,0,0,0-2.21,1.13,14.16,14.16,0,0,0-2.77,2.29c-.58.62-.86,1-.89,1a1.22,1.22,0,0,1,.18-.29,9.79,9.79,0,0,1,.61-.79,12.92,12.92,0,0,1,2.74-2.4,13.55,13.55,0,0,1,2.22-1.2,19.15,19.15,0,0,1,2.77-.86,13.51,13.51,0,0,1,6.61.13,36.72,36.72,0,0,1,6.24,2.21c.93.41,1.8.82,2.6,1.23s1.56.78,2.23,1.15c1.36.72,2.43,1.35,3.17,1.8l.84.51C440.55,412,440.65,412.05,440.64,412.06Z" style="fill:#263238"></path><path d="M399.35,407.08a1.9,1.9,0,0,1,.63.18,16.55,16.55,0,0,1,1.64.71,20.07,20.07,0,0,1,4.8,3.41A19.81,19.81,0,0,1,410,416a13.5,13.5,0,0,1,.77,1.61c.16.39.24.61.21.62s-.43-.83-1.2-2.1a22.73,22.73,0,0,0-3.63-4.53,22.09,22.09,0,0,0-4.67-3.44C400.2,407.48,399.33,407.14,399.35,407.08Z" style="fill:#263238"></path><path d="M377.12,376.35a2.09,2.09,0,0,1,.43.13l1.2.42,1.9.71c.75.27,1.55.68,2.46,1.08A57.91,57.91,0,0,1,396.19,387a63.44,63.44,0,0,1,6.11,6,69.81,69.81,0,0,1,4.33,5.49c1.14,1.63,2,3,2.61,3.92l.69,1.07a3.05,3.05,0,0,1,.22.39,1.7,1.7,0,0,1-.28-.34q-.27-.36-.75-1.05c-.63-.91-1.53-2.24-2.7-3.84s-2.64-3.45-4.37-5.42A66.54,66.54,0,0,0,396,387.3a60.72,60.72,0,0,0-13-8.38c-.9-.42-1.69-.84-2.42-1.13L378.7,377l-1.18-.5A1.65,1.65,0,0,1,377.12,376.35Z" style="fill:#263238"></path><path d="M425.86,382.3a3.63,3.63,0,0,1-.81-.1l-.92-.17c-.36-.07-.78-.07-1.23-.12a12.7,12.7,0,0,0-6.91,1.36,12.52,12.52,0,0,0-3.14,2.33,14,14,0,0,0-2,2.5,20.36,20.36,0,0,0-1.38,2.64,2.68,2.68,0,0,1,.2-.79,11,11,0,0,1,1-2,13.76,13.76,0,0,1,2-2.6,12.19,12.19,0,0,1,10.31-3.71,11.65,11.65,0,0,1,1.24.17l.93.23A3.85,3.85,0,0,1,425.86,382.3Z" style="fill:#263238"></path><path d="M436,351a2.8,2.8,0,0,1-.38.23l-1.12.61c-1,.53-2.38,1.3-4.09,2.3s-3.69,2.27-5.82,3.79a49.19,49.19,0,0,0-6.5,5.45,16.46,16.46,0,0,0-2.66,3.44c-.66,1.26-1.29,2.49-1.86,3.66a65.2,65.2,0,0,0-2.8,6.36,40.86,40.86,0,0,0-1.36,4.47c-.25,1.08-.35,1.68-.38,1.68a2.16,2.16,0,0,1,0-.45c0-.29.1-.71.21-1.26a33.76,33.76,0,0,1,1.25-4.53,61.69,61.69,0,0,1,2.74-6.42c.57-1.18,1.2-2.4,1.85-3.67a16.53,16.53,0,0,1,2.71-3.53,47.47,47.47,0,0,1,6.57-5.47c2.15-1.51,4.17-2.74,5.88-3.73s3.15-1.73,4.15-2.21l1.15-.55A1.63,1.63,0,0,1,436,351Z" style="fill:#263238"></path><path d="M407.78,381.4a3.43,3.43,0,0,1-.2-.85c-.12-.62-.27-1.4-.44-2.32a59.65,59.65,0,0,0-4.77-14.78l-1-2.15a4.74,4.74,0,0,1-.33-.8,3.21,3.21,0,0,1,.45.74c.27.49.64,1.21,1.09,2.11a49.79,49.79,0,0,1,4.79,14.83c.15,1,.27,1.79.32,2.35A4.28,4.28,0,0,1,407.78,381.4Z" style="fill:#263238"></path><path d="M407.05,358.53a27.19,27.19,0,0,0-3.27-10.85,35.8,35.8,0,0,0-24.28-18.1q11.25,16.74,22.48,33.5l2.9,6C406.86,365.81,407.3,362.33,407.05,358.53Z" style="fill:#455a64"></path><rect x="387.03" y="424.55" width="52.26" height="9.26" style="fill:#FF725E"></rect><polygon points="390.93 431.97 395.38 460.71 430.07 460.71 435.38 431.97 390.93 431.97" style="fill:#FF725E"></polygon><path d="M439.26,433.82c0,.1-11.79.19-26.33.19s-26.33-.09-26.33-.19,11.79-.18,26.33-.18S439.26,433.72,439.26,433.82Z" style="fill:#263238"></path></g><g id="freepik--speech-bubble--inject-9"><path d="M162.27,170.54l-8.1,1.44a24.6,24.6,0,1,1,4.56-7.53h0Z" style="fill:#fff"></path><path d="M162.27,170.54l-.25-.41-.7-1.17c-.62-1-1.51-2.54-2.66-4.48h.14a.08.08,0,0,1-.12,0,.08.08,0,0,1,0-.11A24.7,24.7,0,0,0,160,152.59a23.58,23.58,0,0,0-.79-3.7,27,27,0,0,0-1.48-3.79,24.08,24.08,0,0,0-5.26-7.16,24.48,24.48,0,0,0-18.86-6.51A24.8,24.8,0,0,0,123,135.05a23.86,23.86,0,0,0-8.17,8.49,24.38,24.38,0,0,0,39.32,28.38.1.1,0,0,1,.05,0l6-1,1.56-.26.55-.08-.5.1-1.53.3-6.05,1.13.05,0a24.28,24.28,0,0,1-10,6.84,24.72,24.72,0,0,1-29.88-35.56l.8-1.33c.29-.42.6-.83.9-1.24a24.36,24.36,0,0,1,2-2.32c.33-.38.73-.7,1.09-1.05s.72-.7,1.13-1a23.89,23.89,0,0,1,2.44-1.72A25.25,25.25,0,0,1,133.58,131a25,25,0,0,1,10.68,1.43,24.69,24.69,0,0,1,8.47,5.24A24.39,24.39,0,0,1,158,145a25.76,25.76,0,0,1,1.48,3.85,24.21,24.21,0,0,1,.78,3.76,24.76,24.76,0,0,1-1.48,11.92l-.16-.09h0a.08.08,0,0,1,.12,0l0,0,2.59,4.59.65,1.17C162.21,170.41,162.27,170.54,162.27,170.54Z" style="fill:#263238"></path><polygon points="136.25 165.71 124.21 157.66 127.02 153.46 135.09 158.86 145.13 145.57 149.16 148.62 136.25 165.71" style="fill:#FF725E"></polygon></g><g id="freepik--characters-2-and-3--inject-9"><path d="M539.76,225.38s-6.38-1.87-11.12-.8-12.3,2.64-16.53,6.42c-1.94,1.74,1.27,3.38,3.37,2.71s5.48-2.12,6.85-2l1.36.15a90.45,90.45,0,0,1-6.54,6.29c-2,1.52-4.33,4.52-.47,6.05,0,0,1.44,4.37,5,2.76,0,0,1,3.86,5.87.71,0,0,1.08,3.16,2.23,2.51s4.35-1.22,6.22-4a117.18,117.18,0,0,1,7.79-9.17Z" style="fill:#ffbf9d"></path><path d="M612.31,161.69s14,2.31,6.78,18.78c-4.33,9.86-13.4,26.14-19,36.64-1.92,3.63-5.58,10-12.06,12.28l-45.14,12.34L536.3,224l43.28-19.47,15.85-28.73Z" style="fill:#455a64"></path><path d="M647.59,121.55c-.86-2-2.16-3.73-2.81-5.77-1.41-4.39.27-9.66-2.3-13.47-1.84-2.72-5.28-3.8-8.49-4.45s-6.64-1.13-9.2-3.19c-1.87-1.5-3.07-3.72-4.94-5.23-2.66-2.16-6.32-2.62-9.74-2.49A20.44,20.44,0,0,0,600,89.64a11.26,11.26,0,0,0-5.53,8.52c-.1,1.72.28,3.46-.09,5.14-.4,1.84-1.67,3.37-2.36,5.12A9,9,0,0,0,595.35,119l27.09,28.61c5.23,1.4,17.22-2.12,20.74-6.23S649.78,126.5,647.59,121.55Z" style="fill:#e0e0e0"></path><path d="M595.6,115c.28-7.13,4.81-16,11.92-15.4l22.3,5.11c2.16.17,1,3.79,1,6l.16,49.12s3.12,1.79,4.12,1.29a.29.29,0,0,1,.39.4c-2.21,4-12.81,21.69-25.91,17.93-2.93-.84-.7-10-1.36-13.28l-.46-8.44c-.15-4.31-.19-6.08-.19-6s-9.14-1.31-11.3-13.14C595.2,132.58,595.28,122.89,595.6,115Z" style="fill:#ffbf9d"></path><path d="M599.35,127a1.52,1.52,0,0,0,1.5,1.5,1.45,1.45,0,0,0,1.54-1.41,1.52,1.52,0,0,0-1.5-1.5A1.45,1.45,0,0,0,599.35,127Z" style="fill:#263238"></path><path d="M613.42,126.7a1.51,1.51,0,0,0,1.5,1.5,1.45,1.45,0,0,0,1.54-1.4,1.53,1.53,0,0,0-1.5-1.51A1.46,1.46,0,0,0,613.42,126.7Z" style="fill:#263238"></path><path d="M597.14,120.71c.19.26,1.51-.77,3.3-.69s3,1.18,3.24.93-.08-.57-.63-1.08a4,4,0,0,0-5.22-.19C597.26,120.15,597,120.6,597.14,120.71Z" style="fill:#263238"></path><path d="M613.08,120.44c.24.23,1.52-.91,3.42-1s3.35.83,3.55.57-.15-.55-.79-1a4.69,4.69,0,0,0-2.85-.76,4.54,4.54,0,0,0-2.71,1.12C613.15,119.88,613,120.34,613.08,120.44Z" style="fill:#263238"></path><path d="M608.26,132.18a11.59,11.59,0,0,0-2.68-.42c-.42,0-.81-.1-.89-.39a2.09,2.09,0,0,1,.25-1.24c.37-1,.76-2.1,1.17-3.22,1.61-4.58,2.77-8.34,2.59-8.4s-1.65,3.59-3.26,8.17c-.39,1.13-.76,2.21-1.12,3.23a2.53,2.53,0,0,0-.18,1.65,1.08,1.08,0,0,0,.71.6,3.21,3.21,0,0,0,.71.08A10.36,10.36,0,0,0,608.26,132.18Z" style="fill:#263238"></path><path d="M607.57,151.61A30.24,30.24,0,0,0,623.38,147s-3.81,8.43-15.73,7.59Z" style="fill:#ff9a6c"></path><path d="M613.69,136.44a2.46,2.46,0,0,0-.93-.91,2,2,0,0,0-1.42,0,3.21,3.21,0,0,0-1.75,1.12,2,2,0,0,0-.27,2h0c.25.66,1.3.94,2,1a3.12,3.12,0,0,0,2-.63,1.76,1.76,0,0,0,.9-1.45A2.11,2.11,0,0,0,613.69,136.44Z" style="fill:#ff9a6c"></path><path d="M613.13,134.18c-.26,0-.23,1.77-1.72,3.07s-3.4,1.14-3.4,1.39.43.34,1.23.34a4.46,4.46,0,0,0,2.84-1.06,3.86,3.86,0,0,0,1.33-2.57C613.46,134.6,613.25,134.17,613.13,134.18Z" style="fill:#263238"></path><path d="M612.59,114.06c.17.44,1.8.19,3.73.38s3.5.68,3.74.27c.11-.19-.17-.6-.8-1a6.51,6.51,0,0,0-5.7-.5C612.86,113.49,612.52,113.85,612.59,114.06Z" style="fill:#e0e0e0"></path><path d="M597.55,114.66c.34.36,1.62,0,3.17-.1s2.87.18,3.16-.22c.13-.19-.08-.56-.66-.9a5,5,0,0,0-2.6-.55,4.8,4.8,0,0,0-2.51.81C597.57,114.09,597.4,114.48,597.55,114.66Z" style="fill:#e0e0e0"></path><path d="M634.76,105.89c-1.25-1.57-3.3-2.24-5.23-2.77a108.92,108.92,0,0,0-25.62-3.87c-.89,1.86.33,4.14,2.06,5.26s3.85,1.42,5.84,1.94,4.07,1.44,5.05,3.25.57,4.39,1.52,6.36c1.62,3.41,6.66,4.06,8.27,7.47,1.21,2.58,0,5.58-.16,8.44a10.2,10.2,0,0,0,11.11,10.55Q637,127.24,636.32,112C636.24,109.82,636.09,107.54,634.76,105.89Z" style="fill:#e0e0e0"></path><path d="M658.18,110.28a8.54,8.54,0,0,0-14.94-1.42l-3,18.9a7.2,7.2,0,0,0,5.06,6.58,9.39,9.39,0,0,0,8.37-1.72,13.56,13.56,0,0,0,4.59-7.43,34.63,34.63,0,0,0,.76-7.68C659.1,115.07,659.14,112.53,658.18,110.28Z" style="fill:#e0e0e0"></path><path d="M644,107.09a11.75,11.75,0,0,0,.94,4.33,39.87,39.87,0,0,0,2.38,4.25,16.36,16.36,0,0,1,2.32,5.6,15.83,15.83,0,0,1-.2,6.06,28.69,28.69,0,0,1-1.47,4.71c-.53,1.3-1,2.33-1.34,3a5.82,5.82,0,0,1-.58,1.07,5.07,5.07,0,0,1,.39-1.15c.28-.73.71-1.78,1.18-3.08a31.4,31.4,0,0,0,1.35-4.68,15.72,15.72,0,0,0,.15-5.87,16.33,16.33,0,0,0-2.21-5.44,35.57,35.57,0,0,1-2.31-4.35,9.06,9.06,0,0,1-.71-3.26,5.6,5.6,0,0,1,0-.91C643.93,107.19,644,107.09,644,107.09Z" style="fill:#fff"></path><path d="M645.79,115.82a2.62,2.62,0,0,1-.4.3,4.54,4.54,0,0,1-1.33.51,7.29,7.29,0,0,1-5-1.06c-2-1.06-3.67-3.17-5.71-5.15a11.5,11.5,0,0,0-3.62-2.51,12.82,12.82,0,0,0-4.67-.82c-1.66,0-3.28.07-4.87,0a19.07,19.07,0,0,1-4.54-.56,20.22,20.22,0,0,1-7-3.27,19.13,19.13,0,0,1-3.74-3.6,13.07,13.07,0,0,1-.82-1.16,2.05,2.05,0,0,1-.24-.43,24.48,24.48,0,0,0,5,4.89,20.06,20.06,0,0,0,6.87,3.1,18.69,18.69,0,0,0,4.44.52c1.56,0,3.18-.09,4.87-.05a13.16,13.16,0,0,1,4.85.87,12,12,0,0,1,3.77,2.63c2.06,2.05,3.66,4.13,5.56,5.18a7.31,7.31,0,0,0,4.82,1.18A6.9,6.9,0,0,0,645.79,115.82Z" style="fill:#fff"></path><path d="M644.47,108.79a1.23,1.23,0,0,1-.27.36,3.51,3.51,0,0,1-1.05.74,5.56,5.56,0,0,1-4.63-.16c-1.87-.83-3.52-2.63-5.38-4.38a11.06,11.06,0,0,0-3.29-2.21,9.94,9.94,0,0,0-4.21-.5c-1.48.08-2.93.3-4.37.36a23.87,23.87,0,0,1-10.8-2,23.22,23.22,0,0,1-4.07-2.3c-.45-.32-.78-.6-1-.78s-.34-.3-.32-.31a15.37,15.37,0,0,1,1.43.92,26.11,26.11,0,0,0,4.1,2.13,24.81,24.81,0,0,0,6.61,1.72,24.25,24.25,0,0,0,4,.13c1.4-.06,2.85-.29,4.36-.37a10.26,10.26,0,0,1,4.42.55,11,11,0,0,1,3.43,2.33c1.89,1.81,3.45,3.57,5.21,4.39a5.47,5.47,0,0,0,4.4.31A5.28,5.28,0,0,0,644.47,108.79Z" style="fill:#fff"></path><path d="M666.07,402.93l19.26,26.17L652.9,453.24c-2.12-3.24,10-21.95,10-21.95L649.9,415Z" style="fill:#455a64"></path><path d="M671.92,422.42a1.66,1.66,0,0,1,2,.83,1.6,1.6,0,0,1-.81,2,1.73,1.73,0,0,1-2.15-.89,1.64,1.64,0,0,1,1.07-2" style="fill:#fff"></path><path d="M685.37,429.15l-2-2.81L653,450.74s-1,1.71,0,2.6Z" style="fill:#263238"></path><path d="M662.28,431.52c.13.15,1-.37,2.13-.44s2.07.29,2.17.12-.82-.91-2.22-.8S662.14,431.4,662.28,431.52Z" style="fill:#263238"></path><path d="M659.93,435.45c.08.19,1-.06,2,.21s1.72.87,1.87.74-.41-1.09-1.71-1.4S659.82,435.3,659.93,435.45Z" style="fill:#263238"></path><path d="M661,441c.17-.07-.2-1-1.25-1.59s-2-.36-2-.18.83.31,1.69.78S660.86,441.07,661,441Z" style="fill:#263238"></path><path d="M659.73,427.48c.17.1.73-.66,1.67-1.27s1.85-.84,1.83-1-1.11-.26-2.2.47S659.56,427.41,659.73,427.48Z" style="fill:#263238"></path><path d="M587.66,293.45c-.59,3.29-1.5,31.19-2.09,45.9s.87,22,2.56,25.25,65.14,50.08,70,61.28l16-13s-23.54-42.34-33.64-50-29.39-14.77-29.39-14.77l5.49-80.59-26.35-1.44Z" style="fill:#263238"></path><path d="M646.64,428.8l.28,32.49-40.43.56c.19-3.87,21-11.91,21-11.91l-1-20.81Z" style="fill:#455a64"></path><path d="M640,448a1.65,1.65,0,0,1,1.17,1.87,1.6,1.6,0,0,1-1.85,1.17,1.75,1.75,0,0,1-1.22-2,1.64,1.64,0,0,1,2.05-1" style="fill:#fff"></path><path d="M646.92,461.36v-3.48l-38.86,2s-1.78.82-1.55,2.08Z" style="fill:#263238"></path><path d="M626.82,449.74c0,.2,1,.28,2,.9s1.51,1.44,1.69,1.36-.13-1.21-1.33-1.95S626.78,449.56,626.82,449.74Z" style="fill:#263238"></path><path d="M622.61,451.56c0,.19.82.51,1.5,1.34s.89,1.7,1.08,1.69.31-1.13-.56-2.14S622.61,451.37,622.61,451.56Z" style="fill:#263238"></path><path d="M620.27,456.66c.18,0,.44-1-.08-2s-1.45-1.49-1.53-1.33.5.74.91,1.63S620.07,456.65,620.27,456.66Z" style="fill:#263238"></path><path d="M627.11,445c.09.17,1-.11,2.11-.05s2,.4,2.09.23-.74-.86-2.06-.92S627,444.82,627.11,445Z" style="fill:#263238"></path><path d="M584.74,262.77c0,1.9-3.08,49.92,12.62,84.65,0,0,5.44,10.86,6.39,15.62s21.31,83.5,21.31,83.5l23.47-.86s3.76-39.46,0-62.29-10.75-20.17-10.75-34.91,3.5-45.33,3.5-45.33,5.13-8.36,6.87-24.55c1.42-13.15-4.76-27.24-4.76-27.24l-6.13-10.84-51.78-2.71Z" style="fill:#263238"></path><path d="M584.74,262.77s0-.55,0-1.64.06-2.69.1-4.8c.11-4.23.26-10.47.46-18.53v-.12h.13l51.78,2.63h.12l0,.1,6.14,10.83h0a69.39,69.39,0,0,1,3.69,11.88,53,53,0,0,1,1.29,13.06,81.22,81.22,0,0,1-2.11,13.61,55,55,0,0,1-5,13.46l0-.1c-.89,8-1.71,16.28-2.41,24.81-.34,4.27-.65,8.6-.86,13-.11,2.19-.19,4.4-.2,6.62,0,1.11,0,2.21.06,3.32a30.35,30.35,0,0,0,.41,3.3,22.12,22.12,0,0,0,2.22,6.3c1,2,2.21,4,3.19,6.08a57.32,57.32,0,0,1,4.21,13.29c1.87,9.22,2.25,18.8,2.35,28.45,0,12.75-.6,25.27-1.65,37.38l0,.24h-.25l-23.47.85h-.23l-.05-.21c-6.8-26.38-13.15-51-18.74-73.2l-2-8.21c-.34-1.35-.57-2.71-1-4s-.88-2.56-1.38-3.8c-1-2.49-2.09-4.9-3.2-7.25-.28-.59-.56-1.17-.83-1.75a18.6,18.6,0,0,1-.8-1.76c-.48-1.18-1-2.36-1.44-3.52A142,142,0,0,1,588,316.41,233.82,233.82,0,0,1,584.42,277c-.06-9.24.32-14.26.32-14.26s0,.31,0,.93,0,1.54-.07,2.74c-.07,2.41-.1,6,0,10.59a237.34,237.34,0,0,0,3.7,39.31A141.55,141.55,0,0,0,595.77,343c.47,1.16,1,2.33,1.44,3.5a15.16,15.16,0,0,0,.79,1.75l.84,1.75c1.12,2.35,2.21,4.77,3.22,7.27.5,1.25,1,2.52,1.4,3.83s.67,2.69,1,4q1,4.05,2,8.2c5.69,22.14,12,46.79,18.81,73.18l-.28-.21,23.47-.86-.27.25c1-12.08,1.68-24.59,1.64-37.31-.1-9.63-.48-19.19-2.34-28.34a56.77,56.77,0,0,0-4.16-13.17c-1-2.07-2.12-4-3.18-6.07a22.47,22.47,0,0,1-2.27-6.44,32.31,32.31,0,0,1-.42-3.37c0-1.13-.1-2.26-.06-3.37,0-2.23.1-4.44.21-6.64.21-4.39.52-8.72.87-13q1.07-12.81,2.43-24.83v-.05l0-.06a55.39,55.39,0,0,0,4.92-13.31A81.43,81.43,0,0,0,648,276.19a53.09,53.09,0,0,0-1.26-12.94,69.94,69.94,0,0,0-3.64-11.8v0L637,240.62l.17.11-51.77-2.8.13-.12c-.25,8.05-.45,14.29-.58,18.52-.07,2.11-.13,3.71-.16,4.81S584.74,262.77,584.74,262.77Z" style="fill:#455a64"></path><path d="M584.49,217.56V205.69c-1.32-6.65-.69-14.54,2.4-20.62,1.8-3.54,5.93-9.19,7.44-11.31l14-14.84c6.49,4.73,13.82.61,22.55-2.57,0,0,9.21,5,13.22,9.49,4.21,4.71-10.19,63.72-10.19,63.72,6.52,13.05,14.95,24.62,16.22,36.54L582,268.73l2.89-31.26Z" style="fill:#455a64"></path><path d="M585.43,237.81a5.71,5.71,0,0,0,.05-1.34c0-1,0-2.19,0-3.63-.05-3.19-.12-7.37-.19-12s-.21-8.92-.36-12c-.07-1.53-.15-2.77-.22-3.63a5.85,5.85,0,0,0-.17-1.33,7.55,7.55,0,0,0,0,1.34c0,1,0,2.19,0,3.63.06,3.19.12,7.37.2,12s.21,8.91.36,12c.07,1.53.15,2.77.22,3.63A6.33,6.33,0,0,0,585.43,237.81Z" style="fill:#263238"></path><path d="M639.23,163.25a16,16,0,0,1,8.35,6.27c2.55,3.92,3.33,10.77,2.6,15.78C648.64,196,643.75,214,641,225.52c-1,4-2.89,11.12-8.6,14.91l-52.56,1.09-1.11-16.6,40.91-8.2,5.63-39.58Z" style="fill:#455a64"></path><path d="M645.58,169a2.83,2.83,0,0,0-.82-.34,14.64,14.64,0,0,0-2.38-.54,14,14,0,0,0-7.92,1.07,15.84,15.84,0,0,0-5.92,5.39,10,10,0,0,0-1.08,2.19,2.31,2.31,0,0,0-.19.88,22.75,22.75,0,0,1,1.6-2.85,16.89,16.89,0,0,1,5.84-5.11,14.78,14.78,0,0,1,7.63-1.18C644.35,168.69,645.55,169.08,645.58,169Z" style="fill:#263238"></path><path d="M625.37,182.25a3,3,0,0,1-.06.7c-.08.5-.17,1.16-.29,2-.27,1.78-.66,4.27-1.14,7.33l-4,24.49,0,.18-.17,0-2.94.58-26.31,5.2-8,1.52-2.18.39a5.91,5.91,0,0,1-.76.1,3.7,3.7,0,0,1,.74-.21l2.16-.48,8-1.68,26.28-5.35,2.93-.58-.2.21c1.63-9.62,3.09-18.21,4.15-24.46.55-3.06,1-5.54,1.3-7.31.16-.82.28-1.48.38-2A3.86,3.86,0,0,1,625.37,182.25Z" style="fill:#263238"></path><path d="M647,200.91a.74.74,0,0,1,0,.24c0,.19-.1.41-.17.69-.16.65-.39,1.53-.67,2.65-.63,2.34-1.51,5.64-2.59,9.71l-3.89,14.39a16.6,16.6,0,0,1-12.92,11.93,30.57,30.57,0,0,1-4.82.32l-4.66.1-8.8.18-14.9.28-10.05.14h-3.44l-.25,0a.87.87,0,0,1,.25,0l.71-.05,2.73-.11,10-.3,14.9-.39,8.8-.21,4.66-.11a28.78,28.78,0,0,0,4.73-.32,16.1,16.1,0,0,0,12.55-11.54c1.51-5.39,2.86-10.25,4-14.36s2.08-7.34,2.74-9.66c.32-1.11.58-2,.77-2.63.09-.27.16-.49.21-.67A1.29,1.29,0,0,1,647,200.91Z" style="fill:#263238"></path><path d="M501.6,158.63c.77-.39,12-4,12-4l23.24.21L547,157.46l-10.8,16.31L521,174.3l-13-6.11-5-6.47Z" style="fill:#ae7461"></path><path d="M537.69,89.11c3.15-3.2,10.59-2.41,12.27-.16a5.7,5.7,0,0,1,7.35,2.77l7.86,2a8.37,8.37,0,0,1,3.75,1.68,2.85,2.85,0,0,1,.52,3.73c2.77.84,3.7,5,1.55,7a3,3,0,0,1-.62,4.33,30,30,0,0,1,4.77,9,6.13,6.13,0,0,1,.23,4.19c-.55,1.32-2.35,2.18-3.47,1.29a3.53,3.53,0,0,1,0,3.81c1.35.08,1.66,2.17.7,3.11s-2.46,1-3.8.9-2.79-.21-3.92.52a1.16,1.16,0,0,0,.41.86,5.52,5.52,0,0,1,.93,7.57c-.16.22-.32.42-.46.6-.82,1.07-2.78,2-4,2.58-3.1,1.47-4.89,1.1-8.3,1.46.84,2.21-4.85,6.84-11,1.84a121,121,0,0,1-34.79,3.34c-1.86-.06-4.08-.4-4.84-2.1a4.58,4.58,0,0,1-4.18-1.55,13.46,13.46,0,0,1-2.34-4,8.07,8.07,0,0,1-5.53-7.51,10,10,0,0,1-3.5-7.25,5.86,5.86,0,0,1-3.05-8,35.3,35.3,0,0,1,4.28-10.8c-2.11-.54-2.79-3.44-1.84-5.4s2.93-3.17,4.82-4.26c-1.61.36-2.92-1.69-2.48-3.28s1.93-2.64,3.37-3.43a30,30,0,0,1,6.71-2.68c.86-2.77,4.56-5.82,7.23-7,10.77-4.59,18.23-5.57,31.32,4.82" style="fill:#263238"></path><path d="M539.72,100.8l-18.29-7c-7.19-1.43-12.84,7.07-14,14.32-1.25,8-2.46,17.93-2,24.06a16.49,16.49,0,0,0,11.41,15.15s-.56,8.4-.56,8.4c.68,5.76,6.74,6.14,6.74,6.14,16.61,1.14,18.15-8.19,18.15-8.19l2-46C543.44,105.44,541.91,101.24,539.72,100.8Z" style="fill:#ae7461"></path><path d="M518.37,127.17a11.15,11.15,0,0,0-2.67-.74c-.43-.08-.83-.2-.87-.5a2.25,2.25,0,0,1,.4-1.25c.5-1,1-2,1.56-3.14,2.19-4.48,3.81-8.18,3.63-8.27s-2.1,3.48-4.28,8c-.53,1.1-1,2.16-1.52,3.17a2.52,2.52,0,0,0-.37,1.66,1.09,1.09,0,0,0,.65.69,3.14,3.14,0,0,0,.71.17A10.85,10.85,0,0,0,518.37,127.17Z" style="fill:#263238"></path><path d="M516.82,147.33s4.34,1.64,15.19-1.92c0,0-3.13,6.6-15.47,5Z" style="fill:#6f4439"></path><path d="M526.41,108.78c.12.47,1.82.4,3.76.82s3.49,1.1,3.79.71c.13-.18-.1-.64-.71-1.14a6.36,6.36,0,0,0-2.74-1.24,6.46,6.46,0,0,0-3,.07C526.75,108.23,526.36,108.55,526.41,108.78Z" style="fill:#263238"></path><path d="M510.26,107.76c.26.4,1.45.11,2.84.22s2.54.49,2.85.12c.14-.18,0-.58-.49-1a3.89,3.89,0,0,0-2.25-.83,4,4,0,0,0-2.34.55C510.34,107.18,510.15,107.56,510.26,107.76Z" style="fill:#263238"></path><path d="M501.72,113.72a8.35,8.35,0,0,1,2.26-5.15,29.24,29.24,0,0,0,2.36-2.08c1.46-1.73,1.38-4.24,2.06-6.4a9.22,9.22,0,0,1,6-5.92c2.32-.71,4.9-.48,7.1-1.52,1.63-.77,2.9-2.17,4.57-2.84,3.24-1.31,6.85.5,9.77,2.42.48,2.41-1.12,4.41-2.67,6.32a8.51,8.51,0,0,1-6.42,3.12c-1.91,0-4.11-.51-5.51.79s-1.05,3.9-2.28,5.49c-1.76,2.26-5.48,1.19-8,2.53-2,1-2.87,3.27-3.92,5.22s-2.82,4-5,3.74A24.4,24.4,0,0,1,501.72,113.72Z" style="fill:#263238"></path><path d="M530.88,96.35a43.37,43.37,0,0,1,16.17,3.7,7.89,7.89,0,0,1,3.89,3,7.74,7.74,0,0,1,.66,4.27c-.27,4.56-2.37,10-4.3,14.19l-5.86,3.15c-4.34-1.25-2-8.73-1.58-12.51A9,9,0,0,1,535,104,9.94,9.94,0,0,1,530.88,96.35Z" style="fill:#263238"></path><path d="M541.6,123c.29-2.6,3.52-3,5.7-1.51,1.19.8,2.05,2.3,1.76,5.06-.76,7.37-8,5.08-8,4.87S541.25,126,541.6,123Z" style="fill:#ae7461"></path><path d="M543.61,128.84s.12.1.32.22a1.27,1.27,0,0,0,1,.12,3.19,3.19,0,0,0,1.77-2.69,4.31,4.31,0,0,0-.17-1.88,1.49,1.49,0,0,0-.86-1.08.67.67,0,0,0-.8.27c-.12.2-.08.35-.12.36s-.15-.14-.06-.44a.84.84,0,0,1,.34-.43,1,1,0,0,1,.73-.12,1.83,1.83,0,0,1,1.22,1.29,4.38,4.38,0,0,1,.23,2.1c-.2,1.48-1.11,2.78-2.2,3a1.39,1.39,0,0,1-1.16-.32C543.6,129,543.58,128.85,543.61,128.84Z" style="fill:#6f4439"></path><path d="M544.29,132s0,0,0,.1a1,1,0,0,0,.09.29,1.7,1.7,0,0,0,.82.8,4.39,4.39,0,0,0,1.81.47,6,6,0,0,0,1.19,0,4.35,4.35,0,0,0,1.31-.33l-.09,0a3.68,3.68,0,0,0,5.74,2.61l-.12,0a1.54,1.54,0,0,0,.94.69,2.13,2.13,0,0,0,1.2,0,2,2,0,0,0,1-.74,2.67,2.67,0,0,0,.43-1.2,3.79,3.79,0,0,0-.69-2.5,11.27,11.27,0,0,0-1.86-2l0,.17a2.58,2.58,0,0,0,1.25-1.69,3.81,3.81,0,0,0-.1-2.19,5.86,5.86,0,0,0-1.21-1.9,16.68,16.68,0,0,0-1.68-1.57V123a2.74,2.74,0,0,0,.83-2.11,4,4,0,0,0-.73-2.23,9.79,9.79,0,0,0-3.48-2.68l.05.13a4.91,4.91,0,0,0-5.05-6.31l.11.13a4.23,4.23,0,0,0-.83-3.64,4.18,4.18,0,0,0-3.05-1.68l.09.1a4.16,4.16,0,0,0-1.53-3.3,4.1,4.1,0,0,0-3-1l.08.08a4.12,4.12,0,0,0-.51-1.92,5.37,5.37,0,0,0-1.06-1.41A4.26,4.26,0,0,0,533.71,96l-.27,0h-.26a3.38,3.38,0,0,0-.47,0,5.16,5.16,0,0,0-.72.17l-.42.15-.14.06.15,0,.42-.14a6.37,6.37,0,0,1,.71-.14,3.47,3.47,0,0,1,.47,0h.25l.27,0a4.19,4.19,0,0,1,2.41,1.21,5.11,5.11,0,0,1,1,1.39,3.83,3.83,0,0,1,.48,1.85v.09h.08a3.92,3.92,0,0,1,2.93,1,4,4,0,0,1,1.45,3.16v.09h.09a4.22,4.22,0,0,1,3.69,5.08l0,.14H546a4.69,4.69,0,0,1,4.81,6l0,.09.08,0a9.72,9.72,0,0,1,3.41,2.62,3.85,3.85,0,0,1,.69,2.11,2.57,2.57,0,0,1-.76,1.94l-.09.08.1.08A8.72,8.72,0,0,1,557,126.4a3.63,3.63,0,0,1,.11,2.06A2.42,2.42,0,0,1,556,130l-.13.07.11.1a10.77,10.77,0,0,1,1.83,1.94,3.62,3.62,0,0,1,.67,2.37,2,2,0,0,1-1.3,1.78,1.61,1.61,0,0,1-1.93-.56l-.05-.08-.07.06a3.55,3.55,0,0,1-5.53-2.48v-.09l-.07,0a4.32,4.32,0,0,1-1.28.33,6.67,6.67,0,0,1-1.17,0,4.65,4.65,0,0,1-1.78-.43,1.71,1.71,0,0,1-.82-.77A2.19,2.19,0,0,1,544.29,132Z" style="fill:#455a64"></path><path d="M572.79,125.38a2.1,2.1,0,0,0,.3-.44,3.61,3.61,0,0,0,.46-1.44,3.66,3.66,0,0,0-.5-2.34,3.87,3.87,0,0,0-2.59-1.83l.06.09a5.11,5.11,0,0,0-.5-3.68,5,5,0,0,0-1.38-1.6,11.23,11.23,0,0,0-2-1,3.71,3.71,0,0,1-.94-.61,2.62,2.62,0,0,1-.64-1c-.29-.72-.36-1.56-.74-2.34a4.48,4.48,0,0,0-4.39-2.44l.12.13a5.92,5.92,0,0,0-6.25-7l.12.12a5.21,5.21,0,0,0-7.86-5.23l.12,0a7.12,7.12,0,0,0-2.51-1.7,11.22,11.22,0,0,0-2.62-.73,12.34,12.34,0,0,0-4.39.1,8.69,8.69,0,0,0-2.66,1,5.08,5.08,0,0,0-.62.41l-.2.15s.29-.2.85-.51a9.29,9.29,0,0,1,2.65-.91,12.73,12.73,0,0,1,4.35,0,11.1,11.1,0,0,1,2.58.74,7.11,7.11,0,0,1,2.43,1.67l0,0,.07,0a5,5,0,0,1,7.54,5l0,.14h.14a5.79,5.79,0,0,1,4.74,2,5.86,5.86,0,0,1,1.27,4.77l0,.14H560a4.28,4.28,0,0,1,4.18,2.31c.36.73.43,1.57.74,2.33a2.72,2.72,0,0,0,.69,1,3.94,3.94,0,0,0,1,.65,11.55,11.55,0,0,1,1.95,1,4.63,4.63,0,0,1,1.33,1.54,4.88,4.88,0,0,1,.51,3.55l0,.08h.08a3.84,3.84,0,0,1,2.53,1.75,3.65,3.65,0,0,1,.51,2.27,4.1,4.1,0,0,1-.41,1.44C572.9,125.23,572.78,125.37,572.79,125.38Z" style="fill:#455a64"></path><path d="M502.05,124.13a.74.74,0,0,0,.05-.61,1.41,1.41,0,0,0-.4-.63,2.44,2.44,0,0,0-.89-.5,4.59,4.59,0,0,1-1.13-.53,2.3,2.3,0,0,1-.78-1.23,4.51,4.51,0,0,1-.11-1.7c.06-.61.18-1.25.22-1.94a20.32,20.32,0,0,0-.74-4.41,6,6,0,0,1,0-2.43,3,3,0,0,1,1.43-2,11.32,11.32,0,0,1,2.63-.76,4.58,4.58,0,0,0,1.36-.55,3,3,0,0,0,1-1.13,14.13,14.13,0,0,0,.92-2.87,4.91,4.91,0,0,1,.57-1.38,2.26,2.26,0,0,1,1.14-.9,8.6,8.6,0,0,1,2.05-.19,3.22,3.22,0,0,0,1.05-.21,2,2,0,0,0,.85-.65,7,7,0,0,0,.86-1.85,4.51,4.51,0,0,1,4.29-3,4.59,4.59,0,0,1,3.08,1.28l.1.1.06-.12a7,7,0,0,1,4.56-3.59,6.77,6.77,0,0,1,2.48-.1,6.11,6.11,0,0,1,2,.66,5.26,5.26,0,0,1,2.07,2.09,4.44,4.44,0,0,1,.33.71l.08.18,0,.07s0,0,0-.07l-.07-.19a4.4,4.4,0,0,0-.31-.73,5.23,5.23,0,0,0-2.06-2.16,6.06,6.06,0,0,0-2-.69,6.45,6.45,0,0,0-2.54.08,7.18,7.18,0,0,0-4.69,3.65l.15,0a4.75,4.75,0,0,0-3.22-1.35A4.65,4.65,0,0,0,513,95.86a4.78,4.78,0,0,0-1.06,1.7,6.81,6.81,0,0,1-.83,1.79,2.13,2.13,0,0,1-1.73.78,8.18,8.18,0,0,0-2.12.2,2.5,2.5,0,0,0-1.25,1,5.3,5.3,0,0,0-.6,1.44,14.62,14.62,0,0,1-.89,2.83,2.81,2.81,0,0,1-.91,1,4.56,4.56,0,0,1-1.29.53,11.3,11.3,0,0,0-2.68.78,2.91,2.91,0,0,0-1,.93,3.82,3.82,0,0,0-.51,1.22,6.43,6.43,0,0,0,0,2.51,20.22,20.22,0,0,1,.77,4.38c0,.67-.15,1.31-.2,1.93a4.58,4.58,0,0,0,.13,1.75,2.39,2.39,0,0,0,.83,1.27,4.26,4.26,0,0,0,1.17.53,2.52,2.52,0,0,1,.88.47,1.46,1.46,0,0,1,.4.6A1,1,0,0,1,502.05,124.13Z" style="fill:#455a64"></path><path d="M488.24,112l.08-.14.22-.4.84-1.57c.36-.68.78-1.53,1.36-2.45a6.6,6.6,0,0,1,2.59-2.54c.62-.3,1.32-.48,2-.75a4.52,4.52,0,0,0,1-.55,2.5,2.5,0,0,0,.8-.93c.38-.75.43-1.62.75-2.4a2.07,2.07,0,0,1,.76-1,3.82,3.82,0,0,1,1.21-.5,7.4,7.4,0,0,0,1.33-.44,2.38,2.38,0,0,0,1.06-1,11.07,11.07,0,0,0,.76-2.83,3.69,3.69,0,0,1,.55-1.34,1.87,1.87,0,0,1,1.21-.71c1-.16,2,.23,3.1.11a2.62,2.62,0,0,0,1.46-.69,7.15,7.15,0,0,0,1-1.23,12.45,12.45,0,0,1,.87-1.24,2.89,2.89,0,0,1,1.12-.88,4.39,4.39,0,0,1,2.79.15,6.56,6.56,0,0,0,2.8.38,7.61,7.61,0,0,0,2.49-1A12.86,12.86,0,0,1,522.66,87a7.68,7.68,0,0,1,4.39.06,8.32,8.32,0,0,1,3.17,1.82,9,9,0,0,1,1.69,2.21,9.65,9.65,0,0,1,.7,1.62c.06.19.11.33.15.44l.06.14s0-.05,0-.15-.07-.26-.13-.44a9,9,0,0,0-.66-1.65,9.31,9.31,0,0,0-1.68-2.26,8.37,8.37,0,0,0-3.21-1.88,7.87,7.87,0,0,0-4.5-.09,12.92,12.92,0,0,0-2.27,1.12,7.39,7.39,0,0,1-2.42,1,6.27,6.27,0,0,1-2.71-.37,9.45,9.45,0,0,0-1.42-.32,2.82,2.82,0,0,0-2.72,1.11,13,13,0,0,0-.89,1.25,6.49,6.49,0,0,1-.94,1.19,2.33,2.33,0,0,1-1.34.63c-1,.12-2-.27-3.11-.1a2,2,0,0,0-1.34.8,3.67,3.67,0,0,0-.59,1.42,11,11,0,0,1-.74,2.78,2.16,2.16,0,0,1-1,.91,7.34,7.34,0,0,1-1.3.43,4.39,4.39,0,0,0-1.27.53,2.26,2.26,0,0,0-.82,1.07c-.33.82-.38,1.68-.74,2.39a3,3,0,0,1-1.73,1.39c-.69.28-1.4.47-2,.78a6.66,6.66,0,0,0-2.63,2.61c-.57.94-1,1.8-1.33,2.48l-.8,1.59-.2.41Q488.23,112,488.24,112Z" style="fill:#455a64"></path><path d="M496.46,104.66l-.14,0a.83.83,0,0,0-.4.07,1.58,1.58,0,0,0-.79,1.27,3.7,3.7,0,0,0,.11,1.12,4.75,4.75,0,0,1,.13,1.28,2.9,2.9,0,0,1-.59,1.34c-.3.44-.69.86-1,1.37a2.14,2.14,0,0,0-.27,1.85c.21.64.64,1.19.84,1.84a2.75,2.75,0,0,1-.3,2c-.32.67-.76,1.3-1.08,2a3.36,3.36,0,0,0-.29,1.19,3,3,0,0,0,.22,1.23,14.06,14.06,0,0,0,1.31,2.17,3.43,3.43,0,0,1,.67,2.38,11.28,11.28,0,0,1-1,2.45,3.89,3.89,0,0,0-.34,1.35,3,3,0,0,0,.28,1.34,11.21,11.21,0,0,0,1.5,2.16,6.08,6.08,0,0,1,1.2,2.16,15.83,15.83,0,0,0,.66,2.33,2.6,2.6,0,0,0,.7,1,3.5,3.5,0,0,0,1,.55c.35.14.7.25,1,.41a3.67,3.67,0,0,1,.83.62,8.06,8.06,0,0,1,1.14,1.64c.31.57.6,1.12.93,1.62a5.1,5.1,0,0,0,2.49,2,5.54,5.54,0,0,0,2.4.34,4.81,4.81,0,0,0,1.49-.36,5,5,0,0,0,.48-.25,5.7,5.7,0,0,1-2,.52,5.4,5.4,0,0,1-2.35-.37,5,5,0,0,1-2.4-2c-.32-.5-.6-1-.91-1.62a7.6,7.6,0,0,0-1.16-1.69,4.15,4.15,0,0,0-.87-.66,10,10,0,0,0-1-.42,3.38,3.38,0,0,1-1-.53,2.39,2.39,0,0,1-.64-.89,17.31,17.31,0,0,1-.65-2.31,6.2,6.2,0,0,0-1.23-2.23,11.41,11.41,0,0,1-1.46-2.12,2.84,2.84,0,0,1-.27-1.25,3.78,3.78,0,0,1,.32-1.26,11.16,11.16,0,0,0,1-2.5,2.92,2.92,0,0,0-.12-1.35,5.21,5.21,0,0,0-.59-1.18,15.1,15.1,0,0,1-1.3-2.14,3,3,0,0,1-.21-1.14,3.28,3.28,0,0,1,.27-1.12c.31-.71.74-1.35,1.07-2a2.94,2.94,0,0,0,.29-2.16c-.21-.7-.65-1.24-.84-1.84a2,2,0,0,1,.24-1.72c.3-.5.68-.92,1-1.36a3,3,0,0,0,.59-1.42,4.6,4.6,0,0,0-.15-1.32,3.88,3.88,0,0,1-.12-1.08,1.55,1.55,0,0,1,.72-1.24A.91.91,0,0,1,496.46,104.66Z" style="fill:#455a64"></path><path d="M548.71,131a3.82,3.82,0,0,1,1.08.69,5,5,0,0,1,1.65,3,5.2,5.2,0,0,1-.17,2.42,6,6,0,0,1-1.46,2.37,6.11,6.11,0,0,1-2.65,1.57,5.64,5.64,0,0,1-3.3-.08,6,6,0,0,1-2.73-1.85,5.43,5.43,0,0,1-1.22-2.82,5.74,5.74,0,0,1,1.68-4.8,5.08,5.08,0,0,1,1.73-1,5.15,5.15,0,0,1,1.47-.32,3.05,3.05,0,0,1,1,.08c.21.06.32.11.31.12a3.76,3.76,0,0,0-1.25-.09,5.15,5.15,0,0,0-1.43.36,5,5,0,0,0-1.64,1,5.59,5.59,0,0,0-1.56,4.62,5.13,5.13,0,0,0,1.17,2.67,5.72,5.72,0,0,0,2.61,1.76,5.27,5.27,0,0,0,3.14.08,5.93,5.93,0,0,0,4-3.74,5.06,5.06,0,0,0,.19-2.32,4.93,4.93,0,0,0-1.53-3A12.11,12.11,0,0,0,548.71,131Z" style="fill:#e0e0e0"></path><path d="M525.92,120.77a1.6,1.6,0,0,0,1.4,1.75,1.52,1.52,0,0,0,1.77-1.3,1.6,1.6,0,0,0-1.39-1.75A1.54,1.54,0,0,0,525.92,120.77Z" style="fill:#263238"></path><path d="M510.54,120a1.6,1.6,0,0,0,1.4,1.75,1.54,1.54,0,0,0,1.78-1.29,1.62,1.62,0,0,0-1.4-1.76A1.54,1.54,0,0,0,510.54,120Z" style="fill:#263238"></path><path d="M510.17,113.35c.15.25,1.41-.53,3-.28s2.56,1.34,2.76,1.14,0-.51-.44-1a3.57,3.57,0,0,0-4.58-.69C510.33,112.87,510.1,113.24,510.17,113.35Z" style="fill:#263238"></path><path d="M525.16,115.34c.2.26,1.6-.73,3.49-.63s3.23,1.19,3.45,1-.09-.56-.67-1.07a4.64,4.64,0,0,0-2.74-1.07,4.49,4.49,0,0,0-2.8.81C525.28,114.79,525.06,115.22,525.16,115.34Z" style="fill:#263238"></path><path d="M525.65,131.16a2.35,2.35,0,0,0-2.29-2,2.44,2.44,0,0,0-2,1.2,3,3,0,0,0-.28,2.34l0,.17a2.66,2.66,0,0,0,3,.86A2.49,2.49,0,0,0,525.65,131.16Z" style="fill:#6f4439"></path><path d="M519.82,132.85c0-.27,1.82,0,3.3-1.44s1.52-3.34,1.77-3.32.3.47.22,1.29a4.49,4.49,0,0,1-1.38,2.78,3.87,3.87,0,0,1-2.75,1.09C520.21,133.23,519.79,133,519.82,132.85Z" style="fill:#263238"></path><path d="M559.06,160.14s4,.81,8,6.49c3.48,5,20.16,27.27,26.61,35.27,8.2,10.18,32.63,33.17,32.63,33.17L622,242.71s-38.2-24.58-44.77-32.24-17.48-19.91-18.15-20.67S559.06,160.14,559.06,160.14Z" style="fill:#ae7461"></path><path d="M649.62,260.91,645,253l-8.77-9.17L625,233.93,621.28,242s-1.15,6,3,9.6a23.31,23.31,0,0,1,6.17,7.42c1.34,2.85,4.89,5.72,6.7,4,1.62-1.53-4.13-6.59-3.55-9.74s3.31-1.55,3.31-1.55a33.33,33.33,0,0,1,4,3.74,24.27,24.27,0,0,0,5.86,5.66A2.55,2.55,0,0,0,649.62,260.91Z" style="fill:#ae7461"></path><path d="M497.22,156.64s-4.78.52-8.75,6.21c-3.48,5-19.71,27.51-26.16,35.51-8.2,10.18-32.63,33.17-32.63,33.17l4.32,7.64s38.2-24.58,44.77-32.23,17.48-19.91,18.15-20.68S497.22,156.64,497.22,156.64Z" style="fill:#ae7461"></path><path d="M405.69,257.86l4.65-7.91,8.78-9.17,11.16-9.9,4.18,8s.71,6-3.47,9.66c-2.66,2.32-4.79,4-6.45,6.68-2,3.2-4.44,6.52-6.42,4.74-1.66-1.49,3.53-6.53,3.55-9.74,0-1.81-2.49-.86-2.49-.86s-4.41,1.86-5.51,3.41c-1.9,2.68-4.66,6.54-5.8,6.45C405.48,259,405.69,257.86,405.69,257.86Z" style="fill:#ae7461"></path><path d="M573.46,251.35c-4.29-10.95-12.24-18.45-14.7-21.69-1.6-2.1-3.64-4.35-3.64-4.35s2.84-27.06,3.71-37.76.23-26.75.23-27.41-21.19-4.8-21.19-4.8-21.4,1.09-22.06,0-19.08,1.38-19.08,1.38l-2.32,24.61c.66,1.52,7.34,31.64,7.34,31.64L505,228.85c-.23-.3-3.08,4.69-7.77,16.17-5.64,13.81-8,38.24-8.81,49.64-2.12,28.76-5.4,125.16-6,154.78-.1,5.18-14.11,2.54-14.82,11.54H601.76S585.69,282.53,573.46,251.35Z" style="fill:#FF725E"></path><polygon points="545.51 157.01 496.16 187.9 490.95 176.68 496.73 156.72 513.62 154.31 536.25 154.36 545.51 157.01" style="fill:#ae7461"></polygon><path d="M516,399.77a4,4,0,0,1,0,.71c0,.47,0,1.15,0,2a53.81,53.81,0,0,1-.65,7.45,58.65,58.65,0,0,1-26,40.33,55.47,55.47,0,0,1-6.52,3.67c-.79.39-1.43.64-1.85.82a3.22,3.22,0,0,1-.67.25,5.56,5.56,0,0,1,.63-.34c.4-.22,1-.49,1.8-.91a61.88,61.88,0,0,0,6.4-3.79A60,60,0,0,0,515,409.9a62.27,62.27,0,0,0,.81-7.39c.06-.88,0-1.57.08-2A3.36,3.36,0,0,1,516,399.77Z" style="fill:#263238"></path><path d="M554.92,444.8a5.65,5.65,0,0,1-.26-.73c-.17-.54-.39-1.25-.66-2.14s-.63-2.08-1-3.42-.79-2.85-1.19-4.54c-.85-3.38-1.74-7.43-2.6-12s-1.61-9.54-2.21-14.82-.95-10.34-1.16-14.94-.22-8.75-.14-12.24c0-1.74.09-3.31.14-4.69s.12-2.57.19-3.55.13-1.67.17-2.23a4.08,4.08,0,0,1,.09-.78,4.23,4.23,0,0,1,0,.78c0,.57,0,1.31-.07,2.24s-.08,2.17-.1,3.55-.08,2.95-.06,4.69c0,3.48,0,7.62.25,12.21s.61,9.63,1.19,14.9,1.38,10.27,2.18,14.79,1.67,8.58,2.48,12c.37,1.7.78,3.22,1.11,4.56s.64,2.49.89,3.43.43,1.63.57,2.17A4.45,4.45,0,0,1,554.92,444.8Z" style="fill:#263238"></path><path d="M562.65,429.62a10.82,10.82,0,0,1,0-1.63c0-1.13.06-2.62.1-4.42.08-3.74.12-8.9,0-14.6s-.44-10.85-.7-14.58c-.13-1.79-.24-3.28-.32-4.41a9.55,9.55,0,0,1-.06-1.63,10.2,10.2,0,0,1,.26,1.61c.14,1,.31,2.54.48,4.4.36,3.73.72,8.89.86,14.6s0,10.88-.13,14.62c-.08,1.87-.18,3.38-.26,4.42A9.39,9.39,0,0,1,562.65,429.62Z" style="fill:#263238"></path><path d="M505,231.11c.65-.17,50.13-3.55,50.13-3.55l1.39-13.51-54.38,3Z" style="fill:#263238"></path><path d="M520.37,252.32c-.14,0,.86-5.23,2.25-11.61s2.61-11.52,2.75-11.49-.86,5.22-2.25,11.6S520.51,252.35,520.37,252.32Z" style="fill:#263238"></path><path d="M536.23,306.05a3.83,3.83,0,0,1-.15-.78c-.09-.56-.2-1.31-.34-2.26-.29-2-.66-4.8-1.07-8.32-.83-7-1.74-16.8-2.3-27.61s-.65-20.61-.55-27.7c0-3.54.12-6.41.21-8.39,0-1,.08-1.71.1-2.28a3.65,3.65,0,0,1,.08-.79,5.32,5.32,0,0,1,0,.79c0,.57,0,1.33,0,2.28,0,2,0,4.89,0,8.39,0,7.09.14,16.88.7,27.68s1.41,20.54,2.15,27.59c.37,3.48.68,6.32.9,8.34l.24,2.27A4.27,4.27,0,0,1,536.23,306.05Z" style="fill:#263238"></path><path d="M516.23,208.73a11.42,11.42,0,0,1-2.83-.09,19.53,19.53,0,0,1-6.59-1.84,12.3,12.3,0,0,1-5.05-4.62,7.93,7.93,0,0,1-.82-1.92,1.92,1.92,0,0,1-.13-.75,23.7,23.7,0,0,0,1.27,2.48,12.85,12.85,0,0,0,5,4.34,22,22,0,0,0,6.4,1.94A25,25,0,0,1,516.23,208.73Z" style="fill:#263238"></path><path d="M555.53,198.69a7.21,7.21,0,0,1-1.54,1.89,18.8,18.8,0,0,1-10.43,5.17,7.41,7.41,0,0,1-2.43.08,23.63,23.63,0,0,0,14.4-7.14Z" style="fill:#263238"></path><path d="M493.22,172.59a14.45,14.45,0,0,1,.54,2.66c.29,1.64.68,3.91,1.16,6.41s1,4.76,1.32,6.38a17.1,17.1,0,0,1,.52,2.66,12.67,12.67,0,0,1-.88-2.57c-.45-1.61-1-3.86-1.47-6.37s-.82-4.8-1-6.46A13,13,0,0,1,493.22,172.59Z" style="fill:#6f4439"></path><polygon points="502.02 223.97 501.1 231.09 559.47 234.19 569.86 245.39 578.73 299.76 584.41 298.6 574.47 241.52 567.78 229.67 502.02 223.97" style="fill:#e0e0e0"></polygon><path d="M580,228.79s-4.53-2.86-8.44-3.08S561.44,225,557.33,227c-1.89.91.24,2.9,2,2.84s4.72-.43,5.74,0l1,.43s-4.57,2.68-6.46,3.42-4.36,2.55-1.7,4.59c0,0,.14,3.71,3.26,3.25,0,0-.08,3.2,4.39,1.84,0,0,.85,1.5,1.87,1.8a11.52,11.52,0,0,0,7-2.18,71,71,0,0,1,6.09-4.33Z" style="fill:#ffbf9d"></path><path d="M566.55,235.43c.09.14-1.66,1.28-4.06,2.11a15.63,15.63,0,0,1-3.16.78,2.38,2.38,0,0,1-1.36-.08,7.63,7.63,0,0,1,1.3-.29,27.48,27.48,0,0,0,3-.91C564.68,236.24,566.48,235.33,566.55,235.43Z" style="fill:#ff9a6c"></path><path d="M568.56,238.7a7.26,7.26,0,0,1-3.37,2.21,7.13,7.13,0,0,1-4,.58c0-.15,1.77-.28,3.8-1.06S568.47,238.58,568.56,238.7Z" style="fill:#ff9a6c"></path><path d="M571.37,241.24a5.26,5.26,0,0,1-2.73,1.87,5.33,5.33,0,0,1-3.3.39c0-.16,1.46-.25,3.11-.88S571.27,241.12,571.37,241.24Z" style="fill:#ff9a6c"></path></g><g id="freepik--character-1--inject-9"><polygon points="246.94 362.06 265.83 461.2 260.96 461.2 236.05 362.06 246.94 362.06" style="fill:#e0e0e0"></polygon><polygon points="181.74 362.06 165.28 461.2 170.15 461.2 192.63 362.06 181.74 362.06" style="fill:#e0e0e0"></polygon><rect x="157.9" y="224.25" width="105.42" height="139.4" rx="9.09" style="fill:#e0e0e0"></rect><path d="M255.49,350.26c0,.14-19.7.26-44,.26s-44-.12-44-.26,19.7-.26,44-.26S255.49,350.11,255.49,350.26Z" style="fill:#263238"></path><path d="M255.49,363.65c0,.14-19.7.26-44,.26s-44-.12-44-.26,19.7-.26,44-.26S255.49,363.5,255.49,363.65Z" style="fill:#263238"></path><path d="M250.64,359.18l13.53,26.16L280.84,403a3,3,0,0,1-.28,4.4h0a3,3,0,0,1-2.69.59c-6-1.63-27.83-8.13-28.67-9.46-1.34-2.11-16.41-26.88-16.41-26.88Z" style="fill:#263238"></path><path d="M280.56,407.35,247.94,396.5l.6,1.1a4.67,4.67,0,0,0,2.35,2.06c2.7,1,10.2,3.72,26.9,8.32a3,3,0,0,0,2.77-.63Z" style="fill:#455a64"></path><path d="M268.49,399.29c.18,0,0-1.68,1.16-3.25s2.72-2,2.67-2.2-.45-.09-1.1.15a4.63,4.63,0,0,0-2.09,1.68,4.68,4.68,0,0,0-.88,2.53C268.24,398.9,268.41,399.3,268.49,399.29Z" style="fill:#fff"></path><path d="M272.22,401.74c.18.05.55-1.25,1.68-2.36s2.39-1.52,2.35-1.71-1.54,0-2.81,1.25S272.05,401.75,272.22,401.74Z" style="fill:#fff"></path><path d="M262.64,396.72c.18.06.74-1.93,2.35-3.82s3.43-2.81,3.34-3-2.15.53-3.84,2.58S262.47,396.72,262.64,396.72Z" style="fill:#fff"></path><path d="M257.86,389.11c.15.12,1.25-1.25,3.08-2.34s3.53-1.44,3.5-1.63-1.89-.11-3.84,1.08S257.71,389,257.86,389.11Z" style="fill:#fff"></path><path d="M205.54,333.09a94,94,0,0,0-3.18,28c.83,14.33,2,80.77,1.53,81.87s21.35,4.41,21.35,4.41,5.51-33.35,6.62-41.9,3.58-10.47,3.3-33.63,5.81-18.31,10.21-26,6.06-14.83,3.58-28.06-9.38-16.54-9.38-16.54l-27.29,1.38Z" style="fill:#263238"></path><path d="M172.38,296.45s28.21-7.75,36.05-7.75,13.51,3.05,19.17,13.5,30.93,71.43,30.93,71.43L239.36,385S215,348.81,209.74,340.09l-5.23-8.71s.88,12.2-4.79,16.55-20.47-.43-26.57-7-11.32-12.64-9.14-23.53S172.38,296.45,172.38,296.45Z" style="fill:#263238"></path><path d="M173.15,302.2l-.34.26c-.23.18-.57.44-1,.82a21.57,21.57,0,0,0-3.29,3.7A26,26,0,0,0,165,314.1a25.58,25.58,0,0,0-1.22,10.58,19.52,19.52,0,0,0,1.8,6,29.36,29.36,0,0,0,3.81,5.77c.76.94,1.58,1.86,2.42,2.79a38.25,38.25,0,0,0,2.67,2.74,28.71,28.71,0,0,0,6.75,4.31,34.16,34.16,0,0,0,8.11,2.67,22.38,22.38,0,0,0,4.42.43,11.64,11.64,0,0,0,4.43-.82,5.9,5.9,0,0,0,1.89-1.24,5.24,5.24,0,0,0,.79-.84,7.07,7.07,0,0,0,.7-.93,14.85,14.85,0,0,0,1.84-4.37,33.36,33.36,0,0,0,.91-9.82l0-.82.42.7c2.51,4.13,5,8.45,7.77,12.75s5.64,8.67,8.59,13.14c5.91,8.92,12.11,18.17,18.5,27.66l-.31-.07,3.16-1.86,16-9.46-.09.28c-7.61-18.31-14.86-35.56-21.59-51.06-1.68-3.88-3.33-7.65-5-11.28s-3.23-7.17-5.06-10.41a37.46,37.46,0,0,0-3-4.55,22.05,22.05,0,0,0-3.62-3.78,16.51,16.51,0,0,0-4.32-2.54,18.44,18.44,0,0,0-4.65-1.12l-1.17-.09-1.15,0a7,7,0,0,0-1.13.07,8,8,0,0,0-1.11.12c-.73.16-1.46.28-2.16.47l-2.08.57c-2.7.85-5.21,1.75-7.53,2.66-4.64,1.81-8.57,3.53-11.76,4.95s-5.64,2.56-7.31,3.34l-1.88.88-.65.29.63-.33,1.87-.92c1.65-.8,4.09-2,7.27-3.42s7.1-3.18,11.74-5c2.32-.93,4.84-1.84,7.54-2.7l2.09-.58c.7-.2,1.44-.32,2.18-.48a8.31,8.31,0,0,1,1.13-.14,9,9,0,0,1,1.16-.06l1.17,0,1.18.09a18.25,18.25,0,0,1,4.74,1.12,16.7,16.7,0,0,1,4.41,2.58A23.07,23.07,0,0,1,224,296.2a39,39,0,0,1,3.06,4.59c1.85,3.26,3.44,6.8,5.1,10.43s3.3,7.4,5,11.27c6.74,15.51,14,32.74,21.63,51.06l.07.18-.17.1-16,9.46-3.15,1.87-.19.11-.12-.18c-6.39-9.49-12.59-18.75-18.49-27.68-3-4.46-5.84-8.84-8.59-13.15s-5.25-8.63-7.75-12.77l.38-.12a33.57,33.57,0,0,1-.93,9.95,15.47,15.47,0,0,1-1.9,4.48,7.69,7.69,0,0,1-.73,1,4.57,4.57,0,0,1-.83.87,6,6,0,0,1-2,1.31,11.93,11.93,0,0,1-4.57.84,23.12,23.12,0,0,1-4.5-.44,34.93,34.93,0,0,1-8.18-2.71,29.13,29.13,0,0,1-6.83-4.38c-1-.88-1.82-1.86-2.68-2.78s-1.66-1.86-2.42-2.81a29.47,29.47,0,0,1-3.83-5.84,19.73,19.73,0,0,1-1.79-6.12A25.58,25.58,0,0,1,164.81,314a26,26,0,0,1,3.61-7.14,21.48,21.48,0,0,1,3.36-3.68A10.23,10.23,0,0,1,173.15,302.2Z" style="fill:#455a64"></path><path d="M201.65,308.32a7.6,7.6,0,0,0-1.89,3,9.3,9.3,0,0,0-.38,3.81,24.92,24.92,0,0,0,1,4.67,66.34,66.34,0,0,0,3,8.2l1.09,2.41a4.08,4.08,0,0,1,.37.91,3.85,3.85,0,0,1-.53-.83c-.31-.54-.74-1.34-1.23-2.36a53.44,53.44,0,0,1-3.12-8.21,23.41,23.41,0,0,1-1-4.76,9.19,9.19,0,0,1,.49-3.95,6.26,6.26,0,0,1,1.42-2.28A2.53,2.53,0,0,1,201.65,308.32Z" style="fill:#455a64"></path><path d="M226.33,420.56,225,449.84l5.64,23.45a3,3,0,0,1-2.41,3.67h0a3,3,0,0,1-2.62-.83c-4.38-4.39-20-20.82-20-22.39-.11-2.48-.83-31.33-.83-31.33Z" style="fill:#263238"></path><path d="M228.26,477l-22.77-25.55,0,1.24a4.73,4.73,0,0,0,1,3c1.81,2.22,6.95,8.26,19.08,20.51a3,3,0,0,0,2.71.84Z" style="fill:#455a64"></path><path d="M221.84,464a8.76,8.76,0,0,1,2.62-2.22c1.73-.84,3.34-.4,3.38-.58s-.34-.3-1-.42a4.72,4.72,0,0,0-2.64.41,4.67,4.67,0,0,0-2,1.76C221.82,463.55,221.76,464,221.84,464Z" style="fill:#fff"></path><path d="M223.84,468c.13.13,1.1-.8,2.62-1.21s2.82-.12,2.87-.3-1.31-.8-3-.32S223.69,467.9,223.84,468Z" style="fill:#fff"></path><path d="M218.06,458.9c.13.14,1.61-1.3,3.92-2.14s4.36-.72,4.37-.91-2.12-.61-4.59.31S217.92,458.81,218.06,458.9Z" style="fill:#fff"></path><path d="M217.71,450c.08.18,1.71-.46,3.82-.49s3.77.51,3.83.33-1.58-1-3.84-1S217.62,449.82,217.71,450Z" style="fill:#fff"></path><path d="M258.18,242.3a2.7,2.7,0,0,0-1.26-2.09c-11.16-7.38-19.57-23.76-20.42-37.62,0-.79-.05-1.59-.08-2.4h0c-.64-19.81-3.56-43.85-6.18-50.26C225.4,138.09,209,137,209,137c-21.76-1.56-25.64,15.16-27.84,30.39-1.37,9.46-6.63,43.29-6.63,43.29l4,1.55a49.25,49.25,0,0,0,29.11,30.45c4,1.51,7.41,2.11,9,.81a54.65,54.65,0,0,0,22.9,13.9,28.47,28.47,0,0,0,10.85,1.45c2.38-.23,4.88-1,6.3-2.93A5.46,5.46,0,0,0,252,247.2C252.84,244.53,258.27,245.31,258.18,242.3Z" style="fill:#263238"></path><path d="M212.08,142.51l-1.36-1.29-11.51,4.63c-2.12.12-5.66,4.2-5.72,6.33l.22,46.79c0,3.25-.82,6.14,1.14,8.73l2.07,2.73c4.71,6.22,14.4,5.71,18.13-1.14a5.34,5.34,0,0,0,.52-1.24c.08-.43.19-.71.22-1.07.44-3.86.9-6.56.9-6.56s-.09-6.61-.09-6.58,9-1,11.45-12.6c1.21-5.75,1-13.66.64-21.45C228.22,149,220.74,142.5,212.08,142.51Z" style="fill:#ffbf9d"></path><path d="M210,168.7a1.49,1.49,0,0,1-1.52,1.44,1.42,1.42,0,0,1-1.47-1.42,1.5,1.5,0,0,1,1.51-1.44A1.43,1.43,0,0,1,210,168.7Z" style="fill:#263238"></path><path d="M224.91,168.7a1.49,1.49,0,0,1-1.51,1.44,1.43,1.43,0,0,1-1.48-1.42,1.5,1.5,0,0,1,1.52-1.44A1.43,1.43,0,0,1,224.91,168.7Z" style="fill:#263238"></path><path d="M227,163.49c-.2.18-1.29-.71-2.9-.79s-2.83.67-3,.47.13-.44.66-.79a4.18,4.18,0,0,1,2.41-.61,4,4,0,0,1,2.29.87C226.92,163,227.07,163.41,227,163.49Z" style="fill:#263238"></path><path d="M210.65,163.65c-.21.17-1.21-.83-2.8-1.07s-2.88.37-3,.15.16-.42.73-.71a4.11,4.11,0,0,1,2.46-.36,3.87,3.87,0,0,1,2.19,1.1C210.64,163.21,210.75,163.58,210.65,163.65Z" style="fill:#263238"></path><path d="M216.27,175.37a10,10,0,0,1,2.64-.34c.41,0,.8-.09.89-.36a2.1,2.1,0,0,0-.22-1.24l-1.05-3.19c-1.47-4.53-2.51-8.26-2.32-8.32s1.52,3.58,3,8.12c.35,1.12.69,2.18,1,3.2a2.42,2.42,0,0,1,.13,1.63,1,1,0,0,1-.71.56,3.07,3.07,0,0,1-.7.07A11,11,0,0,1,216.27,175.37Z" style="fill:#263238"></path><path d="M216.59,193.83a29.69,29.69,0,0,1-15.4-5s3.73,8.29,15.45,7.78Z" style="fill:#ff9a6c"></path><path d="M215.4,179.21a2.92,2.92,0,0,0-2.55-1.21,2.66,2.66,0,0,0-1.88.89,1.68,1.68,0,0,0-.22,1.91,1.93,1.93,0,0,0,2.08.64,6.1,6.1,0,0,0,2.12-1.12,1.73,1.73,0,0,0,.48-.45.53.53,0,0,0,0-.6" style="fill:#ff9a6c"></path><path d="M211.48,176.24c.26,0,.18,1.75,1.61,3.06s3.3,1.22,3.3,1.46-.43.32-1.21.3a4.32,4.32,0,0,1-2.77-1.12,3.77,3.77,0,0,1-1.23-2.56C211.15,176.65,211.36,176.23,211.48,176.24Z" style="fill:#263238"></path><path d="M212.19,157.38c-.22.41-1.78,0-3.68-.1s-3.5.22-3.68-.21c-.09-.2.24-.57.91-.89a6.42,6.42,0,0,1,5.61.23C212,156.79,212.29,157.19,212.19,157.38Z" style="fill:#263238"></path><path d="M226.75,156.58c-.3.35-1.39-.09-2.73-.17s-2.47.12-2.71-.28c-.11-.19.09-.54.6-.87a4,4,0,0,1,4.38.36C226.74,156,226.88,156.4,226.75,156.58Z" style="fill:#263238"></path><path d="M192.25,172.19s8.24,2.57,12.9-17.77c1.6-7,8-12.59,8-12.59l-2.62-.78s-16.25,4.57-16.52,4.78-4.1,8.4-4.1,8.4Z" style="fill:#263238"></path><path d="M195.46,171.05c0-.86-.86-3-1.71-3.14-2.27-.47-6.41-.49-6.74,5.32-.45,8,7.62,6.76,7.65,6.53S195.32,174.05,195.46,171.05Z" style="fill:#ffbf9d"></path><path d="M192.4,176.61s-.14.09-.38.19a1.4,1.4,0,0,1-1,0c-.82-.36-1.45-1.73-1.41-3.16a4.65,4.65,0,0,1,.5-2,1.62,1.62,0,0,1,1.11-1,.7.7,0,0,1,.79.43c.09.23,0,.38.08.4s.17-.13.13-.46a.84.84,0,0,0-.29-.51,1,1,0,0,0-.75-.25,2,2,0,0,0-1.52,1.15,4.7,4.7,0,0,0-.6,2.19c0,1.6.69,3.15,1.82,3.55a1.53,1.53,0,0,0,1.28-.14C192.38,176.81,192.43,176.63,192.4,176.61Z" style="fill:#ff9a6c"></path><path d="M187,202.21a2.08,2.08,0,0,1-.09-.39c0-.28-.11-.65-.2-1.13-.17-1-.41-2.47-.71-4.31l.19,0c0,.29.08.61.13.94v0l.17.36-.2.07a77.12,77.12,0,0,1-2.55-12.79,79.17,79.17,0,0,1-.49-8.28,37.89,37.89,0,0,1,.79-9.07,14.15,14.15,0,0,1,1.45-3.6,19,19,0,0,1,2.19-3.06c1.62-1.87,3.36-3.48,4.95-5.07l8.53-8.39,5.77-5.64,1.59-1.52.41-.39c.1-.08.15-.13.16-.12l-.13.15-.39.41L207,141.89l-5.69,5.72-8.48,8.45c-1.58,1.6-3.32,3.21-4.91,5.06a15.62,15.62,0,0,0-3.56,6.52,38,38,0,0,0-.78,9,78.92,78.92,0,0,0,.45,8.24,81,81,0,0,0,2.43,12.77l-.2.07c0-.12-.11-.25-.16-.35v0h0c0-.33-.08-.66-.11-.94l.19,0c.27,1.85.48,3.3.62,4.33.07.48.12.85.15,1.13A1.69,1.69,0,0,1,187,202.21Z" style="fill:#455a64"></path><path d="M181.68,163.67a1.69,1.69,0,0,1,.14-.33c.13-.25.28-.56.46-.94.41-.81,1-2,1.88-3.34s1.89-3,3.14-4.73,2.73-3.57,4.38-5.41,3.34-3.49,4.92-4.94,3.08-2.65,4.37-3.63,2.36-1.73,3.13-2.21l.87-.56a1.74,1.74,0,0,1,.32-.18s-.09.09-.28.24l-.83.61c-.74.53-1.79,1.31-3.05,2.31s-2.73,2.23-4.31,3.67-3.22,3.1-4.87,4.93-3.1,3.66-4.38,5.36-2.34,3.31-3.2,4.68-1.52,2.48-2,3.27l-.52.9A1.54,1.54,0,0,1,181.68,163.67Z" style="fill:#455a64"></path><polygon points="225.37 202.05 224.59 273.12 239.07 273.37 237.21 204.99 225.37 202.05" style="fill:#455a64"></polygon><path d="M236.48,205s11.68,2.45,14.2,11.91c1.77,6.65,7.42,42.69,7.42,42.69s3.78,4.6,2.3,9.52-4.93,5.32-4.93,5.32l-19.9-5.67V226.28Z" style="fill:#455a64"></path><path d="M245.34,301.86l-9.62-19,7.58-69.54c.35-3.27-1.52-6-5.48-8L217,199.64c-8.2,5.12-16.31,7.17-23.4.32l-.73.24.09-.32c-8.64,1.94-23.83,8.5-23.83,8.5l.1,1.17c-.29,2,.18,6.87,1.06,13.16l3.92,48.52-7.93,31.83Z" style="fill:#455a64"></path><path d="M171,207.7a14.28,14.28,0,0,0-9,6.61c-1.17,2-17.53,30.18-18.26,31.11-.4.51-4.33,3-7.36,7a11.52,11.52,0,0,0,3,16.45l1.22.82a14.78,14.78,0,0,0,13,1.73h0A13.21,13.21,0,0,0,161.2,265l12.22-17.66Z" style="fill:#455a64"></path><path d="M240.21,219.15a1.91,1.91,0,0,1,0,.5l-.06,1.44c0,1.24-.16,3-.31,5.27-.31,4.45-.8,10.6-1.42,17.38s-1.23,12.91-1.71,17.35c-.24,2.15-.44,3.93-.59,5.24-.08.57-.14,1-.19,1.43a1.6,1.6,0,0,1-.11.49,3.15,3.15,0,0,1,0-.5c0-.39.06-.86.09-1.44l.44-5.26c.4-4.52.95-10.62,1.55-17.36s1.16-12.84,1.57-17.36c.2-2.16.36-3.94.48-5.26l.15-1.43A1.68,1.68,0,0,1,240.21,219.15Z" style="fill:#263238"></path><path d="M338.48,216.62a2.28,2.28,0,1,1,4.5.68l-10,60.78h-4.55Z" style="fill:#263238"></path><path d="M342,217.37,301,172.27l-.3.49-2,3.3,40,44.36a2.27,2.27,0,0,0,3.57-.24A2.3,2.3,0,0,0,342,217.37Z" style="fill:#263238"></path><path d="M339,218.54s-.07-.1,0-.29a1.05,1.05,0,0,1,.37-.69,1.21,1.21,0,0,1,1.19-.23,1.29,1.29,0,0,1,.87,1.21,1.31,1.31,0,0,1-.87,1.21,1.26,1.26,0,0,1-1.19-.23,1.07,1.07,0,0,1-.37-.7c0-.19,0-.28,0-.28s.07.42.52.72a.93.93,0,0,0,.85.09.89.89,0,0,0,.55-.81.88.88,0,0,0-.55-.81,1,1,0,0,0-.85.08C339.09,218.12,339.09,218.55,339,218.54Z" style="fill:#455a64"></path><path d="M339.65,214.75a6,6,0,0,1,1.23,1.13,14.77,14.77,0,0,1,1.23,1.36,2.81,2.81,0,0,1,.65,2.24,2.29,2.29,0,0,1-1.67,1.64,2.46,2.46,0,0,1-1.89-.26,2.87,2.87,0,0,1-1.21-1.19c.06-.07.49.45,1.36.9a2.21,2.21,0,0,0,1.62.14,1.89,1.89,0,0,0,1.34-1.33,2.51,2.51,0,0,0-.54-1.89c-.38-.54-.81-1-1.13-1.39A6,6,0,0,1,339.65,214.75Z" style="fill:#455a64"></path><path d="M310.45,283.45h37.38s-4.77-5.95-17.22-5.95C319,277.5,312.12,280.91,310.45,283.45Z" style="fill:#263238"></path><polygon points="301.22 165.12 303.12 162.27 300.77 160.47 298.75 163.33 301.22 165.12" style="fill:#263238"></polygon><path d="M304.43,166.84l-8.18-5.93-7.85,9.44c-13.62,2.2-19.12,10.77-19.12,10.77l24.39,18.67c8.35-9.23,4.39-22.41,4.39-22.41Z" style="fill:#455a64"></path><path d="M298.07,177.38a37.2,37.2,0,0,1-5-3.32,38.25,38.25,0,0,1-4.7-3.71,78.13,78.13,0,0,1,9.67,7Z" style="fill:#263238"></path><path d="M212.64,258.4a24,24,0,0,1,0-6.63,24,24,0,0,1,0,6.63Z" style="fill:#263238"></path><path d="M192.84,216.08c0,6.19-.22,15.45-.38,21.89a7.2,7.2,0,0,0,7.21,7.4h16.41l3.56-7.58v-2.11h26.2s1.83,1.42,1.83,5.09v18.71H183.84a1.69,1.69,0,0,0-1.69,1.69v20.64a1.69,1.69,0,0,0,1.69,1.69h107.8V271.84a1,1,0,0,0-1-1h-2.55V239.34h3.53V218.79h-3.46V213.9l-4.28-1.83H261.51v-5.29h-3.46v4.88l-60.37-.37A4.81,4.81,0,0,0,192.84,216.08Z" style="fill:#FF725E"></path><path d="M182.15,271c0-.12,24.22-.23,54.09-.23s54.08.11,54.08.23-24.21.23-54.08.23S182.15,271.11,182.15,271Z" style="fill:#263238"></path><rect x="211.36" y="245.37" width="2.52" height="6.43" style="fill:#FF725E"></rect><path d="M287.84,230.45c0,.13-21.25.23-47.46.23s-47.46-.1-47.46-.23,21.25-.23,47.46-.23S287.84,230.32,287.84,230.45Z" style="fill:#263238"></path><path d="M288.11,270.86c-.13,0-.23-12.63-.23-28.19s.1-28.2.23-28.2.23,12.62.23,28.2S288.23,270.86,288.11,270.86Z" style="fill:#263238"></path><path d="M291.59,221c0,.13-.79.23-1.76.23s-1.76-.1-1.76-.23.79-.23,1.76-.23S291.59,220.91,291.59,221Z" style="fill:#263238"></path><path d="M291.59,223.22c0,.13-.79.23-1.76.23s-1.76-.1-1.76-.23.79-.23,1.76-.23S291.59,223.09,291.59,223.22Z" style="fill:#263238"></path><path d="M291.59,225.4c0,.13-.79.23-1.76.23s-1.76-.1-1.76-.23.79-.23,1.76-.23S291.59,225.27,291.59,225.4Z" style="fill:#263238"></path><path d="M291.59,227.58c0,.13-.79.23-1.76.23s-1.76-.1-1.76-.23.79-.23,1.76-.23S291.59,227.45,291.59,227.58Z" style="fill:#263238"></path><path d="M291.59,229.76c0,.13-.79.23-1.76.23s-1.76-.1-1.76-.23.79-.23,1.76-.23S291.59,229.63,291.59,229.76Z" style="fill:#263238"></path><path d="M291.59,231.94c0,.13-.79.23-1.76.23s-1.76-.1-1.76-.23.79-.23,1.76-.23S291.59,231.81,291.59,231.94Z" style="fill:#263238"></path><path d="M291.59,234.12c0,.13-.79.23-1.76.23s-1.76-.1-1.76-.23.79-.23,1.76-.23S291.59,234,291.59,234.12Z" style="fill:#263238"></path><path d="M291.59,236.3c0,.13-.79.23-1.76.23s-1.76-.1-1.76-.23.79-.23,1.76-.23S291.59,236.17,291.59,236.3Z" style="fill:#263238"></path><path d="M291.59,238.48c0,.13-.79.23-1.76.23s-1.76-.1-1.76-.23.79-.23,1.76-.23S291.59,238.35,291.59,238.48Z" style="fill:#263238"></path><path d="M216.08,245.37a72.42,72.42,0,0,1-8.2.23,72.54,72.54,0,0,1-8.21-.23,75.46,75.46,0,0,1,8.21-.23A75.35,75.35,0,0,1,216.08,245.37Z" style="fill:#263238"></path><path d="M219.7,230.45a28.68,28.68,0,0,1,0,7.25,28.68,28.68,0,0,1,0-7.25Z" style="fill:#263238"></path><g style="opacity:0.30000000000000004"><path d="M247.67,259.48c2.34.77,5.24-1,6.45-3.17s1.34-4.7,1.29-7.16a54.89,54.89,0,0,0-1-9.9c-.41-2-1-4.09-2.69-5.25-1.43-1-3.3-1.08-5.05-1.1l-25.18-.38c-1,0-1.54-.27-1.75.72a16.73,16.73,0,0,0-.06,2.44h2.22c6.63,0,13.26,0,19.89,0h4.09c1.95,2,1.82,4.51,1.78,6.78-.08,5.52.13,11.5,0,17h0"></path></g><rect x="262.05" y="237.48" width="17.3" height="3.79" style="fill:#e0e0e0"></rect><rect x="211.79" y="253.99" width="2.1" height="0.75" style="fill:#263238"></rect><path d="M278.88,209.07a87.59,87.59,0,0,1-8.84.23,87.59,87.59,0,0,1-8.84-.23,84.19,84.19,0,0,1,8.84-.23A84.19,84.19,0,0,1,278.88,209.07Z" style="fill:#263238"></path><rect x="276.85" y="209.07" width="2.5" height="3" style="fill:#263238"></rect><path d="M213.89,232.34a5.25,5.25,0,0,1,.06.94c0,.72,0,1.63.06,2.72.05,2.32.1,5.62.1,9.37v.23h-2.94l-.23-.23h0v-2c0-.65,0-1.3,0-1.92,0-1.25,0-2.45,0-3.57,0-2.17.05-4,.07-5.54v-.13h.13c.88,0,1.58,0,2,.07a5.33,5.33,0,0,1,.68.06,4.36,4.36,0,0,1-.75.06l-2,.07.13-.13c0,1.49,0,3.37.07,5.54,0,1.12,0,2.32,0,3.57,0,.62,0,1.27,0,1.92v2h0l-.23-.23h2.71l-.23.23c0-3.65.06-6.87.1-9.21,0-1.11.05-2,.07-2.77A8,8,0,0,1,213.89,232.34Z" style="fill:#263238"></path><path d="M222.53,255.33s8-7.39,9.46-9.3,6.35-6.15,9.83-5.49,6.52,4.32,6.13,7.39-.51,4.91-2,7.74c-1,1.86-2.13,3.63-3.54,3.61-1.11,0-1.44-.42-1.11-1.39s1.58-3.4,1.58-3.4-4.31,6.42-7.14,5.83-1.83-1-1.83-1a2.68,2.68,0,0,1-3.23,1.45,2.14,2.14,0,0,1-1.75-2.84s-1.25,1.93-2.92,1.39a1.67,1.67,0,0,1-1.31-2l.08-.91A1.84,1.84,0,0,1,222.53,255.33Z" style="fill:#ffbf9d"></path><path d="M230.72,249.17a17.38,17.38,0,0,1-2.65,3.74,17.82,17.82,0,0,1-3.2,3.27,31.73,31.73,0,0,1,2.85-3.57A34.06,34.06,0,0,1,230.72,249.17Z" style="fill:#ff9a6c"></path><path d="M232.71,251.41s.33.41.16,1.16a6.77,6.77,0,0,1-1.48,2.34c-.64.84-1.18,1.64-1.64,2.18s-.78.84-.83.8.19-.41.57-1,.88-1.4,1.53-2.27a8.79,8.79,0,0,0,1.54-2.15A4.89,4.89,0,0,0,232.71,251.41Z" style="fill:#ff9a6c"></path><path d="M239,250.91c.06,0,.32.61-.09,1.51a22,22,0,0,1-1.9,3.07,19.6,19.6,0,0,1-3.27,3.88,48.26,48.26,0,0,1,2.9-4.15c.78-1.14,1.55-2.17,2-2.94A3.41,3.41,0,0,0,239,250.91Z" style="fill:#ff9a6c"></path><path d="M245.29,250.51a7.74,7.74,0,0,1-2.95,4.65,24.68,24.68,0,0,1,1.51-2.3C244.67,251.59,245.18,250.48,245.29,250.51Z" style="fill:#ff9a6c"></path><path d="M171.34,222.12a1.43,1.43,0,0,1,.09.47l.15,1.37c.13,1.19.27,2.91.42,5,.31,4.26.58,10.16.9,16.66s.76,12.39,1.22,16.63c.22,2.12.42,3.84.57,5,.07.55.12,1,.16,1.37a1.6,1.6,0,0,1,0,.48,1.77,1.77,0,0,1-.13-.46c-.06-.37-.15-.82-.25-1.36-.21-1.17-.46-2.88-.74-5-.55-4.24-1.05-10.13-1.37-16.64s-.55-12.32-.75-16.67c-.1-2.07-.19-3.77-.25-5.05,0-.54,0-1-.06-1.37A1.75,1.75,0,0,1,171.34,222.12Z" style="fill:#263238"></path><path d="M191.63,259.43c-.06,0,0,23.57,0,23.57h87.91a4.8,4.8,0,0,0-4.79-4.8H261.07l-15.72-18.77Z" style="fill:#e0e0e0"></path><path d="M220.17,278.33c0-.14,9.3-.26,20.77-.26s20.77.12,20.77.26-9.3.26-20.77.26S220.17,278.48,220.17,278.33Z" style="fill:#263238"></path><path d="M141.41,251s31.2-13.92,33.78-15.2c1.17-.58,6.61-.18,6.61.68,0,3.32-6.33,11.1-6.33,11.1s-12.07,9.59-15.13,12.1-9.22,8.22-13.45,6.12S139.35,255.14,141.41,251Z" style="fill:#ffbf9d"></path><path d="M178.23,235.93a8.93,8.93,0,0,1,4.78.74c2,1.11,24.38,21.72,24.38,21.72a2.82,2.82,0,0,1-2.55.77s-1.28,2.3-4.73,1a4.14,4.14,0,0,1-4.34.38c-2.55-1.15-9.7-7.54-9.7-7.54l5.61,7.15s-2.55,1-4,0-7.39-6.65-7.39-6.65-4.1-1.92-4.61-3.83a16.34,16.34,0,0,0-2.3-4.34Z" style="fill:#ffbf9d"></path><path d="M200.43,260.11a10.6,10.6,0,0,1-2-1.31,49.73,49.73,0,0,1-4.44-3.74,46.8,46.8,0,0,1-4-4.24,9.69,9.69,0,0,1-1.42-1.94,15.61,15.61,0,0,1,1.66,1.73c1,1.09,2.41,2.57,4,4.12s3.19,2.87,4.33,3.81A15.7,15.7,0,0,1,200.43,260.11Z" style="fill:#ff9a6c"></path><path d="M192.05,247.5a15,15,0,0,1,1.87,1.71c1.13,1.09,2.68,2.58,4.44,4.19s3.39,3,4.57,4.06a14.55,14.55,0,0,1,1.86,1.72,12.88,12.88,0,0,1-2.07-1.47c-1.24-1-2.9-2.35-4.67-4s-3.29-3.15-4.36-4.3A12.21,12.21,0,0,1,192.05,247.5Z" style="fill:#ff9a6c"></path><rect x="75.98" y="300.84" width="8.34" height="160.36" style="fill:#263238"></rect><rect x="339.54" y="297.77" width="8.34" height="163.6" style="fill:#263238"></rect><rect x="65.44" y="283.05" width="296.96" height="19.89" style="fill:#6f4439"></rect><path d="M95.15,279.77a11.53,11.53,0,1,1,23,0" style="fill:#FF725E"></path><rect x="93.11" y="279.77" width="26.53" height="2.59" style="fill:#263238"></rect><path d="M99.58,274a23.91,23.91,0,0,1-2.78-3.8,23.52,23.52,0,0,1-2.39-4.06,24.67,24.67,0,0,1,2.77,3.81A25,25,0,0,1,99.58,274Z" style="fill:#263238"></path><path d="M102.13,271.2a21.55,21.55,0,0,1-1.63-4.15,22.22,22.22,0,0,1-1.2-4.31,21.44,21.44,0,0,1,1.64,4.16A20.94,20.94,0,0,1,102.13,271.2Z" style="fill:#263238"></path><path d="M106.24,271.15a20.76,20.76,0,0,1-.28-4.26,19.55,19.55,0,0,1,.18-4.27,20.76,20.76,0,0,1,.28,4.26A19.55,19.55,0,0,1,106.24,271.15Z" style="fill:#263238"></path><path d="M111.84,262.71A20.59,20.59,0,0,1,111,267a21.42,21.42,0,0,1-1.31,4.12,19.81,19.81,0,0,1,.86-4.24A20.62,20.62,0,0,1,111.84,262.71Z" style="fill:#263238"></path><path d="M116.78,267.52a11.84,11.84,0,0,1-1.93,2.65c-1.17,1.37-2.22,2.42-2.34,2.28a3.25,3.25,0,0,1,.53-.79c.36-.47.88-1.1,1.46-1.79A12.37,12.37,0,0,1,116.78,267.52Z" style="fill:#263238"></path><path d="M95.51,266.06a1.2,1.2,0,1,1-1.2-1.2A1.2,1.2,0,0,1,95.51,266.06Z" style="fill:#e0e0e0"></path><path d="M100.41,262.7a1.2,1.2,0,1,1-1.2-1.2A1.2,1.2,0,0,1,100.41,262.7Z" style="fill:#e0e0e0"></path><path d="M107.51,262.6a1.2,1.2,0,1,1-1.2-1.2A1.2,1.2,0,0,1,107.51,262.6Z" style="fill:#e0e0e0"></path><path d="M113.19,262.38a1.2,1.2,0,1,1-1.2-1.2A1.2,1.2,0,0,1,113.19,262.38Z" style="fill:#e0e0e0"></path><path d="M118.18,267.23A1.2,1.2,0,1,1,117,266,1.2,1.2,0,0,1,118.18,267.23Z" style="fill:#e0e0e0"></path></g></svg>
