<svg xmlns="http://www.w3.org/2000/svg" viewBox="0 0 500 500"><g id="freepik--background-complete--inject-2"><g><path d="M465.87,391.39h-108.57c-1.53-5.1,2.42-11.21,6.72-12.07,5.29-1.06,10.57-10.36,10.85-16.28,.27-5.92,9.77-24.13,24.57-12.89,14.8,11.25,10.3,1.66,21.01-1.5,10.71-3.16,17.46,5.93,12.76,12.75,0,0,10.76-2.7,15.19,7.35,4.43,10.04,0,16.28,0,16.28,0,0,13.59-.39,17.47,6.36Z" style="fill:#e6e6e6;"></path><path d="M55.02,391.71c-.33-3.9,.2-8.95,4.75-10.45,7.72-2.55,12.28-8.51,12.03-15.27-.25-6.75,7.86-13.33,13.94-7,6.08,6.33,5.28-4.87,13.4-7.6,8.12-2.73,15.01,3.89,12.77,9.92-2.24,6.03,5.78,9.81,15.37,4.68,9.59-5.13,20.15,4.2,18.12,11.5s-.37,8.18,5.7,5.69c4.9-1.98,12.92,2.16,13.82,8.53H55.02Z" style="fill:#ebebeb;"></path><path d="M414.87,391.57h-140.1c-1.98-6.58,3.12-14.46,8.68-15.58,6.82-1.36,13.64-13.37,14-21.01,.35-7.64,12.6-31.14,31.7-16.63,19.1,14.51,13.29,2.14,27.11-1.94,13.82-4.08,22.54,7.65,16.47,16.45,0,0,13.89-3.48,19.6,9.48,5.72,12.96,0,21.01,0,21.01,0,0,17.54-.5,22.55,8.21Z" style="fill:#ebebeb;"></path><g><path d="M249.08,132.14c1.31,.69,3.25,.92,3.58,2.37,.33,1.45-1.04,2.32-1.92,3.32-2.12,2.74-1.61,6.68,1.13,8.8,.25,.19,.51,.36,.78,.52,.76,.35,1.73,.66,1.97,1.43,.11,.58,.04,1.18-.19,1.73-.31,1.09-.41,2.24-.29,3.37,0,.39,.13,.77,.4,1.05,.29,.21,.64,.31,1,.29,4.54,.19,6.74-1.42,9.5,2.54,.24,.4,.57,.74,.95,1,.39,.2,.81,.3,1.24,.31,3.13,.26,5.18-1.73,8.02-2.06,1.19-.15,2.09-.05,2.87,.18-.28,1.73,.34,3.55,1.82,4.69,.2,.15,.41,.29,.63,.42,.6,.29,1.33,.52,1.56,1.14,.09,.47,.04,.95-.16,1.38-.24,.87-.31,1.77-.22,2.66,0,.31,.11,.6,.31,.83,.24,.15,.51,.23,.79,.22,3.58,.16,5.3-1.11,7.48,2,.19,.31,.44,.58,.74,.79,.31,.15,.64,.23,.98,.24,2.45,.21,4.06-1.33,6.31-1.62,3.13-.4,3.78,1.21,6.53,2.51,4.37,2,6.46,.83,7.27-2.11,.22-.84,.34-1.69,.38-2.56,.33-5.3,5.37-4.46,9.68-5.18,3.37-.55-5.53-9.05,1.24-11.78,1.32-.37,2.47-1.17,3.27-2.28,.72-1.72,.1-3.7-1.47-4.7-1.56-.94-3.37-1.39-5.18-1.3-.43-.52-.55-1.15-.48-1.8,.07,.1,.15,.19,.22,.3,.24,.4,.56,.74,.95,1,.39,.2,.81,.31,1.24,.33,3.13,.24,5.18-1.73,8.02-2.06,3.96-.52,4.8,1.54,8.29,3.16,2.58,1.24,4.53,1.52,5.99,1.08,.4,.84,.97,1.6,1.76,2.21,.27,.21,.55,.39,.85,.56,.74,.35,1.73,.66,1.95,1.43,.12,.58,.06,1.18-.17,1.73-.31,1.09-.42,2.24-.31,3.37-.06,.68,.44,1.29,1.12,1.36,.1,0,.2,0,.29,0,4.54,.19,6.72-1.42,9.5,2.54,.23,.4,.56,.75,.95,1,.38,.2,.81,.31,1.24,.31,3.13,.26,5.18-1.73,8.02-2.06,3.96-.5,4.8,1.54,8.28,3.18,5.46,2.61,8.12,1.02,9.14-2.71,.29-1.06,.46-2.15,.5-3.25,.31-5.21,4.3-5.74,8.58-6.14,.18,1.63,.98,3.19,2.37,4.27,.26,.2,.53,.38,.81,.54,.74,.36,1.73,.66,1.95,1.43,.12,.58,.06,1.18-.17,1.73-.32,1.12-.43,2.29-.31,3.46,0,.39,.14,.77,.41,1.05,.29,.21,.64,.31,1,.29,4.54,.19,6.72-1.42,9.5,2.54,.23,.4,.56,.75,.95,1,.38,.2,.81,.31,1.24,.31,3.13,.26,5.18-1.73,8.02-2.06,3.96-.5,4.8,1.54,8.28,3.18,5.48,2.61,8.14,1.02,9.18-2.71,.27-1.06,.44-2.15,.48-3.25,.4-6.72,6.83-5.65,12.29-6.57,4.27-.71-7.03-11.51,1.57-14.98,1.68-.47,3.15-1.49,4.16-2.9,.89-2.18,.1-4.69-1.88-5.96-1.96-1.22-4.23-1.82-6.53-1.73-1.4-1.73-.26-4.27,1.09-6.01,1.35-1.75,3.02-3.73,2.51-5.88-.78-3.25-5.3-3.37-8.64-2.75-1.21-1.95-1.17-4.41-1.73-6.64-.55-2.23-2.37-4.56-4.65-4.29-2.28,.28-3.46,2.7-5.6,3.2-.17,.04-.33,.04-.5,.05-1.46-3.51-3.02-7.87,1.88-9.85,1.67-.47,3.14-1.49,4.15-2.9,.91-2.18,.12-4.69-1.87-5.96-1.97-1.19-4.24-1.76-6.53-1.64-1.42-1.73-.28-4.27,1.09-6.01,1.36-1.75,3.02-3.73,2.51-5.87-.78-3.25-5.3-3.37-8.64-2.75-1.21-1.95-1.19-4.41-1.73-6.64-.54-2.23-2.35-4.56-4.65-4.29-2.3,.28-3.46,2.7-5.58,3.2-2.45,.57-4.58-1.61-6.51-3.23-.34-.28-.73-.54-1.13-.77,.82-1.23,1.4-2.55,1.08-3.93-.78-3.25-5.32-3.37-8.64-2.73-1.21-1.97-1.17-4.42-1.73-6.65-.55-2.23-2.37-4.56-4.65-4.29-2.28,.28-3.46,2.7-5.6,3.2-2.45,.59-4.58-1.59-6.5-3.21-1.92-1.62-5.3-2.64-6.62-.5-.79,1.28-.33,3.08-1.14,4.34-1.43,2.19-4.84,.83-6.91-.73s-5.46-2.95-6.91-.79c-.37,.71-.64,1.46-.81,2.25-.61,1.74-2,2.96-3.54,4.06-.11,.02-.22,.04-.33,.06-1.21-1.97-1.17-4.42-1.73-6.65-.55-2.23-2.37-4.56-4.65-4.29-2.28,.28-3.46,2.7-5.6,3.2-2.45,.57-4.58-1.59-6.5-3.23-1.92-1.64-5.3-2.64-6.62-.5-.79,1.3-.33,3.08-1.14,4.34-1.43,2.19-4.84,.85-6.91-.71-2.07-1.56-5.46-2.97-6.91-.81-.37,.71-.64,1.47-.81,2.25-1,2.89-4.11,4.32-6.53,6.15-2.42,1.83-4.34,5.51-2.28,7.76,1,1.12,2.78,1.57,3.28,2.99,.62,1.73-1.17,3.33-2.61,4.56-2.38,2.02-2.82,8.07,.33,9.73,.58,.3,1.28,.52,1.91,.79,0,0-.02,0-.02,0-2.45,.57-4.58-1.61-6.5-3.23-1.92-1.62-5.3-2.64-6.64-.5-.79,1.28-.31,3.08-1.14,4.34-1.43,2.19-4.82,.83-6.91-.73-2.09-1.56-5.46-2.95-6.91-.79-.38,.71-.65,1.46-.83,2.25-.98,2.89-4.1,4.3-6.51,6.15-2.42,1.85-4.34,5.51-2.3,7.76,1.02,1.11,2.8,1.56,3.3,2.97,.62,1.73-1.19,3.35-2.61,4.58-.77,.65-1.33,1.73-1.64,2.94-.88-.35-1.74-.85-2.45-1.37-2.09-1.54-5.46-2.97-6.91-.81-.37,.71-.64,1.46-.81,2.25-1,2.89-4.11,4.3-6.53,6.15s-4.34,5.51-2.28,7.76c1,1.11,2.78,1.57,3.28,2.97,.62,1.73-1.17,3.35-2.61,4.58-2.37,2.02-2.8,8.07,.35,9.73Z" style="fill:#e6e6e6;"></path><path d="M407.21,136.21s-10.59,15-14.25,19.75c-3.66,4.76-21.95,34.38-24.43,53.97-.26,2.08-.53,3.89-.79,5.45,7.87,51.92,6.64,146.9,6.35,163.15h-24.91c-.23-18.33-2.34-185.94-3.13-191.05-.82-5.42-11.29-26.04-27.33-34.51-16.04-8.47-29.99-36.51-29.99-36.51h5.13s9.51,17.17,23.04,26.69c1.94,1.34,3.97,2.55,6.08,3.61-.04-10.34,1.79-20.6,5.39-30.3l2.77,2.55c-3.74,15.32-3.22,25.12-2.11,30.75,5.11,2.39,9.82,5.55,13.98,9.37,14.04-18.25,21.93-60,21.93-60l3.6,1.97c-1.02,8.62-2.57,17.17-4.64,25.61-2.63,10.8-10.37,31.14-13.96,40.31,4.31,6.19,7.86,12.87,10.59,19.9,.38-.59,.84-1.13,1.35-1.61,9.14-8.27,26.33-47.31,26.33-47.31,4.16-9.08-2.19-32.91-2.19-32.91h4.84l2.14,20.83,12.06-13.16,2.19,1.82-12.79,16.46-6.58,20.85,17.17-19.03,2.16,3.34Z" style="fill:#ebebeb;"></path></g><g><path d="M66.02,164.73c.84,1.18,2.06,2.04,3.45,2.42,7.17,2.89-2.25,11.87,1.31,12.47,4.61,.75,9.9-.15,10.24,5.48,.04,.91,.17,1.82,.39,2.7,.86,3.11,3.08,4.43,7.62,2.16,2.91-1.37,3.6-3.06,6.9-2.65,2.36,.3,4.07,1.93,6.68,1.71,.36,0,.72-.09,1.03-.26,.32-.21,.59-.49,.79-.83,2.29-3.3,4.16-1.95,7.92-2.12,.3,0,.59-.08,.84-.24,.22-.24,.34-.56,.34-.88,.08-.94,0-1.89-.26-2.8-.2-.47-.25-.98-.15-1.48,.24-.66,1.01-.9,1.63-1.2,.24-.13,.47-.28,.69-.45,1.14-.89,1.81-2.17,1.96-3.5,3.62,.33,6.91,.74,7.18,5.14,.04,.91,.18,1.82,.41,2.7,.86,3.11,3.08,4.48,7.62,2.25,2.91-1.37,3.6-3.06,6.9-2.64,2.38,.3,4.09,1.93,6.68,1.71,.37,0,.73-.09,1.05-.26,.32-.21,.59-.49,.79-.83,2.29-3.3,4.16-1.95,7.92-2.12,.29,0,.58-.08,.83-.24,.22-.24,.35-.55,.34-.88,.09-.94,0-1.89-.24-2.8-.2-.46-.25-.97-.15-1.46,.23-.68,.99-.92,1.63-1.22,.24-.13,.47-.28,.69-.45,.64-.5,1.12-1.13,1.46-1.82,1.21,.35,2.84,.09,5-.99,2.91-1.37,3.6-3.08,6.9-2.65,2.38,.3,4.07,1.91,6.68,1.71,.36-.01,.72-.1,1.05-.26,.32-.22,.59-.51,.79-.84,.04-.06,.08-.11,.13-.17,.07,.56-.02,1.1-.39,1.56-1.5-.07-2.99,.3-4.28,1.07-1.3,.84-1.82,2.49-1.24,3.92,.66,.92,1.62,1.58,2.72,1.88,5.65,2.33-1.76,9.36,1.03,9.83,3.58,.56,7.8-.09,8.07,4.31,.04,.72,.15,1.42,.32,2.12,.68,2.46,2.42,3.51,6.08,1.67,2.29-1.07,2.83-2.4,5.44-2.08,1.86,.24,3.21,1.52,5.25,1.35,.29,0,.57-.08,.83-.21,.25-.18,.46-.4,.62-.66,1.82-2.59,3.25-1.54,6.23-1.67,.08,.01,.16,.02,.24,0,.43-.06,.73-.46,.67-.89,.07-.74,0-1.48-.19-2.19-.17-.36-.21-.77-.13-1.16,.19-.53,.81-.71,1.29-.96,.19-.1,.37-.22,.54-.36,1.2-.94,1.72-2.41,1.52-3.82,.65-.19,1.39-.26,2.37-.14,2.38,.3,4.07,1.93,6.68,1.71,.36,0,.71-.09,1.03-.26,.33-.21,.6-.49,.79-.83,2.31-3.3,4.18-1.95,7.94-2.12,.29,0,.58-.08,.83-.24,.22-.24,.34-.56,.34-.88,.09-.94,0-1.89-.24-2.8-.21-.46-.26-.97-.15-1.46,.23-.68,.99-.92,1.63-1.22,.23-.13,.45-.27,.66-.43,2.28-1.76,2.7-5.04,.94-7.32-.73-.88-1.86-1.54-1.59-2.76,.26-1.22,1.88-1.41,2.98-1.97,2.63-1.39,2.16-6.43,.28-8.12-1.2-.98-2.7-2.29-2.18-3.75,.41-1.18,1.89-1.56,2.74-2.48,1.74-1.88,.13-4.93-1.88-6.47-2.01-1.54-4.6-2.72-5.42-5.12-.14-.66-.37-1.29-.69-1.88-1.22-1.8-4.03-.62-5.78,.68-.59,.44-1.3,.86-2.03,1.15-.25-1.04-.73-1.98-1.39-2.54-1.18-.96-2.61-2.57-2.18-3.75,.43-1.18,1.91-1.56,2.74-2.48,1.73-1.88,.15-4.93-1.88-6.47-2.03-1.54-4.61-2.72-5.44-5.12-.15-.65-.38-1.28-.68-1.88-1.24-1.8-4.01-.62-5.78,.68-1.76,1.29-4.6,2.48-5.78,.6-.69-1.05-.3-2.55-.96-3.62-1.11-1.78-3.85-.92-5.52,.43-1.65,1.33-3.33,3.1-5.34,2.69,.5-.2,1.04-.37,1.5-.61,2.63-1.39,2.25-6.43,.28-8.1-1.2-.96-2.7-2.29-2.18-3.75,.41-1.18,1.89-1.56,2.74-2.48,1.74-1.88,.13-4.93-1.88-6.47-2.01-1.54-4.6-2.72-5.42-5.12-.14-.65-.37-1.28-.68-1.88-1.24-1.8-4.05-.62-5.8,.68s-4.58,2.48-5.76,.6c-.69-1.05-.3-2.55-.96-3.62-1.11-1.78-3.85-.96-5.52,.41s-3.66,3.1-5.42,2.68c-1.76-.41-2.66-2.46-4.65-2.65-1.99-.19-3.38,1.69-3.86,3.56-.22,1.9-.71,3.76-1.47,5.51-1.36-.96-2.62-2-3.16-3.52-.13-.65-.36-1.29-.68-1.88-1.24-1.8-4.01-.64-5.78,.66-1.76,1.29-4.58,2.49-5.78,.62-.68-1.07-.28-2.55-.96-3.62-1.09-1.78-3.83-.94-5.5,.41-1.67,1.35-3.38,3.17-5.42,2.68-1.76-.41-2.74-2.49-4.65-2.66-1.91-.17-3.4,1.71-3.88,3.58-.21,1.94-.71,3.84-1.48,5.63-2.72-.53-6.51-.43-7.15,2.27-.28,1.14,.19,2.23,.86,3.25-.32,.19-.64,.39-.91,.61-1.67,1.35-3.66,3.1-5.42,2.68s-2.66-2.49-4.65-2.66c-1.99-.17-3.38,1.71-3.86,3.58-.23,1.91-.73,3.77-1.48,5.53-2.74-.53-6.51-.43-7.17,2.27-.43,1.78,.98,3.45,2.1,4.9,1.13,1.44,2.08,3.58,.9,5.01-1.91-.1-3.8,.38-5.44,1.37-1.65,1.06-2.31,3.16-1.56,4.97,.84,1.18,2.06,2.03,3.45,2.42,4.12,1.66,2.78,5.32,1.56,8.25-.14,0-.28,0-.41-.04-1.76-.41-2.74-2.49-4.65-2.66-1.91-.17-3.4,1.71-3.88,3.58-.22,1.91-.72,3.77-1.48,5.53-2.72-.53-6.51-.43-7.15,2.27-.43,1.8,.94,3.45,2.08,4.9,1.14,1.44,2.08,3.6,.92,5.01-1.91-.09-3.8,.39-5.44,1.37-1.65,1.06-2.3,3.16-1.56,4.97Zm48.93,5.08c-.18-.33-.27-.69-.17-1.1,.1-.45,.43-.75,.84-.98-.16,.7-.4,1.4-.67,2.08Z" style="fill:#e6e6e6;"></path><path d="M104.85,171.46s9.47,13.39,12.74,17.63c3.26,4.24,19.58,30.67,21.8,48.17,.24,1.88,.49,3.47,.71,4.88-7.02,46.33-5.93,131.11-5.63,145.63h22.27c.21-16.38,2.1-165.98,2.79-170.54,.73-4.84,10.04-23.24,24.39-30.8,14.35-7.56,26.71-32.62,26.71-32.62h-4.58s-8.5,15.33-20.63,23.82c-1.74,1.19-3.55,2.27-5.42,3.23,.05-9.23-1.56-18.39-4.75-27.05l-2.48,2.27c3.34,13.68,2.89,22.51,1.88,27.44-4.57,2.14-8.78,4.96-12.49,8.37-12.53-16.3-19.57-53.56-19.57-53.56l-3.23,1.76c.95,7.71,2.36,15.35,4.24,22.89,2.34,9.64,9.27,27.8,12.47,36.04-3.81,5.53-6.96,11.5-9.38,17.76-.34-.53-.75-1.02-1.22-1.44-8.16-7.39-23.51-42.25-23.51-42.25-3.75-8.1,1.97-29.38,1.97-29.38h-4.3l-1.88,18.61-10.77-11.74-1.97,1.63,11.24,14.73,5.89,18.61-15.34-16.98-1.97,2.89Z" style="fill:#ebebeb;"></path></g><g id="freepik--freepik--Bench--inject-443--inject-2"><polygon points="120.16 442.64 113.49 442.64 127.13 365.64 133.8 365.64 120.16 442.64" style="fill:#e0e0e0;"></polygon><polygon points="327.51 442.64 320.84 442.64 334.48 365.64 341.15 365.64 327.51 442.64" style="fill:#e0e0e0;"></polygon><rect x="123.64" y="404.14" width="261.92" height="6.75" style="fill:#e0e0e0;"></rect><polygon points="181.7 442.64 188.37 442.64 174.73 365.64 168.05 365.64 181.7 442.64" style="fill:#e0e0e0;"></polygon><polygon points="389.05 442.64 395.72 442.64 382.08 365.64 375.41 365.64 389.05 442.64" style="fill:#e0e0e0;"></polygon><polygon points="328.53 362.64 321.89 362.64 310.79 300.86 317.42 300.86 328.53 362.64" style="fill:#e0e0e0;"></polygon><polygon points="136.01 362.64 129.37 362.64 118.25 300.86 124.89 300.86 136.01 362.64" style="fill:#e0e0e0;"></polygon><polygon points="232.27 362.64 225.64 362.64 214.52 300.86 221.16 300.86 232.27 362.64" style="fill:#e0e0e0;"></polygon><polygon points="340.01 305.08 104.95 305.08 102.87 293.51 337.92 293.51 340.01 305.08" style="fill:#e0e0e0;"></polygon><polygon points="343.77 326 108.71 326 106.63 314.43 341.69 314.43 343.77 326" style="fill:#e0e0e0;"></polygon><polygon points="347.54 346.91 112.48 346.91 110.39 335.35 345.45 335.35 347.54 346.91" style="fill:#e0e0e0;"></polygon><rect x="114.21" y="360.83" width="282.91" height="7.99" style="fill:#e0e0e0;"></rect></g></g><g><g><g><path d="M443.92,330.2h-180.75c-3.23,0-5.86-2.63-5.86-5.86V61.06c0-3.23,2.63-5.86,5.86-5.86h180.75c3.23,0,5.86,2.63,5.86,5.86V324.34c0,3.23-2.63,5.86-5.86,5.86ZM263.17,55.45c-3.09,0-5.61,2.52-5.61,5.61V324.34c0,3.09,2.52,5.61,5.61,5.61h180.75c3.09,0,5.61-2.52,5.61-5.61V61.06c0-3.09-2.52-5.61-5.61-5.61h-180.75Z" style="fill:#e0e0e0;"></path><path d="M235.49,330.2H54.75c-3.23,0-5.86-2.63-5.86-5.86V61.06c0-3.23,2.63-5.86,5.86-5.86H235.49c3.23,0,5.86,2.63,5.86,5.86V324.34c0,3.23-2.63,5.86-5.86,5.86ZM54.75,55.45c-3.09,0-5.61,2.52-5.61,5.61V324.34c0,3.09,2.52,5.61,5.61,5.61H235.49c3.09,0,5.61-2.52,5.61-5.61V61.06c0-3.09-2.52-5.61-5.61-5.61H54.75Z" style="fill:#e0e0e0;"></path></g><rect x="0" y="391.27" width="500" height=".25" style="fill:#e0e0e0;"></rect></g><rect x="51.67" y="405.53" width="16.06" height=".25" style="fill:#e0e0e0;"></rect><rect x="170.35" y="402.82" width="53.53" height=".25" style="fill:#e0e0e0;"></rect><rect x="68.73" y="414.82" width="36.25" height=".25" style="fill:#e0e0e0;"></rect><rect x="378.35" y="402.69" width="43.19" height=".25" style="fill:#e0e0e0;"></rect><rect x="430.45" y="402.69" width="6.33" height=".25" style="fill:#e0e0e0;"></rect><rect x="316.21" y="408.92" width="53.89" height=".25" style="fill:#e0e0e0;"></rect></g></g><g id="freepik--Shadow--inject-2"><path d="M456.85,445.11c0,3.39-93.52,6.13-208.87,6.13s-208.87-2.75-208.87-6.13,93.52-6.13,208.87-6.13,208.87,2.75,208.87,6.13Z" style="fill:#f5f5f5;"></path></g><g id="freepik--Plant--inject-2"><g><path d="M375.24,418.92c-.59-1-1.92-2.22-2.84-2.92-.93-.7-2.2-1.05-3.27-.61-1.37,.56-2,2.24-1.81,3.71,.19,1.47,.89,3.33,1.73,4.55,3.57,5.22,6.87,10,12.37,13.89,0-6.49-2.88-13.09-6.17-18.62Z" style="fill:#7E57C2;"></path><path d="M393.4,419.82c-1.23-.67-3.52,.28-4.65,1.12-2.23,1.67-3.59,3.42-4.94,5.85-1.72,3.09-1.92,7.42-2.14,10.17,4.36-3.54,8.8-7.17,11.78-11.92,.52-.83,1-1.72,1.1-2.7,.09-.98-.29-2.05-1.15-2.53Z" style="fill:#7E57C2;"></path><path d="M382.07,440.29c-.12,0-.22-.08-.24-.2-1.03-4.77-2.86-9.3-5.44-13.45-.07-.12-.04-.27,.08-.34s.27-.04,.34,.08c2.6,4.2,4.46,8.78,5.5,13.61,.03,.13-.06,.27-.19,.3-.02,0-.04,0-.05,0Z" style="fill:#263238;"></path><path d="M381.49,437.63s-.06,0-.08-.01c-.13-.05-.2-.19-.15-.32,1.17-3.22,2.88-6.19,5.07-8.83,.09-.11,.25-.12,.35-.03,.11,.09,.12,.25,.03,.35-2.16,2.59-3.84,5.51-4.99,8.68-.04,.1-.13,.17-.24,.17Z" style="fill:#263238;"></path></g></g><g id="freepik--Hearts--inject-2"><g><g id="freepik--freepik--Hearts--inject-2--inject-2"><path d="M161.39,133.54c-3.13-.8-6.32,1.09-7.12,4.22h0c-3.1-.9-6.35,.87-7.26,3.97-.91,3.1,.87,6.35,3.97,7.26,.13,.04,.26,.07,.4,.1l11.33,2.89,2.9-11.33c.8-3.13-1.09-6.31-4.22-7.11Z" style="fill:#7E57C2;"></path><path d="M171.88,112.94c2.23-1.12,4.94-.22,6.06,2,2.3-.98,4.95,.1,5.93,2.4,.9,2.11,.07,4.56-1.93,5.69l-8.09,4-4-8.09c-1.07-2.22-.17-4.89,2.03-6Z" style="fill:#7E57C2;"></path></g><g id="freepik--freepik--Hearts--inject-2-2--inject-2" style="opacity:.5;"><path d="M161.39,133.54c-3.13-.8-6.32,1.09-7.12,4.22h0c-3.1-.9-6.35,.87-7.26,3.97-.91,3.1,.87,6.35,3.97,7.26,.13,.04,.26,.07,.4,.1l11.33,2.89,2.9-11.33c.8-3.13-1.09-6.31-4.22-7.11Z" style="fill:#fff;"></path><path d="M171.88,112.94c2.23-1.12,4.94-.22,6.06,2,2.3-.98,4.95,.1,5.93,2.4,.9,2.11,.07,4.56-1.93,5.69l-8.09,4-4-8.09c-1.07-2.22-.17-4.89,2.03-6Z" style="fill:#fff;"></path></g></g></g><g id="freepik--Speech_Bubble--inject-2"><g><g><path d="M341.89,160.2c-6.27-9.06-4.01-21.49,5.05-27.76,9.06-6.27,21.49-4.01,27.76,5.05,4.84,6.99,4.58,15.99,.04,22.61l1.44,5.82-6.27-.87c-.09,.06-.17,.14-.26,.2-9.06,6.27-21.49,4.01-27.76-5.05Z" style="fill:#7E57C2;"></path><path d="M335.96,150.54c-.12,0-.23-.09-.25-.21-.98-6.47,1.56-13.44,6.48-17.75,.1-.09,.26-.08,.35,.02,.09,.1,.08,.26-.02,.35-4.8,4.2-7.28,10.99-6.32,17.3,.02,.14-.07,.26-.21,.28-.01,0-.03,0-.04,0Z" style="fill:#7E57C2;"></path><path d="M337.34,156.3c-.09,0-.18-.05-.22-.13-.48-.9-.77-1.91-.85-2.93-.01-.14,.09-.26,.23-.27,.15-.02,.26,.09,.27,.23,.07,.95,.35,1.89,.79,2.73,.06,.12,.02,.27-.1,.34-.04,.02-.08,.03-.12,.03Z" style="fill:#7E57C2;"></path></g><g style="opacity:.7;"><path d="M341.89,160.2c-6.27-9.06-4.01-21.49,5.05-27.76,9.06-6.27,21.49-4.01,27.76,5.05,4.84,6.99,4.58,15.99,.04,22.61l1.44,5.82-6.27-.87c-.09,.06-.17,.14-.26,.2-9.06,6.27-21.49,4.01-27.76-5.05Z" style="fill:#fff;"></path></g><path d="M358.63,160.33c-.84,0-1.54-.27-2.11-.82-.56-.54-.85-1.21-.85-1.99s.28-1.43,.83-1.95c.55-.52,1.26-.78,2.12-.78s1.57,.26,2.12,.78c.55,.52,.83,1.18,.83,1.95s-.28,1.44-.85,1.99c-.56,.54-1.27,.82-2.11,.82Zm1.91-7.73h-3.82l-.95-14.07h5.73l-.95,14.07Z" style="fill:#7E57C2;"></path></g></g><g id="freepik--Streetlight--inject-2"><g><polygon points="46.08 117.53 50.74 148.63 73.74 148.63 79.02 117.7 46.08 117.53" style="fill:#7E57C2;"></polygon><g><path d="M42.78,118.14v-3.05s9.03-2.32,11.96-6.35,5.49-9.15,5.49-9.15h3.17v18.55h-20.62Z" style="fill:#263238;"></path><path d="M82.32,118.14v-3.05s-9.03-2.32-11.96-6.35-5.49-9.15-5.49-9.15h-3.17v18.55h20.62Z" style="fill:#263238;"></path></g><rect x="58.09" y="97.37" width="8.45" height="3.09" style="fill:#263238;"></rect><rect x="61.18" y="89.92" width="2.23" height="9" style="fill:#263238;"></rect><rect x="54.12" y="190.11" width="16.86" height="2.66" style="fill:#263238;"></rect><rect x="53.1" y="196.64" width="18.91" height="2.66" style="fill:#263238;"></rect><rect x="54.95" y="198.19" width="15.54" height="4.57" style="fill:#263238;"></rect><rect x="54.09" y="340.76" width="17.28" height="2.28" style="fill:#263238;"></rect><rect x="53.72" y="346.91" width="18.01" height="2.68" style="fill:#263238;"></rect><polygon points="51.15 430.17 56.04 349.59 69.01 349.59 74.31 430.34 51.15 430.17" style="fill:#263238;"></polygon><rect x="47.33" y="429.87" width="29.85" height="3.32" style="fill:#263238;"></rect><rect x="41.84" y="433.19" width="40.55" height="8.62" style="fill:#263238;"></rect><polygon points="46.02 117.53 50.14 148.82 52.85 148.82 49.94 117.53 46.02 117.53" style="fill:#263238;"></polygon><polygon points="79.02 117.43 75.1 148.72 72.39 148.72 75.1 117.43 79.02 117.43" style="fill:#263238;"></polygon><polygon points="63.59 148.63 61.18 148.63 60.57 115.8 64.8 115.8 63.59 148.63" style="fill:#263238;"></polygon><rect x="49.44" y="146.24" width="25.66" height="6.69" style="fill:#263238;"></rect><rect x="47.41" y="152.93" width="30.28" height="2.55" style="fill:#263238;"></rect><polygon points="51.95 154.21 55.86 158.89 55.86 349.59 68.84 349.59 68.84 159.1 72.01 154.21 51.95 154.21" style="fill:#263238;"></polygon><rect x="54.12" y="163.15" width="16.86" height="2.66" style="fill:#263238;"></rect><polygon points="55.86 158.89 68.84 158.89 71.18 155.48 52.85 155.48 55.86 158.89" style="opacity:.3;"></polygon><rect x="55.86" y="165.8" width="12.97" height="1.73" style="opacity:.3;"></rect><rect x="49.44" y="151.2" width="25.66" height="1.73" style="opacity:.3;"></rect><polygon points="78.72 121.7 46.39 121.7 46.08 118.14 78.9 118.14 78.72 121.7" style="opacity:.3;"></polygon><rect x="55.86" y="192.77" width="12.97" height="1.67" style="opacity:.3;"></rect><rect x="55.86" y="202.85" width="12.97" height="1.67" style="opacity:.3;"></rect></g></g><g id="freepik--Character_2--inject-2"><g><g><polygon points="326.26 432.34 318.26 433.12 314.56 412.62 327.84 411.18 326.26 432.34" style="fill:#9f5b53;"></polygon><path d="M317.1,429.59h2.86c.65,0,1.24,.33,1.63,.85,1.65,2.25,2.89,1.4,4.68-.72,1.14-.13,1.45,1.17,1.54,1.53l2.14,7.77c.19,.65-.19,1.32-.84,1.51-.12,.03-.23,.05-.35,.05h-22.63c-3.6,0-4.35-3.63-2.86-3.96,6.67-1.47,11.39-3.44,13.45-5.38,.38-.34-.01-.59,.4-1.65Z" style="fill:#263238;"></path><path d="M312.84,432.24c.9-.02,1.8-.14,2.68-.35,.08-.03,.13-.12,.1-.2-.02-.04-.05-.08-.1-.1-.4-.2-3.97-1.87-4.87-1.23-.17,.11-.26,.31-.23,.5,0,.37,.18,.72,.48,.93,.58,.35,1.26,.5,1.94,.44Zm2.12-.56c-1.05,.2-3.01,.46-3.82-.15-.21-.17-.34-.41-.35-.68-.02-.08,.02-.17,.09-.21,.49-.35,2.6,.39,4.08,1.04Z" style="fill:#7E57C2;"></path><path d="M315.48,431.9s.08,.01,.11,0c.05-.04,.07-.11,.05-.17,0-.15-.84-3.67-2.8-3.44-.48,.07-.62,.3-.64,.49-.12,.93,2.13,2.7,3.2,3.14l.08-.03Zm-2.44-3.33c1.24,0,1.96,2.05,2.2,2.87-1.17-.62-2.8-2.08-2.7-2.65,0-.05,0-.18,.36-.21h.13Z" style="fill:#7E57C2;"></path><path d="M317.54,433.61c-.08,0-.16-.04-.21-.12-.49-.78-1.33-1.32-2.25-1.45-.14-.02-.23-.15-.21-.28,.02-.14,.14-.22,.28-.21,1.06,.15,2.03,.77,2.6,1.68,.07,.12,.04,.27-.08,.34-.04,.03-.09,.04-.13,.04Z" style="fill:#7E57C2;"></path><path d="M315.77,434.94c-.08,0-.16-.04-.21-.12-.49-.78-1.33-1.32-2.25-1.45-.14-.02-.23-.14-.21-.28,.02-.14,.15-.22,.28-.21,1.06,.14,2.04,.77,2.6,1.68,.07,.12,.04,.27-.08,.34-.04,.03-.09,.04-.13,.04Z" style="fill:#7E57C2;"></path><path d="M313.56,436.07c-.08,0-.16-.04-.21-.12-.49-.78-1.33-1.32-2.25-1.45-.14-.02-.23-.15-.21-.28,.02-.14,.14-.23,.28-.21,1.06,.15,2.03,.77,2.6,1.68,.07,.12,.04,.27-.08,.34-.04,.03-.09,.04-.13,.04Z" style="fill:#7E57C2;"></path><polygon points="316.69 424.33 317.13 426.86 326.72 426.02 326.94 423.3 316.69 424.33" style="opacity:.3;"></polygon><polygon points="462.88 422.89 457.11 428.49 441.45 414.75 450.95 405.35 462.88 422.89" style="fill:#9f5b53;"></polygon><path d="M454,426.44l2.24-1.78c.51-.4,1.18-.52,1.8-.35,2.69,.74,3.13-.7,3.22-3.47,.81-.81,1.86,.02,2.15,.24l6.51,4.75c.55,.39,.68,1.16,.28,1.7-.07,.1-.15,.18-.25,.26-2.71,2.16-4,3.18-7.38,5.87l-10.33,8.22c-2.82,2.24-5.66-.13-4.71-1.32,4.3-5.3,6.77-9.78,7.18-12.58,.09-.5-.38-.46-.71-1.54Z" style="fill:#263238;"></path><path d="M452.32,431.17c.69-.58,1.32-1.23,1.88-1.94,.05-.07,.02-.17-.05-.22-.04-.02-.09-.03-.13-.02-.44,.1-4.27,1.01-4.58,2.07-.06,.19-.01,.4,.13,.54,.23,.29,.59,.45,.96,.43,.67-.09,1.3-.39,1.79-.86Zm1.31-1.76c-.7,.81-2.07,2.23-3.09,2.26-.27,0-.52-.11-.7-.31-.07-.06-.09-.15-.06-.23,.17-.58,2.28-1.31,3.85-1.73Z" style="fill:#7E57C2;"></path><path d="M454.17,429.26s.07-.04,.09-.07c.01-.06-.02-.13-.07-.16-.09-.12-2.94-2.35-4.33-.95-.34,.35-.3,.62-.2,.79,.49,.81,3.34,.79,4.46,.47l.05-.07Zm-3.98-1.08c.97-.77,2.81,.39,3.51,.88-1.3,.24-3.48,.11-3.76-.4-.03-.04-.11-.14,.15-.39l.1-.09Z" style="fill:#7E57C2;"></path><path d="M453.82,429.65c-.08,0-.17-.04-.21-.12-.07-.12-.03-.27,.09-.34,.92-.55,2.07-.66,3.08-.31,.13,.05,.2,.19,.15,.32-.04,.13-.19,.2-.32,.15-.87-.31-1.87-.21-2.66,.27-.04,.02-.08,.04-.13,.04Z" style="fill:#7E57C2;"></path><path d="M453.27,431.81c-.08,0-.17-.04-.21-.12-.07-.12-.03-.27,.09-.34,.92-.55,2.07-.66,3.08-.31,.13,.05,.2,.19,.15,.32-.04,.13-.19,.2-.32,.15-.87-.31-1.87-.21-2.66,.27-.04,.02-.08,.04-.13,.04Z" style="fill:#7E57C2;"></path><path d="M452.24,434.06c-.08,0-.17-.04-.21-.12-.07-.12-.03-.27,.09-.34,.92-.55,2.07-.66,3.08-.31,.13,.05,.2,.19,.15,.32-.05,.13-.19,.2-.32,.15-.87-.31-1.87-.21-2.66,.27-.04,.02-.08,.04-.13,.04Z" style="fill:#7E57C2;"></path><polygon points="450.41 422.58 452.32 424.29 459.3 417.67 457.79 415.4 450.41 422.58" style="opacity:.3;"></polygon><path d="M375.43,285.93s11.74,55.21,15.8,77.85c6.01,24.97,54.27,62.07,54.27,62.07l15.91-12.36s-34.34-35.2-45.21-52.02c-2.31-26.68-6.19-75.54-6.19-75.54h-34.59Z" style="fill:#263238;"></path><path d="M367.73,285.93s-54.43,42.15-56.78,66.13c-2.44,24.96,.53,72.24,.53,72.24h18.36s2.31-43.35,3.86-67.98c16.35-16.04,34.97-25.06,48.58-36.88,5.18-4.49,10.75-9.01,14.61-13.9,4.12-5.23,6.39-12.79,7.1-19.61h-36.28Z" style="fill:#263238;"></path></g><path d="M378.46,203.99l-1.34-4.86-7.41,6.23c1.44,1.06,2.95,2.03,4.51,2.91,1.17,.66,2.65,.27,3.34-.89l.6-.99c.43-.73,.54-1.6,.31-2.41Z" style="fill:#9f5b53;"></path><polygon points="370.26 193.87 366.88 200.92 369.73 205.36 377.14 199.13 370.26 193.87" style="fill:#9f5b53;"></polygon><rect x="361" y="178.41" width="19.64" height="27.5" rx="4.03" ry="4.03" transform="translate(132.67 535.27) rotate(-82.63)" style="fill:#263238;"></rect><path d="M395.67,238.6c-4.53,0-12.9-3.84-23.71-12.66-11.75-9.61-10.63-17.16-9.82-22.72,.39-1.73,.44-3.52,.15-5.27l1.04-.29c.35,1.89,.31,3.83-.12,5.71-.82,5.55-1.84,12.47,9.44,21.74,14.37,11.77,23.45,13.89,25.3,11.65,1.2-1.44-.46-5.44-6.92-10.87-7.23-6.03-7.6-15.25-7.85-21.98,.02-1.99-.18-3.98-.6-5.93l.99-.33c.47,2.04,.69,4.14,.66,6.23,.26,6.53,.59,15.47,7.47,21.19,6.3,5.25,9.01,9.98,7.06,12.34-.8,.83-1.93,1.26-3.08,1.18Z" style="fill:#263238;"></path><path d="M378.05,187.35l-5.59-1.85c-.65-.24-1.05-.88-.99-1.57l.43-3.42c.07-.54,.57-.92,1.11-.85,.07,0,.14,.03,.21,.05l5.59,1.85c.65,.24,1.05,.88,.99,1.57l-.44,3.42c-.07,.54-.57,.92-1.11,.85-.07,0-.13-.02-.19-.05Z" style="fill:#263238;"></path><path d="M375.86,181.32l-3.23-1.07c-.37-.13-.61-.5-.57-.9l.25-1.98c.03-.31,.31-.53,.62-.5,.05,0,.09,.02,.14,.03l3.22,1.07c.38,.13,.62,.51,.58,.91l-.26,1.98c-.03,.3-.29,.52-.59,.49-.06,0-.11-.02-.16-.04Z" style="fill:#263238;"></path><rect x="322.96" y="179.75" width="17.01" height="14.63" rx="2.74" ry="2.74" transform="translate(103.43 491.8) rotate(-82.63)"></rect><rect x="333.4" y="178.59" width="13.73" height="19.23" rx="4.62" ry="4.62" transform="translate(109.97 501.52) rotate(-82.63)" style="fill:#263238;"></rect><path d="M334.44,194.65h0c-1.29-.16-2.46-.84-3.24-1.88-.79-1.02-1.15-2.32-.99-3.61l.58-4.45c.37-2.66,2.8-4.54,5.47-4.23,.15,.02,.25,.15,.23,.3s-.15,.25-.3,.23h0c-2.38-.3-4.56,1.38-4.87,3.76l-.58,4.45c-.29,2.38,1.39,4.56,3.76,4.88,.14,0,.25,.13,.24,.27v.02c-.02,.15-.16,.25-.31,.24Z" style="fill:#fff;"></path><rect x="339.17" y="182.81" width="14.39" height="12.38" rx="2.31" ry="2.31" transform="translate(114.49 508.25) rotate(-82.63)" style="fill:#263238;"></rect><rect x="341" y="183.05" width="14.39" height="12.38" rx="2.31" ry="2.31" transform="translate(115.86 510.29) rotate(-82.63)"></rect><rect x="349.81" y="182.07" width="11.62" height="16.26" rx="3.91" ry="3.91" transform="translate(121.37 518.49) rotate(-82.63)" style="fill:#263238;"></rect><path d="M350.7,195.69h0c-2.29-.3-3.9-2.4-3.61-4.68l.48-3.76c.3-2.29,2.4-3.9,4.68-3.61,.14,.01,.24,.14,.23,.28h0c-.02,.16-.15,.26-.3,.25-1.99-.25-3.81,1.15-4.08,3.14l-.48,3.76c-.25,1.99,1.15,3.81,3.14,4.08,.14,.01,.24,.14,.23,.28h0c0,.16-.13,.26-.27,.25h-.02Z" style="fill:#fff;"></path><rect x="351.99" y="186.32" width="19.64" height="9.35" rx="4.03" ry="4.03" transform="translate(125.99 525.33) rotate(-82.63)"></rect><path d="M358.02,182.49h3.65l-1.26,4.94-6.82-2.45,1.19-1.14c.87-.85,2.03-1.34,3.25-1.35Z" style="fill:#9f5b53;"></path><path d="M351.84,191.68l1.7-6.72,6.82,2.45s-.05,8.09-5.31,7.68l-3.21-3.41Z" style="fill:#9f5b53;"></path><path d="M407.34,233.58c-.59,.22-.83,.28-1.2,.4l-.99,.27c-.62,.16-1.24,.3-1.86,.41-1.23,.24-2.43,.37-3.63,.48-2.37,.18-4.74,.16-7.1-.05-2.33-.19-4.64-.56-6.92-1.1-1.13-.25-2.23-.56-3.32-.9l-.82-.25-.47-.15c-.26-.08-.52-.17-.78-.27-.97-.39-1.88-.92-2.7-1.58-1.3-1.08-2.37-2.4-3.17-3.88-.64-1.19-1.18-2.44-1.59-3.72-.68-2.26-1.13-4.57-1.36-6.92-.44-4.4-.37-8.84,.22-13.22h5.93c.66,3.9,1.52,7.76,2.59,11.57,.48,1.74,1.11,3.43,1.88,5.07,.31,.66,.68,1.29,1.12,1.88,.22,.34,.53,.62,.89,.8q.06,0,0-.07c-.06-.07,0,0,0,0h.29l.69,.13,1.38,.24,1.39,.18c.92,.16,1.84,.2,2.76,.3,.92,.1,1.83,.13,2.73,.13,1.79,.04,3.58-.02,5.35-.2,.86-.09,1.72-.2,2.54-.35l1.2-.23,.53-.12c.14,0,.4-.12,.3-.07l4.13,11.22Z" style="fill:#9f5b53;"></path><path d="M400.68,195.1c-1.8,8.01-2.24,13.98-.62,20.3,0,0-1.81,5.86-12.55,5.86-11.86,0-5.42-5.86-5.42-5.86,6.51-1.54,6.53-6.33,5.57-10.82l13.02-9.48Z" style="fill:#9f5b53;"></path><path d="M355.17,296.32s21.85,6.92,35.84,4.28c13.99-2.64,19.51-8.38,19.51-8.38l-49.21-.9-6.14,5Z" style="isolation:isolate; opacity:.2;"></path><path d="M405.11,215.24l-5.34-1.02c-5.99-.34-9.07-.4-15.06-.06-2.66,.25-7.27,.48-9.39,.9-3.44,.68-6.28,4.52-6.79,7.99-3.19,21.39-8.5,68.7-8.5,68.7,18.82,8.13,37.94,8.41,52.04-.47,.48-5.82-1.2-35.08,.99-62.82,.43-5.48-2.85-12.32-7.97-13.21Z" style="fill:#7E57C2;"></path><g><path d="M370.99,295.93h-15.18c-3.01,.06-5.49-2.33-5.55-5.34,0-.28,.01-.55,.05-.83l1.72-16.4c.44-3.46,3.34-6.08,6.83-6.17h15.18c3.01-.06,5.49,2.33,5.55,5.34,0,.28-.01,.55-.05,.83l-1.78,16.4c-.43,3.44-3.3,6.06-6.77,6.17Z" style="fill:#263238;"></path><path d="M374.08,267.23l-3.08,28.74c3.48-.09,6.38-2.71,6.82-6.17l1.81-16.44c.38-2.98-1.73-5.71-4.72-6.09-.27-.03-.55-.05-.82-.04Z"></path><path d="M378.27,273.57c-.33,0-.6-.26-.61-.59,0-.19,.08-.36,.22-.48,.34-.28,33.6-27.54,27.06-56.71-.07-.32,.13-.64,.45-.72h0c.32-.07,.63,.12,.7,.44h0c6.68,29.92-27.12,57.61-27.47,57.92-.11,.08-.24,.13-.37,.13Z" style="fill:#263238;"></path><path d="M374.3,268.31h-17.79c-.6,.01-1.18,.14-1.73,.38-1.5,1.14-2.47,2.84-2.7,4.72l-.83,7.62c.51,.36,1.13,.55,1.75,.54h17.79c2.38-.18,4.39-1.85,5-4.16l1.31-4.9c.6-2.32-.66-4.2-2.81-4.2Z"></path><path d="M370.92,280.5h-17.79c-2.15,0-3.41-1.88-2.81-4.19l1.3-4.9c.62-2.31,2.63-3.98,5.02-4.18h17.79c2.15,0,3.41,1.9,2.8,4.19l-1.3,4.9c-.62,2.31-2.62,3.98-5,4.18Z" style="fill:#263238;"></path></g><path d="M367.74,230.08c-.37,4.2-2.05,10.45-2.18,15.14,4.71-5.24,9.38-13.43,2.18-15.14Z" style="isolation:isolate; opacity:.2;"></path><path d="M356.61,194.75l-10.25,18.76,35,5.91-2.79,11.54-8.83,1.4s-34.27-6.96-37.17-13.18c-2.94-6.3,13.2-20.52,19.26-27.5l4.77,3.08Z" style="fill:#9f5b53;"></path><path d="M377.64,232.21c-5.61,5.02-23.75,1.62-23.75,1.62l3.3-19.61s12.66,0,22.56,1.22c11.06,1.3,4.21,11.08-2.1,16.77Z" style="fill:#7E57C2;"></path><path d="M380.81,187.24c-.09,.63-.49,1.11-.91,1.07-.41-.04-.68-.59-.59-1.22,.09-.62,.5-1.12,.92-1.07,.41,.05,.67,.58,.58,1.22Z" style="fill:#263238;"></path><path d="M380.38,188.36c-1.03,1.86-2.31,3.57-3.79,5.1,.99,1.16,2.96,.87,2.96,.87l.83-5.97Z" style="fill:#892b29;"></path><path d="M380.56,183.11c-.12-.04-.21-.13-.24-.25-.06-.2,.06-.41,.26-.46h0c1.17-.25,2.4,.09,3.27,.92,.15,.15,.15,.38,0,.53h0c-.14,.15-.37,.15-.52,0h0c-.69-.65-1.65-.93-2.58-.76-.06,.03-.13,.03-.2,0Z" style="fill:#263238;"></path><path d="M402.17,188.07c-1.58,7.71-2.1,12.29-6.61,15.87-4.36,3.58-10.79,2.94-14.36-1.41-1.32-1.6-2.11-3.57-2.28-5.64-.68-7.14,1.98-18.54,10.07-20.86,5.43-1.72,11.23,1.29,12.95,6.72,.55,1.72,.63,3.56,.24,5.32Z" style="fill:#9f5b53;"></path><path d="M384.69,191.78l-3.38,.3s-.5-4.84,2.15-7.59c-1.78-.33-3.41-3.13-3.11-7,.31-4.1,6.55-10.53,11.08-6.4,4.88,4.45,14.47,5.48,12.57,8.19,2.81-.52,9.44,8.74,2.81,13.29s-4.39,8.96-7.55,10.76-13.61-.06-14.57-11.54Z" style="fill:#263238;"></path><path d="M403.69,179.44s1.36-1.25-.18-3.95c2.24,1.18,1.79,3.51,.18,3.95Z" style="fill:#263238;"></path><path d="M388.44,191.57c-.44,1.92-1.48,3.65-2.96,4.94-1.98,1.7-3.59,.32-3.54-1.98,0-2.1,1.13-5.52,3.36-6.32,2.23-.8,3.64,1.05,3.14,3.36Z" style="fill:#9f5b53;"></path><path d="M413.91,270.62h0c-.14,0-.25-.12-.25-.25l.33-23.91c0-.14,.11-.25,.25-.25h0c.14,0,.25,.12,.25,.25l-.33,23.91c0,.14-.11,.25-.25,.25Z" style="fill:#7E57C2;"></path><path d="M413.84,273.61c-.14,0-.25-.11-.25-.25v-.79c0-.14,.11-.25,.25-.25s.25,.11,.25,.25v.79c0,.14-.11,.25-.25,.25Z" style="fill:#7E57C2;"></path></g></g><g id="freepik--Characters_1--inject-2"><g><g><path d="M254.79,279.69c-.18,.19-1.46,3.02-1.82,4.11-.36,1.09-.12,9.62,.91,9.11,1.03-.51,1.21-.9,1.4-2.76,.18-1.86,.18-3.59,.67-3.14s1.4,5.9,.91,7.44c-.49,1.54-1.46,4.3-.49,5,.97,.71,1.64-.45,1.64-.45,0,0,.12,1.54,.97,.96,.85-.58,4.13-4.62,4.49-6.48,.36-1.86-1.43-9.73-1.63-11.68-.06-.59-.86-4.35-.86-4.35l-6.86,.38,.67,1.86Z" style="fill:#ebb373;"></path><path d="M236.78,188.19s6.61,.82,9.36,7.5c2.76,6.68,5.99,42.13,7.98,46.89,2.76,6.62,6.86,34.87,6.86,34.87l-6.2,2.25s-11.67-25.62-12.56-34.9c-.89-9.29-2.49-15.98-2.49-15.98l-2.95-40.62Z" style="fill:#7E57C2;"></path></g><path d="M194.96,189.37s-9.4,.83-12.38,13.83c-2.18,9.48-7.88,29.35-7.88,29.35l-17.27,18.03,2.87,9.39s22.93-12.59,25.41-15.77,9.71-20.92,9.71-20.92l-.45-33.91Z" style="fill:#7E57C2;"></path><g><polygon points="243.28 408.74 241 429.88 247.96 430.93 255.27 411.06 243.28 408.74" style="fill:#263238;"></polygon><g><path d="M253.48,425.75c.11-1.29,.03-2.37-1.36-2.44l-1.96-.11c-.74,0-1.27,.49-1.86,.91-4.49,3.13-6.34-.91-8.08-.91-2.24,0-.8,7.16-.91,7.54l-2.45,8.31c-.21,.69,.22,2.19,.96,2.39,.13,.04,.27,.05,.41,.05h25.95c4.13,0,4.18-5.05,2.48-5.41-7.65-1.58-10.66-4.08-13.18-5.91,0,0-.16-2.43,0-4.42Z" style="fill:#7E57C2;"></path><path d="M264.18,441.49h-25.95c-.14,0-.27-.01-.41-.05-.51-.13-.86-.87-.97-1.54v-.63h30.65c-.41,1.18-1.43,2.23-3.31,2.23Z" style="fill:#fff; opacity:.4;"></path><path d="M257.02,432.7c-.67,.62-1.22,1.36-1.63,2.17-.09,.18-.05,.41,.13,.51,.17,.09,.42,.05,.51-.13,.19-.39,.42-.76,.68-1.11l.04-.06s0,0,0,0c.03-.04,.07-.08,.1-.13,.07-.08,.14-.17,.21-.25,.15-.17,.31-.32,.47-.47,.14-.13,.15-.4,0-.53-.15-.14-.38-.14-.53,0h0Z" style="fill:#263238;"></path><path d="M254.64,431.25c-.61,.59-1.14,1.27-1.54,2.02-.09,.17-.05,.42,.13,.51s.41,.05,.51-.13c.19-.35,.41-.69,.66-1.02,.02-.02,.03-.03,0,0l.04-.05s.06-.08,.1-.12c.06-.08,.13-.15,.2-.23,.14-.15,.28-.3,.43-.45,.14-.14,.15-.4,0-.53s-.38-.14-.53,0h0Z" style="fill:#263238;"></path><path d="M253.02,429.94c-.62,.34-1.15,.89-1.45,1.53-.04,.09-.07,.19-.04,.29,.02,.09,.09,.18,.17,.22,.17,.09,.42,.05,.51-.13,.07-.15,.15-.28,.24-.42,.02-.03,.04-.06,.06-.09,.02-.02,.07-.07,0,0,.01-.01,.02-.03,.03-.04,.05-.06,.1-.12,.16-.18,.11-.11,.23-.22,.35-.32-.02,.02-.06,.05-.01,.01l.04-.03s.07-.05,.11-.07c.07-.04,.14-.08,.21-.12,.17-.09,.24-.35,.13-.51s-.33-.24-.51-.13h0Z" style="fill:#263238;"></path><path d="M253.21,427.25c-.73,0-1.46,.15-2.13,.43-.18,.07-.33,.25-.26,.46,.06,.17,.27,.34,.46,.26,.32-.13,.64-.23,.98-.3,.08-.02,.16-.03,.24-.04,.01,0,.16-.02,.08-.01,.04,0,.07,0,.11-.01,.17-.02,.35-.03,.52-.03,.2,0,.38-.17,.38-.38s-.16-.38-.38-.38h0Z" style="fill:#263238;"></path><g style="opacity:.3;"><path d="M245.9,428.25c-.04,.74-.3,1.56-.96,1.9-.41,.21-.89,.21-1.35,.19l-4.13-.12-.02-.04c-.22-1.96-.8-6.73,.91-6.73,1.34,0,2.75,2.74,5.56,1.94-.02,1.04,.02,2.36,0,2.85Z"></path></g></g><g><path d="M197.46,264.52l30.57,.94,19.87,.53s15.63,64.88,16.87,77.1c1.24,12.22-8.26,83.82-8.26,83.82l-19.66-.5s5.27-71.89,3.94-78.51c-1.15-5.76-13.92-42.72-17.18-52.11-.33,1.92-.66,3.86-1.01,5.77-.82,8.66-3.47,36.29-4.62,46.57,0,0-2.5,58.72-4.41,76.9l-15.21,.03c-3-25.34-4.29-110.37-4.29-110.37h0c-1.13-18.47,3.38-50.17,3.38-50.17Z" style="fill:#263238;"></path><g style="opacity:.5;"><path d="M238.69,269.42c1.84,6.24,6.76,11.25,12.83,13.08,.33,.1,.19,.63-.14,.53-6.25-1.88-11.31-7.03-13.2-13.46-.1-.34,.41-.48,.51-.15h0Z"></path><path d="M222.16,269.42c.36,5.46,.71,10.93,1.07,16.39,.02,.35,.55,.35,.53,0-.19-2.8-.37-5.61-.55-8.42,1.31,1.04,2.83-.22,3.26-1.61,.7-2.25,.44-4.93-.11-7.19-.09-.34-.6-.19-.51,.14,.38,1.58,.55,3.21,.44,4.83-.05,.83-.13,1.78-.5,2.54-.42,.85-1.48,1.56-2.32,.79-.09-.08-.2-.09-.28-.04-.16-2.47-.32-4.96-.49-7.43-.02-.35-.55-.35-.53,0Z"></path><path d="M206.61,270.35c.07,7.24-5.32,13.3-12.31,13.87-.33,.03-.33-.51,0-.54,6.7-.55,11.86-6.4,11.79-13.33,0-.35,.52-.35,.52,0h0Z"></path><path d="M202.43,350.72c-2.28,.87-4.73,.88-7.02,.04-.33-.12-.19-.67,.15-.54,2.21,.81,4.53,.8,6.73-.04,.33-.13,.47,.42,.15,.54h0Z"></path></g></g><g><path d="M246.9,257.21l-4.78-52.58-5.34-16.44c-4.64-.29-23.33-2.54-42.3,1.27l.13,72.81s-2.94,5.27,3.07,4.95c24.95,2.68,49.35-1.23,49.35-1.23,2.68-.9,2.68-4.41-.13-8.78Z" style="fill:#7E57C2;"></path><path d="M195.42,233.04v-25.33s-2.87,12.93-2.04,16.73,2.04,8.6,2.04,8.6Z" style="isolation:isolate; opacity:.2;"></path></g><polygon points="212.25 409.76 209.29 431.46 202.22 431.82 199.93 410.9 212.25 409.76" style="fill:#263238;"></polygon><path d="M196.2,441.53h15.81s.34-.66-.05-2.43c-.06-.28-.14-.58-.24-.91,0-.02,0-.03-.01-.05-.15-.49-.32-1.09-.5-1.74-.72-2.65-1.22-8.74-1.22-8.74,0,0-2.99-3-6.07-1.6-2.7,1.23-2.28,2.8-2.28,2.8,0,0-.04,4.04-2.09,5.87-1.27,1.13-2.53,2-3.13,3.41-.11,.26-.2,.54-.27,.84,0,.04-.01,.07-.02,.11-.13,.68-.12,1.47,.06,2.43Z" style="fill:#7E57C2;"></path><g style="opacity:.4;"><path d="M211.96,439.1c.39,1.77,.05,2.43,.05,2.43h-15.81c-.18-.96-.19-1.76-.06-2.43h15.83Z" style="fill:#fff;"></path></g><path d="M202.5,431.72c.89-.69,2.06-.6,2.86,.18,.22,.21,.55-.12,.33-.33-1-.97-2.42-1.03-3.52-.18-.24,.18,.1,.51,.33,.33h0Z" style="fill:#263238;"></path><path d="M202.05,433.19c.89-.69,2.06-.6,2.86,.18,.22,.21,.55-.12,.33-.33-1-.97-2.42-1.03-3.52-.18-.24,.18,.1,.51,.33,.33h0Z" style="fill:#263238;"></path><path d="M201.61,434.55c.89-.69,2.06-.6,2.86,.18,.21,.21,.55-.12,.33-.33-1-.97-2.42-1.03-3.52-.18-.24,.18,.1,.51,.33,.33h0Z" style="fill:#263238;"></path></g><g><g><polygon points="184.15 435.9 192.45 436.71 198.59 415.69 185.96 414.32 184.15 435.9" style="fill:#b97964;"></polygon><g><path d="M193.66,433.04h-2.96c-.67,0-1.29,.34-1.69,.88-1.71,2.33-2.99,1.45-4.85-.74-1.18-.14-1.5,1.22-1.6,1.58l-2.22,8.06c-.19,.67,.2,1.37,.87,1.57,.12,.03,.24,.05,.37,.05h23.48c3.73,0,4.51-3.76,2.97-4.11-6.92-1.53-11.82-3.56-13.95-5.58-.4-.35,.01-.62-.42-1.71Z" style="fill:#263238;"></path><path d="M200.09,435.33c.31-.22,.5-.58,.5-.97,.03-.21-.07-.41-.24-.52-.93-.66-4.63,1.07-5.05,1.28-.05,.02-.08,.05-.1,.1-.03,.09,.01,.18,.1,.21,.91,.22,1.84,.34,2.78,.36,.7,.07,1.41-.09,2.01-.45Zm.03-1.21c.08,.05,.11,.14,.1,.22-.02,.28-.15,.53-.37,.71-.84,.63-2.87,.36-3.97,.15,1.54-.68,3.72-1.44,4.24-1.08Z" style="fill:#7E57C2;"></path><path d="M195.43,435.47c1.11-.46,3.44-2.29,3.32-3.26-.02-.2-.16-.45-.67-.51-2.03-.23-2.9,3.41-2.9,3.57-.02,.06,0,.13,.05,.17,.04,.01,.08,.01,.12,0l.09,.03Zm2.58-3.47c.38,.04,.38,.17,.38,.22,.11,.59-1.59,2.11-2.8,2.75,.25-.85,1-2.98,2.28-2.98h.14Z" style="fill:#7E57C2;"></path><path d="M193.2,437.2s-.09-.01-.13-.04c-.12-.07-.15-.23-.08-.34,.59-.94,1.6-1.59,2.69-1.74,.13-.01,.26,.08,.28,.21s-.08,.26-.21,.28c-.95,.13-1.83,.69-2.34,1.51-.05,.08-.13,.12-.21,.12Z" style="fill:#7E57C2;"></path><path d="M195.04,438.59s-.09-.01-.13-.04c-.12-.07-.15-.23-.08-.35,.59-.94,1.6-1.58,2.69-1.74,.13-.02,.26,.08,.28,.21,.02,.14-.08,.26-.21,.28-.95,.13-1.83,.69-2.34,1.51-.05,.08-.13,.12-.21,.12Z" style="fill:#7E57C2;"></path><path d="M197.33,439.75s-.09-.01-.13-.04c-.12-.07-.15-.23-.08-.34,.59-.94,1.6-1.59,2.69-1.74,.13-.01,.26,.08,.28,.21s-.08,.26-.21,.28c-.95,.13-1.83,.69-2.34,1.51-.05,.08-.13,.12-.21,.12Z" style="fill:#7E57C2;"></path></g><polygon points="195.35 426.8 194.6 429.38 184.83 427.88 185 425.76 195.35 426.8" style="opacity:.3;"></polygon></g><g><polygon points="135.84 436.56 144.14 437.38 150.27 416.36 137.64 414.99 135.84 436.56" style="fill:#b97964;"></polygon><g><path d="M145.34,433.71h-2.96c-.67,0-1.29,.34-1.69,.88-1.71,2.33-2.99,1.45-4.85-.74-1.18-.14-1.5,1.22-1.6,1.58l-2.22,8.06c-.19,.67,.2,1.37,.87,1.57,.12,.03,.24,.05,.37,.05h23.48c3.73,0,4.51-3.76,2.97-4.11-6.92-1.53-11.82-3.56-13.95-5.58-.4-.35,.01-.62-.42-1.71Z" style="fill:#263238;"></path><path d="M151.77,436c.31-.22,.5-.58,.5-.97,.03-.21-.07-.41-.24-.52-.93-.66-4.63,1.07-5.05,1.28-.05,.02-.08,.05-.1,.1-.03,.09,.01,.18,.1,.21,.91,.22,1.84,.34,2.78,.36,.7,.07,1.41-.09,2.01-.45Zm.03-1.21c.08,.05,.11,.14,.1,.22-.02,.28-.15,.53-.37,.71-.84,.63-2.87,.36-3.97,.15,1.54-.68,3.72-1.44,4.24-1.08Z" style="fill:#7E57C2;"></path><path d="M147.11,436.14c1.11-.46,3.44-2.29,3.32-3.26-.02-.2-.16-.44-.67-.51-2.03-.23-2.9,3.42-2.9,3.57-.02,.06,0,.13,.05,.17,.04,.01,.08,.01,.12,0l.09,.03Zm2.58-3.47c.38,.04,.38,.17,.38,.22,.11,.59-1.59,2.11-2.8,2.75,.25-.85,1-2.98,2.28-2.98h.14Z" style="fill:#7E57C2;"></path><path d="M144.88,437.87s-.09-.01-.13-.04c-.12-.07-.15-.23-.08-.35,.59-.94,1.6-1.58,2.69-1.74,.13-.01,.26,.08,.28,.21s-.08,.26-.21,.28c-.95,.13-1.83,.69-2.34,1.51-.05,.08-.13,.12-.21,.12Z" style="fill:#7E57C2;"></path><path d="M146.72,439.25s-.09-.01-.13-.04c-.12-.07-.15-.23-.08-.34,.59-.94,1.6-1.59,2.69-1.74,.13-.01,.26,.08,.28,.21,.02,.14-.08,.26-.21,.28-.95,.13-1.83,.69-2.34,1.51-.05,.08-.13,.12-.21,.12Z" style="fill:#7E57C2;"></path><path d="M149.01,440.42s-.09-.01-.13-.04c-.12-.07-.15-.23-.08-.34,.59-.94,1.6-1.59,2.69-1.74,.13-.02,.26,.08,.28,.21,.02,.14-.08,.26-.21,.28-.95,.13-1.83,.69-2.34,1.51-.05,.08-.13,.12-.21,.12Z" style="fill:#7E57C2;"></path></g><polygon points="147.03 427.47 146.28 430.04 136.51 428.54 136.69 426.43 147.03 427.47" style="opacity:.3;"></polygon></g><g><g><path d="M201.01,280.07s7.26,29.74,10.54,56.2c1,8.07,1.19,18.85-.58,26.79l-13.26,65.92-16.69-1.67c2.62-28.43,6.28-63.5,7.32-78.42l-19.18-59.69,31.84-9.14Z" style="fill:#7E57C2;"></path><path d="M146.56,354.2c.38-1.64,.98-4.98,1.72-9.39l-.07-.02c.54-5.83,1.55-32.84,3.39-50.08,1.42-10.98,4.22-18.41,7.05-22.04,.15-.19,.28-.36,.4-.51,.47-.59,.75-.91,.75-.91,.54,.13,1.07,.26,1.6,.38,.2,.04,.4,.09,.59,.13,19.95,4.17,35.78-1.81,35.78-1.81,1.84,4.53,4.93,14.94,6.27,24.96-2.09,2.29-11.24,5.26-21.75,7.23l-3,13.55c-1.58,8.4-3.6,16.64-5.32,24.05l-1.8,8.12c-.11,.53-.22,1.06-.32,1.58-.91,4.67-22.6,79.92-22.6,79.92l-14.13-.83s6.31-52.08,11.42-74.35Z" style="fill:#7E57C2;"></path></g><path d="M199.97,276.37s-6.1,6.44-18.04,6.55c-11.95,.11-25.35-6.85-25.35-6.85l1.5-2.57,34.4,3.75,6.58-3.75,.91,2.87Z" style="isolation:isolate; opacity:.2;"></path><path d="M178.59,318.83c-.06,.28,6.99-25.33,6.99-25.33,0,0,3.51,19.35-4.85,32.6l-2.14-7.27Z" style="isolation:isolate; opacity:.2;"></path><polygon points="198.58 424.7 197.71 428.98 181.03 427.31 181.46 422.65 198.58 424.7" style="isolation:isolate; opacity:.2;"></polygon><polygon points="149.27 429.38 150.46 425.24 135.67 424.27 135.14 428.55 149.27 429.38" style="isolation:isolate; opacity:.2;"></polygon></g><g><path d="M153.24,235.61l-5.19-17.69c3.28-4.9,19.52-8.66,19.52-8.66l10.7,.59s4.11,.92,7.63,2.07c4.7,1.53,7.24,2.77,8.36,5.37,0,0,1.96,5.78,.78,17.69-.32,3.27-1.07,20.56-.15,26.18l6.65,13.01c-19.55,15.23-44.58,0-44.58,0,.88-2.69,2.81-8.64,3.21-11.27-.29-3.35-1.23-5.55-2.65-11.42-.27-1.13-3.81-14.75-4.29-15.86Z" style="fill:#7E57C2;"></path><path d="M153.24,235.61l-5.19-17.69c3.28-4.9,19.52-8.66,19.52-8.66l10.7,.59s4.11,.92,7.63,2.07c4.7,1.53,7.24,2.77,8.36,5.37,0,0,1.96,5.78,.78,17.69-.32,3.27-1.07,20.56-.15,26.18l6.65,13.01c-19.55,15.23-44.58,0-44.58,0,.88-2.69,2.81-8.64,3.21-11.27-.29-3.35-1.23-5.55-2.65-11.42-.27-1.13-3.81-14.75-4.29-15.86Z" style="fill:#fff; opacity:.7;"></path></g></g><g><g><path d="M145.39,185.81c.34-.49,.91-.78,1.51-.98-.29-1.1,.24-2.16,1.15-2.7s2.13-.62,3.32-.42c1.27-1.76,4.32-2.08,6.59-.68,1.01-1.47,3.4-1.87,5.36-.89,1.96,.98,3.24,3.22,2.89,5.02,1.46,.11,2.98,.94,3.92,2.13,.69,.88,.99,2.21,.13,2.66,1.1,.35,1.78,1.55,1.84,2.57,.1,1.6-1.01,2.99-2.62,3.3,.75,1.58,.67,3.35-.21,4.58-.52,.72-1.6,1.26-2.52,.68,1.13,1.61,.75,3.76-.8,4.51-.25,.12-.58,.2-.85,.02,.2,1.91-1.71,3.39-3.78,2.92,.15,1.68-1.03,3.15-2.74,3.41-1.71,.26-3.8-.7-4.85-2.24-.96,.81-2.62,.59-4.03,.05-.94-.36-1.89-.88-2.51-1.66s-.84-1.86-.28-2.49c-1.52,.14-3.26-.98-3.98-2.39-.72-1.42-.49-3,.38-4.06-1.21-.63-2.12-1.84-2.29-3.03-.17-1.19,.41-2.32,1.46-2.82-1.21-.96-1.16-2.61-.64-3.76,.3-.65,.71-1.27,1.34-1.65,.61-.37,1.31-.41,2.09-.31,0-.64-.27-1.19,.12-1.77Z" style="fill:#263238;"></path><path d="M172.79,175.29s9.48,10.52,10.66,14.2c3.07,1.59,3.87-3.25,2.4-9.16-1.2-4.83-4.94-9.49-9.57-10.41-6.5-1.29-3.5,5.37-3.5,5.37Z" style="fill:#263238;"></path><path d="M178.53,209.64c-1.11-1.19-1.32-2.1-1.04-3.77,.2-1.28,.66-2.6,1.2-3.88l-1.65-1.93-8.62-8.7c.22,5.81,.91,15.14-3.63,18.29,0,0-5.06,1.83-7.37,2.93,1.47,1.21,15.31,17.55,24.01,16.84,7.92-.64,5.15-15.61,3.88-17.9-2.25-.7-4.66-1.4-6.78-1.88Z" style="fill:#b97964;"></path><path d="M177.43,207.12c-2.44-.65-5.94-2.4-6.45-5.23-.21-1.16-.21-2.31-.12-3.07l7.2,4.81c-.12,1.09-.75,1.91-.63,3.49Z" style="opacity:.2;"></path><path d="M160.68,186.48c3.09,8.34,4.21,11.93,9.84,15.22,8.46,4.96,18.06-.06,17.53-9.01-.47-8.06-5.44-20.35-14.81-21.68-9.23-1.31-15.65,7.13-12.56,15.47Z" style="fill:#b97964;"></path><path d="M173.08,186.81c.19,.81,.82,1.39,1.39,1.3,.58-.09,.88-.82,.69-1.63-.19-.81-.82-1.39-1.39-1.3-.58,.09-.88,.82-.69,1.63Z" style="fill:#263238;"></path><path d="M181.68,184.03c.14,.79,.73,1.39,1.3,1.33,.58-.06,.93-.75,.79-1.54-.14-.79-.73-1.39-1.3-1.33-.58,.06-.93,.75-.79,1.54Z" style="fill:#263238;"></path><path d="M170.14,184.56c.11-.02,.21-.08,.28-.18,.97-1.58,2.57-1.57,2.59-1.57,.24,0,.42-.18,.41-.42-.01-.24-.22-.43-.46-.44-.08,0-2.09-.02-3.3,1.95-.12,.2-.05,.46,.16,.6,.1,.06,.21,.09,.32,.07Z" style="fill:#263238;"></path><path d="M183.1,179.71c.09-.06,.16-.14,.19-.25,.05-.22-.1-.45-.34-.5-2.42-.55-3.91,.75-3.97,.81-.18,.16-.18,.42,0,.59,.17,.17,.46,.18,.63,.02,.06-.05,1.23-1.05,3.15-.61,.12,.03,.25,0,.35-.05Z" style="fill:#263238;"></path><path d="M159.97,194.14c1.48,1.48,3.42,2.14,5.03,2.11,2.42-.04,2.61-4,1.22-6.06-1.25-1.85-3.83-2.61-5.92-1.57-2.05,1.02-2.03,3.82-.33,5.51Z" style="fill:#b97964;"></path><path d="M178.53,184.18s2.2,2.84,4.25,4.43c.36,.28,.33,.83-.04,1.09-.95,.67-2.28,.65-2.28,.65l-1.93-6.18Z" style="fill:#a24e3f;"></path><path d="M173.59,185.19l1.91-.84s-.82,1.69-1.91,.84Z" style="fill:#263238;"></path><path d="M182.26,182.53l1.96-.72s-.92,1.64-1.96,.72Z" style="fill:#263238;"></path><path d="M157.27,182.3c-.78,1.96,2.68,6.33,2.68,6.33,0,0,3.85-2.19,5.52,3.99,1.58-.1,1.95-6.31,.35-12.11-1.07-3.23-7.18-1.68-8.55,1.78Z" style="fill:#263238;"></path><path d="M180.55,171.88c-2.7-3.37-10.95-5.18-18.65,.45-6.96,5.08-6.6,16.84-.92,15.97,5.68-.86,11-7.85,11-7.85l8.57-8.58Z" style="fill:#263238;"></path><path d="M163.94,194.27h0c-1.49-.01-2.3-.61-2.73-1.1-.42-.49-.63-1.1-.55-1.6,.12-.79,.88-1.55,1.83-1.42,.14,.02,.23,.15,.21,.28-.02,.14-.14,.23-.28,.21-.65-.1-1.18,.45-1.26,1-.04,.27,.05,.75,.44,1.2,.36,.42,1.05,.92,2.35,.93,.14,0,.25,.11,.25,.25s-.11,.25-.25,.25Z" style="opacity:.2;"></path><path d="M178.51,193.72c-1.28,0-2.56-.53-3.43-1.49-.09-.1-.09-.26,.02-.35,.1-.09,.26-.09,.35,.02,1.03,1.13,2.71,1.6,4.18,1.16,.13-.04,.27,.04,.31,.17,.04,.13-.04,.27-.17,.31-.41,.12-.83,.18-1.26,.18Z" style="fill:#263238;"></path><path d="M156.68,180.24s-.32,6.81,1.84,10.71c0,0-1.83-.88-3.15-5.78-1-3.73,.18-4.62,.18-4.62l1.13-.31Z"></path></g><path d="M161.22,196.73c-.45,2.37,1.59,4.41,3.96,3.96,1.32-.25,2.39-1.33,2.64-2.64,.45-2.37-1.59-4.4-3.96-3.96-1.32,.25-2.39,1.33-2.64,2.64Z" style="fill:#7E57C2;"></path></g><g><path d="M159.52,252.81s6.57,1.68,7.45,3.33c.88,1.65-1.79,1.66-1.79,1.66,0,0,2.94,.17,3.03,1.43,.12,1.51-2.68,1.51-2.68,1.51,0,0,2.39,.24,2.4,1.36,.01,1.17-3.14,1.39-3.14,1.39,0,0,1.65,.49,1.22,1.27-.43,.79-7.12,1.39-9.16,.23-2.04-1.15-2.14-9.74-2.21-11.66-.08-2.23,1.22-4.08,2.2-4.59l2.5,4.02,.19,.05Z" style="fill:#ebb373;"></path><path d="M165.17,257.95s0,0-.01,0l-5.11-.54c-.07,0-.12-.08-.11-.15,0-.08,.07-.14,.14-.13l5.11,.54c.07,0,.12,.08,.11,.15,0,.07-.06,.13-.12,.13Z" style="opacity:.2;"></path><path d="M165.38,260.88h0l-4.94-.13c-.07,0-.12-.07-.12-.14,0-.08,.05-.13,.13-.14l4.94,.13c.07,0,.12,.07,.12,.14,0,.08-.06,.14-.12,.14Z" style="opacity:.2;"></path><path d="M164.62,263.63h-3.68c-.07,0-.12-.05-.12-.13,0-.08,.06-.14,.12-.14h3.68c.07,0,.12,.05,.12,.13,0,.08-.06,.14-.12,.14Z" style="opacity:.2;"></path></g><g><path d="M155.23,256.06s5.35,2.54,5.83,4.1c.48,1.56-1.81,1.13-1.81,1.13,0,0,2.49,.63,2.36,1.73-.15,1.31-2.55,.85-2.55,.85,0,0,2.01,.6,1.83,1.57-.18,1-2.93,.67-2.93,.67,0,0,1.34,.69,.83,1.29-.5,.6-6.34,0-7.89-1.32-1.56-1.33-.56-8.8,.04-10.37,.19-.5,.7-1.33,3.6-1.67l.52,1.96,.16,.08Z" style="fill:#b97964;"></path><path d="M159.22,261.41h-.01l-4.29-1.32c-.06-.02-.09-.09-.07-.15,.02-.07,.08-.1,.14-.09l4.29,1.31c.06,.02,.09,.09,.07,.15-.02,.06-.07,.1-.13,.09Z" style="opacity:.2;"></path><path d="M158.91,263.95h0l-4.22-.93c-.06-.01-.09-.08-.08-.14,.01-.07,.06-.1,.13-.1l4.22,.93c.06,.01,.09,.08,.08,.14-.01,.07-.07,.11-.13,.1Z" style="opacity:.2;"></path><path d="M157.8,266.18l-3.15-.6c-.06-.01-.1-.08-.08-.14,.01-.07,.07-.11,.13-.1l3.15,.6c.06,.01,.1,.08,.08,.14-.01,.07-.07,.11-.13,.1Z" style="opacity:.2;"></path></g><g><path d="M243.72,243.98s-5.35,2.54-5.83,4.1c-.48,1.56,1.81,1.13,1.81,1.13,0,0-2.49,.63-2.36,1.73,.15,1.31,2.55,.85,2.55,.85,0,0-2.01,.6-1.83,1.57,.18,1,2.93,.67,2.93,.67,0,0-1.34,.69-.83,1.29,.5,.6,6.34,0,7.89-1.32,1.56-1.33,.56-8.8-.04-10.37-.19-.5-.7-1.33-3.6-1.67l-.52,1.96-.16,.08Z" style="fill:#b97964;"></path><path d="M239.72,249.33h.01l4.29-1.32c.06-.02,.09-.09,.07-.15-.02-.07-.08-.1-.14-.09l-4.29,1.31c-.06,.02-.09,.09-.07,.15,.02,.06,.07,.1,.13,.09Z" style="opacity:.2;"></path><path d="M240.03,251.88h0l4.22-.93c.06-.01,.09-.08,.08-.14-.01-.07-.06-.1-.13-.1l-4.22,.93c-.06,.01-.09,.08-.08,.14,.01,.07,.07,.11,.13,.1Z" style="opacity:.2;"></path><path d="M241.15,254.11l3.15-.6c.06-.01,.1-.08,.08-.14-.01-.07-.07-.11-.13-.1l-3.15,.6c-.06,.01-.1,.07-.08,.14,.01,.07,.07,.11,.13,.1Z" style="opacity:.2;"></path></g><g><path d="M152.64,229.77c-.33-.36-17.93,12.26-18.22,12.86-1.07,2.21,17.54,14.49,17.54,14.49l-1.82,6.22s-10.69-2.79-20.18-9.72c-9.79-7.16-9.16-14.07-3.41-19.8,5.26-5.26,20.31-15.76,20.31-15.76l5.77,11.72Z" style="fill:#b97964;"></path><path d="M134.43,242.64s-1.67-1.9-4.56-2.25c0,0,.87-.74,2.97-.1,1.28,.39,2.58,1.49,2.58,1.49l-1,.85Z" style="opacity:.3;"></path></g><path d="M154.01,214.94c-4.2-1.06-14.67,7.64-14.67,7.64l5.83,13.23s11.62-5,13.49-10.25c1.56-4.44,.68-9.28-4.65-10.62Z" style="fill:#7E57C2;"></path><g style="opacity:.7;"><path d="M154.01,214.94c-4.2-1.06-14.67,7.64-14.67,7.64l5.83,13.23s11.62-5,13.49-10.25c1.56-4.44,.68-9.28-4.65-10.62Z" style="fill:#fff;"></path></g><g><g><g><g><path d="M221.48,182.56s-2.43-5.08-2.25-15.29c0-.01-.56-.1-.56-.11,.02-1.43,.09-2.76,.18-3.92,0-.03,0-.04,0-.04l-10.78,11.51c1.12,2.94,1.62,9.09,1.64,11.73,0,0-.42,4.92,5.58,3.5,4.39-1.03,6.19-7.38,6.19-7.38Z" style="fill:#ebb373;"></path><path d="M209,179.02l7-3.7c-.05,2.5-1.36,5.8-6.48,7.43,0,0-.18-2.73-.52-3.73Z" style="opacity:.2;"></path></g><g><path d="M191.51,154.28c-.71,3.41,2.08,10.61,6.48,7.95,4.4-2.66-5.26-13.81-6.48-7.95Z" style="fill:#263238;"></path><path d="M217.25,156.88c1.35,8.45,2.28,13.18-.99,18.36-4.92,7.79-15.81,6.32-19.66-1.58-3.47-7.11-5.09-19.72,2.35-24.79,7.34-4.99,16.95-.44,18.3,8.01Z" style="fill:#ebb373;"></path><path d="M218.19,144.73c-4.77-6.36-15.81,.08-18.5,3.14-.4,.46,7.18,2.36,6.73,2.3l3.46,.39c.47-.22,1.57,.14,2.42,1.56,0,0,.75,9.09,5.19,11.98,3.25-2.48,3.44-3.92,3.68-7.14,.36-4.8-.63-9.23-2.97-12.25Z" style="fill:#263238;"></path><path d="M222.09,163.09c-.19,2.29-1.42,4.28-2.89,5.47-2.21,1.79-4.47,.08-4.82-2.6-.32-2.41,.45-6.25,3.14-6.99,2.64-.74,4.79,1.5,4.57,4.12Z" style="fill:#ebb373;"></path><path d="M205.86,161.94c.19,.85-.11,1.64-.67,1.76-.56,.12-1.17-.48-1.36-1.33-.19-.85,.11-1.64,.67-1.76,.56-.12,1.17,.48,1.36,1.33Z" style="fill:#263238;"></path><path d="M197.54,163.98c.19,.85-.11,1.64-.67,1.76-.56,.12-1.17-.48-1.36-1.33-.19-.85,.11-1.64,.67-1.76,.56-.12,1.17,.48,1.36,1.33Z" style="fill:#263238;"></path><path d="M200.15,162.9s-1.75,4.84-2.23,6.76c1.43,.81,3.36-.14,3.36-.14l-1.13-6.61Z" style="fill:#e4873e;"></path><path d="M207.05,157.46c-.12,.08-.27,.1-.41,.03-1.65-.78-2.95-.02-2.97-.01-.19,.12-.45,.06-.56-.14-.12-.19-.06-.44,.14-.56,.07-.04,1.69-1,3.75-.03,.2,.1,.29,.34,.2,.54-.03,.07-.08,.12-.13,.16Z" style="fill:#263238;"></path></g><path d="M216.42,164.8c-.13,0-.23-.1-.25-.22-.08-.78,.04-1.57,.35-2.29,.21-.49,.62-1.14,1.31-1.48,.68-.34,1.51-.25,2.01,.22,.1,.1,.1,.25,0,.35-.1,.1-.25,.1-.35,0-.34-.32-.95-.38-1.44-.14-.56,.28-.89,.83-1.07,1.24-.28,.64-.39,1.34-.32,2.04,.01,.14-.08,.26-.22,.28h-.03Z" style="opacity:.2;"></path></g><path d="M193.04,161.2c-.08,0-.16-.02-.23-.07-.19-.12-.25-.38-.12-.57,1.22-1.89,3.1-1.9,3.19-1.91,.23,0,.41,.18,.41,.41,0,.23-.18,.41-.4,.41-.08,0-1.53,.02-2.51,1.54-.08,.12-.21,.18-.34,.18Z" style="fill:#263238;"></path></g><path d="M211.83,144.66c-2.31-3-6.27-4.3-9.52-3.12-2.06,.75-3.73,2.34-5.56,3.6-1.83,1.26-4.05,2.21-6.19,1.49-1.05-.35-2.29-1.06-3.1-.31-.54,.51-.54,1.49-.2,2.22,.34,.73,.94,1.26,1.53,1.78-.84,.19-1.68,.38-2.52,.57,1.09,2.49,3.4,4.17,5.8,4.86,2.4,.69,4.89,.51,7.3,.11,2.88-.47,5.75-1.26,8.19-2.93,2.44-1.67,4.41-4.32,4.9-7.5l-.64-.76Z" style="fill:#263238;"></path><path d="M207.45,140.66c-1.55-.81-3.45-.94-5.1-.36-1.52,.54-2.78,1.62-4.17,2.46-1.38,.83-3.09,1.43-4.6,.85-.82-.31-1.82-.91-2.45-.3-.48,.47-.26,1.28,.11,1.83,.93,1.36,2.69,2.09,4.31,1.79l15.12-2.3c-.47-1.69-1.66-3.16-3.22-3.97Z" style="fill:#263238;"></path></g><g><polygon points="220.93 182.34 226.14 187.03 217.45 197.57 204.88 186.98 208.61 181.51 216.46 188.07 220.93 182.34" style="fill:#7E57C2;"></polygon><polygon points="220.93 182.34 226.14 187.03 217.45 197.57 204.88 186.98 208.61 181.51 216.46 188.07 220.93 182.34" style="fill:#fff; opacity:.8;"></polygon></g><path d="M244.39,241.95l-2.27-37.32s4.03,14.75,4.03,23.08-1.75,14.24-1.75,14.24Z" style="isolation:isolate; opacity:.2;"></path><path d="M204.54,172.35c-.11,0-.21-.07-.24-.18-.04-.13,.04-.27,.17-.31,1.47-.43,2.63-1.73,2.89-3.24,.02-.14,.15-.23,.29-.2,.14,.02,.23,.15,.2,.29-.29,1.69-1.59,3.15-3.24,3.64-.02,0-.05,0-.07,0Z" style="fill:#263238;"></path></g></g></svg>
