<svg xmlns="http://www.w3.org/2000/svg" viewBox="0 0 750 500"><g id="freepik--background-complete--inject-6"><circle cx="126.73" cy="360.02" r="19.23" transform="translate(-156.1 103.73) rotate(-28.43)" style="fill:#ebebeb"></circle><path d="M145.13,365.61a22.44,22.44,0,0,0-6-3.74c-3.81-1.68-14.18-3.52-19-5.94-6.75-3.41-7.59-7.08-7.55-9a19.19,19.19,0,0,1,5.93-4.34c.48,1.94,2.29,8,13.5,12,5.79,2,11.33.68,13.21.22A19.13,19.13,0,0,1,145.13,365.61Z" style="fill:#dbdbdb"></path><path d="M137.28,376.1a19.26,19.26,0,0,1-24.11-2.43,15.3,15.3,0,0,1,3.45-1.37c5.17-1.26,10.87,1.22,12.94,2.38A11.3,11.3,0,0,0,137.28,376.1Z" style="fill:#dbdbdb"></path><path d="M144,368.5l-.24.47-.22.42c-.18.31-.36.62-.55.92s-.35.54-.53.79l-.21.29-.24.32-.24.32c-.1.12-.2.25-.31.37s-.2.24-.3.35l-.27.3c-.2.22-.41.44-.62.64h0c-1.2.37-2.8.21-5.15-.71-3.49-1.37-7.26-4.67-14-7.1a24.12,24.12,0,0,0-12.93-.83h0a19.14,19.14,0,0,1,.5-11.62c1.23-.05,5.18.51,13.61,7.47a49.32,49.32,0,0,0,8.49,5.81c7.2,3.77,11.36,2.65,13.1,1.78H144Z" style="fill:#dbdbdb"></path><path d="M125.71,375.74c.34-.79,1.54-1,2.68-.52s1.79,1.53,1.44,2.31-1.54,1-2.68.52S125.37,376.52,125.71,375.74Z" style="fill:#c7c7c7"></path><path d="M131.15,374.37c.2-.44.91-.56,1.59-.26s1.08.89.89,1.34-.9.55-1.59.26S131,374.81,131.15,374.37Z" style="fill:#c7c7c7"></path><path d="M116.24,350.75c.29-.67,1.33-.86,2.33-.43s1.57,1.33,1.28,2-1.34.86-2.34.42S116,351.42,116.24,350.75Z" style="fill:#c7c7c7"></path><path d="M119.78,350.08a1,1,0,1,1,.57,1A.84.84,0,0,1,119.78,350.08Z" style="fill:#c7c7c7"></path><path d="M120.35,351.86a.53.53,0,0,1,.71-.15c.3.13.47.41.37.63a.62.62,0,0,1-1.08-.48Z" style="fill:#c7c7c7"></path><path d="M132.35,351.91a1.64,1.64,0,1,1,1,1.72A1.43,1.43,0,0,1,132.35,351.91Z" style="fill:#c7c7c7"></path><path d="M131.89,354.53a.76.76,0,0,1,1.39.61.76.76,0,0,1-1.39-.61Z" style="fill:#c7c7c7"></path><circle cx="629.58" cy="208.87" r="12.93" style="fill:#ebebeb"></circle><path d="M634.28,201.19a2.87,2.87,0,0,1-.48,1.76,3.5,3.5,0,0,1-1.4,1.24,2.51,2.51,0,0,1-1.9.16,2.66,2.66,0,0,1-1.45-1.11,3.82,3.82,0,0,0,1.55.69,2.39,2.39,0,0,0,.8,0,2.29,2.29,0,0,0,.75-.25l.36-.19c.11-.08.23-.15.34-.24a3.53,3.53,0,0,0,.6-.56A4.46,4.46,0,0,0,634.28,201.19Z" style="fill:#c7c7c7"></path><path d="M629.63,201.94a1.89,1.89,0,0,1,.27-1.24,2.32,2.32,0,0,1,1-.88,1.73,1.73,0,0,1,2.31.72,3,3,0,0,0-1.07-.39,1.82,1.82,0,0,0-1,.17A3.09,3.09,0,0,0,629.63,201.94Z" style="fill:#c7c7c7"></path><path d="M629.57,215a1.73,1.73,0,0,1,0,1.23,2.2,2.2,0,0,1-.75,1,1.71,1.71,0,0,1-2.36-.26,3.18,3.18,0,0,0,1.11.16,1.68,1.68,0,0,0,.91-.35,2.79,2.79,0,0,0,.68-.77A3,3,0,0,0,629.57,215Z" style="fill:#c7c7c7"></path><path d="M626.9,216.42a1.14,1.14,0,0,1-.09-.87,1.43,1.43,0,0,1,.52-.76,1.14,1.14,0,0,1,.92-.23,1.12,1.12,0,0,1,.74.48,2.53,2.53,0,0,0-.76,0,1.23,1.23,0,0,0-.56.24A2.17,2.17,0,0,0,626.9,216.42Z" style="fill:#c7c7c7"></path><path d="M624.91,203.31a1.13,1.13,0,0,1,.37.83,1.29,1.29,0,0,1-.36.92,1.16,1.16,0,0,1-.95.32,1.32,1.32,0,0,1-.81-.39,4,4,0,0,0,.8-.05,1,1,0,0,0,.55-.28,1.27,1.27,0,0,0,.33-.56A2.2,2.2,0,0,0,624.91,203.31Z" style="fill:#c7c7c7"></path><path d="M623.31,204.57A.75.75,0,0,1,623,204a.83.83,0,0,1,.26-.67.8.8,0,0,1,.7-.23.85.85,0,0,1,.56.33,4.43,4.43,0,0,0-.55.11.75.75,0,0,0-.31.18,1.12,1.12,0,0,0-.22.33A2.09,2.09,0,0,0,623.31,204.57Z" style="fill:#c7c7c7"></path><path d="M633.9,216.94a1.2,1.2,0,0,1-.71.57,1.3,1.3,0,0,1-1-.14,1.12,1.12,0,0,1-.55-.84,1.41,1.41,0,0,1,.18-.88,5.37,5.37,0,0,0,.25.77,1.06,1.06,0,0,0,.41.47,1.4,1.4,0,0,0,.62.18A2.28,2.28,0,0,0,633.9,216.94Z" style="fill:#c7c7c7"></path><path d="M632.29,215.7a.7.7,0,0,1,.48-.45.87.87,0,0,1,.72.08.78.78,0,0,1,.39.63.81.81,0,0,1-.19.62,3.37,3.37,0,0,0-.24-.5.66.66,0,0,0-.25-.27,1.15,1.15,0,0,0-.37-.13A2,2,0,0,0,632.29,215.7Z" style="fill:#c7c7c7"></path><path d="M638.33,207.84a1.14,1.14,0,0,1-.27.87,1.29,1.29,0,0,1-.88.44,1.15,1.15,0,0,1-.93-.39,1.4,1.4,0,0,1-.35-.83,4.21,4.21,0,0,0,.64.49,1,1,0,0,0,.6.17,1.35,1.35,0,0,0,.62-.21A2.38,2.38,0,0,0,638.33,207.84Z" style="fill:#c7c7c7"></path><path d="M636.3,207.72a.75.75,0,0,1,.14-.64.86.86,0,0,1,.64-.34.84.84,0,0,1,.87.92,2.79,2.79,0,0,0-.48-.28.61.61,0,0,0-.35-.08,1.13,1.13,0,0,0-.38.1A1.86,1.86,0,0,0,636.3,207.72Z" style="fill:#c7c7c7"></path><path d="M621.2,210.77a1.15,1.15,0,0,1-.28.87,1.25,1.25,0,0,1-.88.44,1.14,1.14,0,0,1-.92-.39,1.34,1.34,0,0,1-.35-.83,4.21,4.21,0,0,0,.64.49,1,1,0,0,0,.6.17,1.28,1.28,0,0,0,.61-.21A2.23,2.23,0,0,0,621.2,210.77Z" style="fill:#c7c7c7"></path><path d="M619.17,210.65a.72.72,0,0,1,.14-.64.84.84,0,0,1,.64-.34.8.8,0,0,1,.68.3.88.88,0,0,1,.19.62,3.83,3.83,0,0,0-.48-.28.63.63,0,0,0-.35-.08,1.07,1.07,0,0,0-.38.1A1.86,1.86,0,0,0,619.17,210.65Z" style="fill:#c7c7c7"></path><path d="M222.88,83l3.3-3.29a2.43,2.43,0,0,0,0-3.42h0a2.43,2.43,0,0,0-3.42,0l-3.3,3.3a2.41,2.41,0,0,0,0,3.41h0A2.41,2.41,0,0,0,222.88,83Z" style="fill:#ebebeb"></path><path d="M267.89,115.66l2.1-4.16a2.42,2.42,0,0,0-1.08-3.25h0a2.42,2.42,0,0,0-3.24,1.08l-2.09,4.16a2.42,2.42,0,0,0,1.07,3.25h0A2.4,2.4,0,0,0,267.89,115.66Z" style="fill:#ebebeb"></path><path d="M239,73.69l2.48-.36a2.41,2.41,0,0,0,2-2.73h0a2.42,2.42,0,0,0-2.74-2l-2.47.35a2.42,2.42,0,0,0-2.05,2.74h0A2.41,2.41,0,0,0,239,73.69Z" style="fill:#ebebeb"></path><path d="M219.37,106.39l-.35-2.48a2.42,2.42,0,0,0-2.74-2h0a2.42,2.42,0,0,0-2.05,2.74l.36,2.48a2.41,2.41,0,0,0,2.73,2h0A2.42,2.42,0,0,0,219.37,106.39Z" style="fill:#ebebeb"></path><rect x="266.43" y="97.5" width="7.34" height="4.83" rx="2.16" transform="translate(370.02 -170.18) rotate(90)" style="fill:#ebebeb"></rect><path d="M234.55,127.4l2.42.65a2.42,2.42,0,0,0,3-1.71h0a2.41,2.41,0,0,0-1.71-3l-2.42-.65a2.42,2.42,0,0,0-3,1.71h0A2.42,2.42,0,0,0,234.55,127.4Z" style="fill:#ebebeb"></path><circle cx="242.93" cy="98.87" r="27.88" style="fill:#ebebeb"></circle><path d="M253.07,82.33a6.33,6.33,0,0,1-1,3.79,7.52,7.52,0,0,1-3,2.67,5.51,5.51,0,0,1-4.1.35,5.8,5.8,0,0,1-3.12-2.4,8.38,8.38,0,0,0,3.35,1.48,4.91,4.91,0,0,0,1.71,0,5.29,5.29,0,0,0,1.62-.52q.41-.2.78-.42c.25-.17.5-.32.73-.51a7.78,7.78,0,0,0,1.29-1.21A9.53,9.53,0,0,0,253.07,82.33Z" style="fill:#c7c7c7"></path><path d="M243.05,83.94a4,4,0,0,1,.58-2.67,5,5,0,0,1,2.1-1.91,3.8,3.8,0,0,1,2.9-.21,3.71,3.71,0,0,1,2.09,1.78,6.29,6.29,0,0,0-2.31-.86,3.8,3.8,0,0,0-2.15.39A6.55,6.55,0,0,0,243.05,83.94Z" style="fill:#c7c7c7"></path><path d="M233.6,103.09a3.77,3.77,0,0,1,.08,2.65,4.64,4.64,0,0,1-1.62,2.26,3.67,3.67,0,0,1-2.74.74,3.75,3.75,0,0,1-2.34-1.29,6.62,6.62,0,0,0,2.38.34,3.59,3.59,0,0,0,2-.76,5.78,5.78,0,0,0,1.49-1.66A7.07,7.07,0,0,0,233.6,103.09Z" style="fill:#c7c7c7"></path><path d="M227.83,106.25a2.46,2.46,0,0,1-.19-1.87,3.15,3.15,0,0,1,1.12-1.63,2.53,2.53,0,0,1,2-.5,2.38,2.38,0,0,1,1.58,1,5.41,5.41,0,0,0-1.63-.07,2.59,2.59,0,0,0-1.21.52A4.71,4.71,0,0,0,227.83,106.25Z" style="fill:#c7c7c7"></path><path d="M223.61,96.88a2.47,2.47,0,0,1,.79,1.79,2.71,2.71,0,0,1-.79,2,2.43,2.43,0,0,1-2,.7,2.84,2.84,0,0,1-1.75-.84,9.21,9.21,0,0,0,1.73-.12,2.18,2.18,0,0,0,1.2-.6,2.8,2.8,0,0,0,.7-1.21A5.23,5.23,0,0,0,223.61,96.88Z" style="fill:#c7c7c7"></path><path d="M220.15,99.59a1.6,1.6,0,0,1-.69-1.24,1.89,1.89,0,0,1,.55-1.46,1.73,1.73,0,0,1,1.52-.49,1.83,1.83,0,0,1,1.2.72,8.1,8.1,0,0,0-1.18.24,1.43,1.43,0,0,0-.67.39,2,2,0,0,0-.47.7A4.28,4.28,0,0,0,220.15,99.59Z" style="fill:#c7c7c7"></path><path d="M261.81,88.62a2.53,2.53,0,0,1-.6,1.87,2.75,2.75,0,0,1-1.9,1,2.45,2.45,0,0,1-2-.84,2.87,2.87,0,0,1-.75-1.79,9.91,9.91,0,0,0,1.37,1.07,2.16,2.16,0,0,0,1.3.34,2.9,2.9,0,0,0,1.33-.43A5.37,5.37,0,0,0,261.81,88.62Z" style="fill:#c7c7c7"></path><path d="M257.43,88.35a1.59,1.59,0,0,1,.3-1.38,1.91,1.91,0,0,1,1.38-.73,1.76,1.76,0,0,1,1.47.65,1.81,1.81,0,0,1,.41,1.33,8.81,8.81,0,0,0-1-.6,1.48,1.48,0,0,0-.77-.16,2.16,2.16,0,0,0-.82.21A4.35,4.35,0,0,0,257.43,88.35Z" style="fill:#c7c7c7"></path><path d="M246.18,107.56a6.18,6.18,0,1,0-3.1-8.14A6.14,6.14,0,0,0,246.18,107.56Z" style="fill:#dbdbdb"></path><path d="M251.58,99a5.55,5.55,0,0,1,3.18,3.93,6.15,6.15,0,1,0-10.75,3,5.54,5.54,0,0,1,.19-4.07A5.59,5.59,0,0,1,251.58,99Z" style="fill:#c7c7c7"></path><path d="M257.21,103a7.94,7.94,0,0,1-1.36,4.61,9.45,9.45,0,0,1-3.71,3.24,6.86,6.86,0,0,1-5,.45,7.35,7.35,0,0,1-3.88-2.85,8.42,8.42,0,0,0,5.19,2,5.46,5.46,0,0,0,1.07-.09,6.54,6.54,0,0,0,2-.65c.33-.16.66-.34,1-.53s.62-.4.9-.64a10.13,10.13,0,0,0,1.61-1.53A11.37,11.37,0,0,0,257.21,103Z" style="fill:#c7c7c7"></path><path d="M264,105.3a2.3,2.3,0,1,0-1.71-2.76A2.28,2.28,0,0,0,264,105.3Z" style="fill:#dbdbdb"></path><path d="M265.33,101.79a2.06,2.06,0,0,1,1.44,1.21,2.29,2.29,0,1,0-3.72,1.86,2.09,2.09,0,0,1,2.28-3.07Z" style="fill:#c7c7c7"></path><path d="M267.67,102.83a2.89,2.89,0,0,1-.11,1.81,3.49,3.49,0,0,1-1.14,1.49,2.59,2.59,0,0,1-1.84.52,2.7,2.7,0,0,1-1.62-.83,4,4,0,0,0,1.65.35,2.45,2.45,0,0,0,1.44-.53A4.13,4.13,0,0,0,267.67,102.83Z" style="fill:#c7c7c7"></path><path d="M248.15,120.22a3.27,3.27,0,1,0-3.08-3.44A3.26,3.26,0,0,0,248.15,120.22Z" style="fill:#dbdbdb"></path><path d="M249.2,115a3,3,0,0,1,2.32,1.34,3.26,3.26,0,1,0-4.76,3.52A3,3,0,0,1,249.2,115Z" style="fill:#c7c7c7"></path><path d="M252.74,115.85a4.38,4.38,0,0,1,.18,2.54,5,5,0,0,1-1.22,2.3,3.58,3.58,0,0,1-2.36,1.16,3.89,3.89,0,0,1-2.46-.66,5.2,5.2,0,0,0,2.4.19,3.52,3.52,0,0,0,2-1.11,5.31,5.31,0,0,0,1.21-2A5.86,5.86,0,0,0,252.74,115.85Z" style="fill:#c7c7c7"></path><path d="M233.56,88.64c-1.47,2.26-4.73,2.74-7.28,1.07s-3.42-4.84-1.95-7.1,4.74-2.73,7.29-1.06S235,86.39,233.56,88.64Z" style="fill:#dbdbdb"></path><path d="M225.46,84.73a4.23,4.23,0,0,0-.24,4.11,5,5,0,0,1-.89-6.23c1.48-2.25,4.74-2.73,7.29-1.07a5.61,5.61,0,0,1,2.64,5,5.36,5.36,0,0,0-2.2-2.84A4.73,4.73,0,0,0,225.46,84.73Z" style="fill:#c7c7c7"></path><path d="M235.36,84.92a5.26,5.26,0,0,1,.72,4,5.06,5.06,0,0,1-.91,1.95,6.09,6.09,0,0,1-1.6,1.47,5.85,5.85,0,0,1-2,.69,6.47,6.47,0,0,1-2.11-.06,8.57,8.57,0,0,1-3.69-1.6,17.12,17.12,0,0,0,3.8.66,6.26,6.26,0,0,0,3.43-.74,5.47,5.47,0,0,0,1.32-1.14,4.65,4.65,0,0,0,.9-1.5A6.9,6.9,0,0,0,235.36,84.92Z" style="fill:#c7c7c7"></path></g><g id="freepik--Stars--inject-6"><polygon points="614.38 400.9 620.1 401.96 621.38 407.99 622.65 401.96 628.37 400.9 622.68 399.51 621.38 393.81 620.07 399.51 614.38 400.9" style="fill:#c7c7c7"></polygon><polygon points="334.45 393.82 340.17 394.87 341.45 400.9 342.73 394.87 348.45 393.81 342.75 392.42 341.45 386.73 340.15 392.42 334.45 393.82" style="fill:#c7c7c7"></polygon><polygon points="532.36 102.65 538.08 103.71 539.36 109.74 540.64 103.71 546.36 102.65 540.66 101.26 539.36 95.56 538.06 101.26 532.36 102.65" style="fill:#c7c7c7"></polygon><polygon points="103.34 312.8 106.54 313.39 107.25 316.76 107.97 313.39 111.17 312.8 107.98 312.02 107.25 308.84 106.53 312.02 103.34 312.8" style="fill:#c7c7c7"></polygon><polygon points="201.13 409.52 204.33 410.11 205.04 413.48 205.75 410.11 208.95 409.52 205.77 408.74 205.04 405.56 204.31 408.74 201.13 409.52" style="fill:#c7c7c7"></polygon><polygon points="582.11 238.82 585.3 239.41 586.02 242.78 586.73 239.41 589.93 238.82 586.75 238.04 586.02 234.86 585.29 238.04 582.11 238.82" style="fill:#c7c7c7"></polygon><polygon points="528.2 170.42 531.39 171.01 532.11 174.38 532.82 171.01 536.02 170.41 532.84 169.64 532.11 166.45 531.38 169.64 528.2 170.42" style="fill:#c7c7c7"></polygon><polygon points="452.5 93.59 455.69 94.18 456.41 97.55 457.12 94.18 460.32 93.59 457.14 92.81 456.41 89.63 455.68 92.81 452.5 93.59" style="fill:#c7c7c7"></polygon><polygon points="650.78 234.86 653.98 235.45 654.69 238.82 655.41 235.45 658.6 234.86 655.42 234.08 654.69 230.9 653.96 234.08 650.78 234.86" style="fill:#c7c7c7"></polygon><polygon points="290.22 63.21 293.41 63.8 294.13 67.17 294.84 63.8 298.04 63.21 294.86 62.43 294.13 59.25 293.4 62.43 290.22 63.21" style="fill:#c7c7c7"></polygon><polygon points="486.17 389.37 489.36 389.96 490.08 393.33 490.79 389.96 493.99 389.37 490.81 388.59 490.08 385.41 489.35 388.59 486.17 389.37" style="fill:#c7c7c7"></polygon><path d="M571,200.74a.93.93,0,0,1,0,1.85A.93.93,0,0,1,571,200.74Z" style="fill:#c7c7c7"></path><path d="M690.09,261.83a.93.93,0,0,1,0,1.85A.93.93,0,0,1,690.09,261.83Z" style="fill:#c7c7c7"></path><path d="M150.57,174a.93.93,0,0,1,0,1.86A.93.93,0,0,1,150.57,174Z" style="fill:#c7c7c7"></path><path d="M251.62,359.8a.93.93,0,0,1,0,1.85A.93.93,0,0,1,251.62,359.8Z" style="fill:#c7c7c7"></path><path d="M167.77,392.68a.66.66,0,0,1,0,1.31A.66.66,0,0,1,167.77,392.68Z" style="fill:#c7c7c7"></path><path d="M203.7,79.68a.66.66,0,0,1,0,1.31A.66.66,0,0,1,203.7,79.68Z" style="fill:#c7c7c7"></path><path d="M618.45,197a.66.66,0,0,1,0,1.31A.66.66,0,0,1,618.45,197Z" style="fill:#c7c7c7"></path><path d="M87.54,162.3a1.78,1.78,0,0,1,0,3.55A1.78,1.78,0,0,1,87.54,162.3Z" style="fill:#c7c7c7"></path><polygon points="235.54 165.86 241.26 166.91 242.54 172.94 243.81 166.91 249.53 165.85 243.84 164.46 242.54 158.77 241.23 164.46 235.54 165.86" style="fill:#c7c7c7"></polygon><polygon points="365.16 46.84 368.36 47.43 369.07 50.8 369.79 47.43 372.98 46.84 369.8 46.06 369.07 42.88 368.35 46.06 365.16 46.84" style="fill:#c7c7c7"></polygon><path d="M171.39,133.33a.93.93,0,0,1,0,1.85A.93.93,0,0,1,171.39,133.33Z" style="fill:#c7c7c7"></path><path d="M85.8,397.57a.93.93,0,0,1,0,1.85A.93.93,0,0,1,85.8,397.57Z" style="fill:#c7c7c7"></path><path d="M377.6,414.93a.93.93,0,0,1,0,1.86A.93.93,0,0,1,377.6,414.93Z" style="fill:#c7c7c7"></path><path d="M213.31,184.74a.66.66,0,0,1,0,1.31A.66.66,0,0,1,213.31,184.74Z" style="fill:#c7c7c7"></path><path d="M283.08,437.42a.66.66,0,0,1,0,1.31A.66.66,0,0,1,283.08,437.42Z" style="fill:#c7c7c7"></path><path d="M590,119a.66.66,0,0,1,0,1.31A.66.66,0,0,1,590,119Z" style="fill:#c7c7c7"></path><path d="M362.17,78.9a.66.66,0,0,1,0,1.31A.66.66,0,0,1,362.17,78.9Z" style="fill:#c7c7c7"></path><path d="M271.27,139.9a1.78,1.78,0,0,1,0,3.55A1.78,1.78,0,0,1,271.27,139.9Z" style="fill:#c7c7c7"></path><path d="M666.24,177.4a1.78,1.78,0,0,1,0,3.55A1.78,1.78,0,0,1,666.24,177.4Z" style="fill:#c7c7c7"></path><path d="M93.18,351.62a1.78,1.78,0,0,1,0,3.56A1.78,1.78,0,0,1,93.18,351.62Z" style="fill:#c7c7c7"></path><polygon points="628.62 162.3 631.81 162.89 632.53 166.26 633.24 162.89 636.44 162.3 633.26 161.52 632.53 158.34 631.8 161.52 628.62 162.3" style="fill:#c7c7c7"></polygon><polygon points="519.87 425.95 523.06 426.55 523.78 429.92 524.49 426.55 527.69 425.95 524.5 425.18 523.78 421.99 523.05 425.18 519.87 425.95" style="fill:#c7c7c7"></polygon><path d="M460.32,415.13a.93.93,0,0,1,0,1.85A.93.93,0,0,1,460.32,415.13Z" style="fill:#c7c7c7"></path><path d="M632.53,388.89a.93.93,0,0,1,0,1.86A.93.93,0,0,1,632.53,388.89Z" style="fill:#c7c7c7"></path><polygon points="59.01 226.84 62.21 227.43 62.92 230.8 63.64 227.43 66.83 226.83 63.65 226.06 62.92 222.87 62.19 226.06 59.01 226.84" style="fill:#c7c7c7"></polygon><path d="M478,103.93a.93.93,0,0,1,0,1.85A.93.93,0,0,1,478,103.93Z" style="fill:#c7c7c7"></path><path d="M527.69,103.35a.66.66,0,0,1,0,1.31A.66.66,0,0,1,527.69,103.35Z" style="fill:#c7c7c7"></path><polygon points="140.28 107.48 143.47 108.07 144.19 111.44 144.9 108.07 148.1 107.48 144.91 106.7 144.19 103.52 143.46 106.7 140.28 107.48" style="fill:#c7c7c7"></polygon><path d="M85.8,290.56a.93.93,0,0,1,0,1.86A.93.93,0,0,1,85.8,290.56Z" style="fill:#c7c7c7"></path><path d="M312.28,234a.93.93,0,0,1,0,1.85A.93.93,0,0,1,312.28,234Z" style="fill:#c7c7c7"></path><path d="M203.7,140.42a.66.66,0,0,1,0,1.31A.66.66,0,0,1,203.7,140.42Z" style="fill:#c7c7c7"></path><path d="M195.31,134.39a1.78,1.78,0,0,1,0,3.56A1.78,1.78,0,0,1,195.31,134.39Z" style="fill:#c7c7c7"></path><path d="M430.94,413.35a1.78,1.78,0,0,1,0,3.56A1.78,1.78,0,0,1,430.94,413.35Z" style="fill:#c7c7c7"></path></g><g id="freepik--World--inject-6"><path d="M507.5,249.82a131.84,131.84,0,0,1-25.3,77.89v0A132.51,132.51,0,1,1,375,117.32c3.63,0,7.24.14,10.8.43a131.59,131.59,0,0,1,58,18.79A132.45,132.45,0,0,1,507.5,249.82Z" style="fill:#455a64"></path><g style="opacity:0.2"><path d="M403.61,312.36c-1.67,4.45,1.12,4.64,1.3,6.49s0,5.38-5.38,10.77-14.29,4.26-16.15,6.49-5,11.69-9.46,14.85-5.2,1.3-11.51,2.6-11.13,9.46-13,13.36.38,10.39-4.08,10.57-6.49-9.46-10.58-14.66-5.38-9.83-6.68-16,.74-18.92,0-23.94-14.1-13.91-18.93-20-11.5-18.37-11.13-22.45a16.58,16.58,0,0,1,5.57-10.21c2.22-1.67,1.3-2.6,1.67-4.08s2.22-1.86,2.59-3.71-1.11-7.43-3-8.35-3.16,2.22-4.27,1.67-4.46-4.46-5.76-4.83-.92,2.41-2.78-1.11-2.78-12.44-4.27-13.92-2.6,2.6-6.12,0-5-7.61-6.5-8.35-3.52.18-5.05-2.79,1.34-8.35,0-7.79-4.23,4.83-5,.74,3.71-17.81,3-25.24S270,177.26,275.19,171c0,0,.75-4.09,1.49-6.68s16.7-13,18.56-16c.77-1.24,1-3.19,1.31-5.28A131.84,131.84,0,0,1,375,117.32c3.63,0,7.24.14,10.8.43.12.17.24.33.37.49,1.61,2,3.34,3.34,8,5.08s5.81,4,4.83,5.81-2.6,2.23-4.46,2.35-3.59-.87-5.57.37-4,7.92-6.55,8.29-7.18-5.94-8.17-7.79,2.23-5.82.71-7.67-4.17-1.49-8.38-1.86-14,1.24-13.61,2.85,14.35-.25,14.72,3-10.26,8.65-12.12,8.16-4.33-3.71-7.05-4.08-4.95,1.85-6.66,2.1-3.73-1.85-6.33-1.36-3.22,2.72-4.58,3.59-4.58.86-4.95,2.84,4.08,3.1,5.2,4.33-1.36,5.45-.25,6.31,8-5.19,9.77-6.68,3.22-7.91,6.93-7.79,4.95,6.43,6.19,7.05,4-1.48,8-.62,6.93,9.78,7.67,12.5,2.47,5.44,1,6.56-8.17-.75-9-2.48,4.45-4.33,4.08-4.95-3.46-1.48-5.07-.51-2.35,3-4.08,3.48-6.31-4.7-7.55-3.22,1.24,6.19,2.47,7.3,5.82,1.73,6.19,3-3.09,4-7.3,3.72-7.67-3.47-9.28-2.11-.74,4.95-1.86,6.19-7.17.37-10.14,3.58-4.33,8-7.3,10.77-4.33-.75-8.29,3.09-4.57,12.37-4.7,15.34,0,5.32-1,4.95-2.35-3-2.72-4.58.87-4.33.87-5.32-5.7-6.06-9-6.55-6.31,2.22-8.78,4.2-6.93,1.61-8.54,3.22-2.84,15.84-1.61,19.18,2.85,3.34,6.81,1.6,1.73-5.07,4.08-4.33a5.53,5.53,0,0,1,3.59,5.2c0,2-4.7,6.68-4.08,8s4.7-.25,6.68.37,3,1.86,2.35,6.93-.25,9,2.72,10.7,4.64-2.41,5.94-1.85,3.15,3.52,5,3.34.93-1.86,4.45-3,2.23-1.86,3-4.08,3-4.09,5.38-3,.75,2.78.93,4.64,4.46,2,7.8,3.15,5.19,0,11.87,2.23,7.06,8.91,9.84,10,12.06-.74,18.74,4.08,4.83,13.73,8.17,16.33,15.77,6.13,20.6,7.05,5.56-2.41,9.46-1.48,6.13,2,7.42,7.42C419.79,298,405.28,307.9,403.61,312.36Z"></path><path d="M303.9,217.47c.12,1,3.21,1.48,6.92,3.58s5.08,8.29,7.06,8.17,1.36-3,2.1-3.71,2-2.35,0-4-3.91-5.07-7.52-5.57-4.23-2-5.84-1.86A2.8,2.8,0,0,0,303.9,217.47Z"></path><path d="M324.31,227.86c-.55,1.51,0,2.6,4,3.59s7.67-1,6.43-1.8-3.09-.43-2.35-1.79.49-3.34-2.72-3S324.8,226.5,324.31,227.86Z"></path><path d="M338.17,228.28c-1.35.19-2.11,2.55-.75,4s1.36,1.24,3,0,4.09-1.85,3.47-3.09S339.53,228.08,338.17,228.28Z"></path><path d="M348.93,233.33c.6-1.85,3.71,0,5.07,1.95s.74,4.83,0,6.93-1.24,4.58-3,3.59.13-4-.12-5.69S348.43,234.85,348.93,233.33Z"></path><path d="M402.25,130.12c-.65,1.55,2.35,2.1,4.08,3.09s3.1,1.61,4.09,0-.37-3.46-1.74-3.83S402.87,128.64,402.25,130.12Z"></path><path d="M425.63,144.6c1.15,1.2,3.1,1,4.46,2.72s.86,4.7,2.6,5.56,3,0,3.09-1.23-2.48-4.33-2.23-5,3.59.86,4.33,2.72-.74,4.45,1,5,1.36-1.73,2.11-2.23,2.35-.25,2.22-1.73-2.1-4.7-3.71-5.81-2.84-2.36-5.57-3-5.32-.13-6.68,1S424.93,143.85,425.63,144.6Z"></path><path d="M479.16,167.91a2.15,2.15,0,0,1-.7,1.3c-2.59,1.86-5.69-4.57-9.28-5.81s-5.19-5.81-5.93-4.82-.5,2.35-1.61,3.95-2.73,1.24-3.47,4.33,3.47,8.79,2.48,10.65-2.23,1.23-4.21,1.11-1.61,1.61-4.2.86-.38-4-4.46-7.79-5.45-4.58-4.57-6.31-.38-4.21,1.48-4.45,3.34,2.47,4.57,3.21,2.85-1.48,3-3.46-4.33-4.7-5.93-6.24-1.74-7.12-1.12-8.24,2.48-.74,3-3.46c.29-1.6-2.24-4.27-4.38-6.2A133,133,0,0,1,479.16,167.91Z"></path><path d="M497.64,278.83c.37-4-1.61-4.21.37-11.51s-2.1-15.09-3.59-16.7-4.7-1.11-7.3.5-.74,2.84-2.47,3.46-3.47-.37-5.07-.25-3.1,4.21-6.56,4.09-5.69-5.08-8.29-8.6-7.92-5.76-9.65-10.09,1.61-11,.87-16.08-4.09-4-4.71-6.8.5-1.49,1.36-4.21-1-4.21.75-8.91,4.82-7,4.08-9.15-3.09-5.57-3.22-8,2.35-2.35,7.05-5.82,5.94-3.21,9.53-2a50.92,50.92,0,0,0,7.92,2.23c2.1.37,5,5.81,5.81,5.57s1-1.86,1.37-4.21a5.17,5.17,0,0,1,1.54-2.66,132.59,132.59,0,0,1-5.23,148C494.82,308.45,497.27,282.79,497.64,278.83Z"></path></g><path d="M477.65,333.6A132.51,132.51,0,1,1,375,117.32c3.64,0,7.23.14,10.8.43,1,.07,2,.17,2.95.27a121.42,121.42,0,1,0,88.9,215.58Z" style="opacity:0.1"></path><path d="M507.5,249.82a131.84,131.84,0,0,1-25.3,77.89s0,0,0,0a133.16,133.16,0,0,1-47.59,40.46,134,134,0,0,0,41.79-37.44v0a133.29,133.29,0,0,0,5.26-148.9A128.27,128.27,0,0,0,473.34,170a133.71,133.71,0,0,0-35.59-31.55,132.35,132.35,0,0,0-58.31-18.9c-3.58-.29-7.21-.44-10.86-.44a133.46,133.46,0,0,0-32,3.87A132.4,132.4,0,0,1,375,117.32c3.64,0,7.23.14,10.8.43a131.71,131.71,0,0,1,58,18.79,133,133,0,0,1,35.39,31.37,132.11,132.11,0,0,1,28.34,81.91Z" style="fill:#fff;opacity:0.30000000000000004"></path></g><g id="freepik--Character--inject-6"><rect x="328.55" y="200.06" width="4.44" height="31.3" transform="translate(-47.06 100.87) rotate(-16.2)" style="fill:#263238"></rect><path d="M431.77,233.74s3.92-6.77,4.36-8.05-1.11-6.1-1.11-6.1,7-14.53,6.47-17.58c-.16-.85-10.4-3.74-12.07-2.53s-10.63,15.41-11.51,16.36-9.46,14.66-9.46,14.66Z" style="fill:#263238"></path><path d="M409.13,209.12c-16.06,10.8-29.52,16.67-35.43,16.24-5.17-.37-20.35-3.34-28.51-8.35-2.45-1.51,3.88-16.81,6.93-16.36S371,206,375,206.5c2.25.29,25.31-3.8,30.53-4.84C414.27,199.94,416.26,204.33,409.13,209.12Z" style="fill:#f7a9a0"></path><path d="M334.15,210.12c.85.84.42,1.29-1.7,1s-10.27-3-11-.09,10.85,6.67,14.4,6.81a56.11,56.11,0,0,0,9.34-.88C343.09,215.83,338.25,212.48,334.15,210.12Z" style="fill:#FF81AE"></path><path d="M334.15,210.12c.85.84.42,1.29-1.7,1s-10.27-3-11-.09,10.85,6.67,14.4,6.81a56.11,56.11,0,0,0,9.34-.88C343.09,215.83,338.25,212.48,334.15,210.12Z" style="opacity:0.2"></path><path d="M352.12,200.65c-6.05-3.11-13.39-7.34-21.06-6.89a3.81,3.81,0,0,0-2.32.89c-3.44.14-4.4,1.8-4.4,1.8-3.16,1.11-3.92,3-3.92,3s-4,.21-4.31,2.67c-.32,2.75,5.4,1.92,8.83,3.39,7.86,3.37,18.09,10.35,20.25,11.55Z" style="fill:#FF81AE"></path><path d="M352.12,200.65c-6.05-3.11-13.39-7.34-21.06-6.89a3.81,3.81,0,0,0-2.32.89c-3.44.14-4.4,1.8-4.4,1.8-3.16,1.11-3.92,3-3.92,3s-4,.21-4.31,2.67c-.32,2.75,5.4,1.92,8.83,3.39,7.86,3.37,18.09,10.35,20.25,11.55Z" style="opacity:0.2"></path><path d="M335.66,203.2a55.44,55.44,0,0,0-7.05-2.55,54.18,54.18,0,0,0-8.13-1.18.07.07,0,0,1,0-.13,29.06,29.06,0,0,1,15.21,3.76C335.81,203.16,335.77,203.25,335.66,203.2Z" style="fill:#263238"></path><path d="M338.38,198.76a40.51,40.51,0,0,0-14-2.23s0,0,0,0a26.13,26.13,0,0,1,14.09,2.16C338.56,198.71,338.53,198.81,338.38,198.76Z" style="fill:#263238"></path><path d="M339.8,196.34a40.75,40.75,0,0,0-11-1.67,0,0,0,0,1,0,0c5-.26,6.83.2,11.1,1.59C340,196.26,340,196.39,339.8,196.34Z" style="fill:#263238"></path><path d="M352.12,200.65,345.19,217a10.58,10.58,0,0,0,3.93,4.38c2.84,1.75,22.74,5.37,28.42,4.24s26.56-11.48,33.61-17.2,2.07-8.26-3.82-7.41-30.45,4.71-31.92,4.67-14.55-4.82-17.26-5.55A11.51,11.51,0,0,0,352.12,200.65Z" style="fill:#FF81AE"></path><path d="M352.12,200.65,345.19,217a10.58,10.58,0,0,0,3.93,4.38c2.84,1.75,22.74,5.37,28.42,4.24s26.56-11.48,33.61-17.2,2.07-8.26-3.82-7.41-30.45,4.71-31.92,4.67-14.55-4.82-17.26-5.55A11.51,11.51,0,0,0,352.12,200.65Z" style="fill:#fff;opacity:0.7000000000000001"></path><path d="M411.15,208.43c-5.1,4.14-22.43,19-33.61,17.2L408,200.94C413.58,200.37,417.94,202.94,411.15,208.43Z" style="fill:#FF81AE"></path><path d="M356.24,201.49c-1.08,2.25-2.05,4.57-3,6.88s-1.88,4.59-2.81,6.89c-.53,1.31-1.06,2.64-1.55,4,0,.08.05.11.09,0,1.06-2.26,2-4.59,3-6.89s1.94-4.56,2.87-6.86c.54-1.32,1.06-2.64,1.53-4C356.41,201.41,356.3,201.37,356.24,201.49Z" style="fill:#FF81AE"></path><path d="M378,240.8l39.3,13.45a8.25,8.25,0,0,0,3.85-4.94c2.63-8.35,5.4-31.28,2.39-41.63-2.17-7.45-11.56-9.44-17.65-5.31-1.17.79-13.86,11.72-18,16.21a49.52,49.52,0,0,0-9.83,17.35A9.91,9.91,0,0,0,378,240.8Z" style="fill:#FF81AE"></path><path d="M378,240.8l39.3,13.45a8.25,8.25,0,0,0,3.85-4.94c2.63-8.35,5.4-31.28,2.39-41.63-2.17-7.45-11.56-9.44-17.65-5.31-1.17.79-13.86,11.72-18,16.21a49.52,49.52,0,0,0-9.83,17.35A9.91,9.91,0,0,0,378,240.8Z" style="fill:#fff;opacity:0.7000000000000001"></path><path d="M376.58,242.45c-.41-.35.75-3.48,1.17-3.65s41.1,13.95,41.32,14.12-1.31,3.92-1.72,3.84S377.13,242.91,376.58,242.45Z" style="fill:#FF81AE"></path><path d="M376.58,242.45c-.41-.35.75-3.48,1.17-3.65s41.1,13.95,41.32,14.12-1.31,3.92-1.72,3.84S377.13,242.91,376.58,242.45Z" style="opacity:0.1"></path><polygon points="404.48 225.47 387.18 218.88 395.52 205.16 412.82 211.75 404.48 225.47" style="fill:#FF81AE"></polygon><polygon points="404.48 225.47 387.18 218.88 395.52 205.16 412.82 211.75 404.48 225.47" style="opacity:0.2"></polygon><polygon points="404.48 225.47 402.29 224.63 410.63 210.91 412.82 211.75 404.48 225.47" style="opacity:0.1"></polygon><path d="M396.54,209.49a1.23,1.23,0,0,1-1.42.55.79.79,0,0,1-.35-1.22,1.23,1.23,0,0,1,1.42-.55A.79.79,0,0,1,396.54,209.49Z" style="opacity:0.1"></path><path d="M394.78,212.4a1.24,1.24,0,0,1-1.43.54.79.79,0,0,1-.34-1.22,1.24,1.24,0,0,1,1.42-.55A.81.81,0,0,1,394.78,212.4Z" style="opacity:0.1"></path><path d="M393,215.3a1.24,1.24,0,0,1-1.42.55.8.8,0,0,1-.35-1.23,1.24,1.24,0,0,1,1.42-.54A.79.79,0,0,1,393,215.3Z" style="opacity:0.1"></path><path d="M399.3,210.54a1.24,1.24,0,0,1-1.43.55.79.79,0,0,1-.34-1.22,1.23,1.23,0,0,1,1.42-.55A.8.8,0,0,1,399.3,210.54Z" style="opacity:0.1"></path><path d="M397.53,213.45a1.24,1.24,0,0,1-1.42.54.79.79,0,0,1-.35-1.22,1.25,1.25,0,0,1,1.42-.55A.8.8,0,0,1,397.53,213.45Z" style="opacity:0.1"></path><path d="M395.77,216.35a1.26,1.26,0,0,1-1.43.55.8.8,0,0,1-.34-1.23,1.22,1.22,0,0,1,1.42-.54A.8.8,0,0,1,395.77,216.35Z" style="opacity:0.1"></path><path d="M402.05,211.59a1.23,1.23,0,0,1-1.42.55.79.79,0,0,1-.35-1.22,1.23,1.23,0,0,1,1.42-.55A.79.79,0,0,1,402.05,211.59Z" style="opacity:0.1"></path><path d="M400.29,214.49a1.24,1.24,0,0,1-1.43.55.79.79,0,0,1-.34-1.22,1.24,1.24,0,0,1,1.42-.55A.8.8,0,0,1,400.29,214.49Z" style="opacity:0.1"></path><path d="M398.52,217.4a1.24,1.24,0,0,1-1.42.55.8.8,0,0,1-.35-1.23,1.25,1.25,0,0,1,1.42-.55A.8.8,0,0,1,398.52,217.4Z" style="opacity:0.1"></path><path d="M313.29,201a24.31,24.31,0,0,1,5.29,5.72c1.94,3.17,3.45,12.18,3.45,12.18s-28.58-2.45-28.11-4.53S313.29,201,313.29,201Z" style="fill:#263238"></path><path d="M494,242.3s5.67-9.9,7.57-10.83,4.68-1,6.29-2.19,5.15-12.07,7-12.82,7.91-.59,8.6-.28.92,5.93.92,5.93,2.18-5.18,4.43-5.4,10.7,1.11,12,2.37-.88,16.91.36,17.33,8.72,2.81,11,4.19.85,9.56.85,9.56Z" style="fill:#263238"></path><path d="M125.35,291.19,246.51,315s7.72-76.28-51.61-82.27S125.35,291.19,125.35,291.19Z" style="fill:#FF81AE"></path><path d="M125.35,291.19,246.51,315s7.72-76.28-51.61-82.27S125.35,291.19,125.35,291.19Z" style="opacity:0.5"></path><path d="M488.48,359.8l122.7,13.75s1.44-76.65-58.17-77.76S488.48,359.8,488.48,359.8Z" style="fill:#FF81AE"></path><path d="M488.48,359.8l122.7,13.75s1.44-76.65-58.17-77.76S488.48,359.8,488.48,359.8Z" style="opacity:0.5"></path><g style="opacity:0.6000000000000001"><path d="M241.1,197l-2.87,1s16,4.58,19.65,4.85,74.78-27.12,75.72-27.34,45.34-8.08,45.34-8.08-60.17,7.33-64.07,8S241.1,197,241.1,197Z" style="fill:#fff"></path><path d="M257.91,203.32h-.07c-3.67-.27-19.09-4.68-19.75-4.87l-1.52-.43L241,196.5c2.86-.86,69.94-21,73.84-21.63s63.49-7.89,64.09-8l.15,1c-15.36,2.72-44.59,7.9-45.32,8.08-.28.08-4.15,1.54-9.5,3.56C291.55,191.9,261,203.32,257.91,203.32Zm-18-5.4c4.08,1.15,15.1,4.19,18,4.4h0c3.22,0,48.71-17.21,65.9-23.72,7.09-2.68,9.4-3.56,9.62-3.61.54-.12,14.69-2.64,27-4.83-18,2.21-43.13,5.3-45.59,5.7-3.81.62-72.51,21.24-73.69,21.59Z" style="fill:#263238"></path></g><path d="M76.14,269.75S86.26,283.25,89.87,285s38.21,11.58,40.42,11.28,3.57-66.28,64.45-58.51,40.13,81.07,41.63,81.32,257.42,46.68,258.77,45.83,5.26-70.1,63.83-59.78C615,315,600.15,376.3,602.35,376.79s46,3.45,49.81,3.17,11-9.74,11.55-10.57-.14-3.43-.14-3.43,8.88-16.6,10.51-23.62-7.94-29-7.94-29l-3.38-33.07s4.82-1.77,5.62-2.55,1.93-4.08,1.93-4.08L582,249.27a19.17,19.17,0,0,0-2.91-2.45c-.91-.44-6.67-1.7-6.67-1.7s-10.74,5.33-14.76,5.53-261-35.52-262.33-36.24,41.93-29.88,46.29-32.59,37.75-5.47,38.31-6.33,2.06-8.26,1-8.35-43.84,7.06-48.9,8.75S259,202.14,257,202.52s-18.61-4.4-18.76-4.55,2.8-.67,2.87-1-4.65-.17-5.62-.35-76.13-3.12-88.95-1.12-32.85,9.62-42.38,15.84S85,228,83.48,228.5s-4.77.07-6.32,5.14-1.82,10.45-.88,11.76,4.38,3.16,4.67,3.65S79.41,262,79.13,262.4s-1.82.5-2.19,1.56S75.62,268.38,76.14,269.75Z" style="fill:#FF81AE"></path><circle cx="186.02" cy="290.05" r="48.99" transform="translate(-158.48 282.78) rotate(-56.12)" style="fill:#263238"></circle><circle cx="186.02" cy="290.05" r="35.77" transform="translate(-108.14 110.61) rotate(-25.94)" style="fill:#dbdbdb"></circle><circle cx="186.02" cy="290.05" r="32.98" transform="translate(-129.04 429.59) rotate(-81.22)" style="fill:#a6a6a6"></circle><path d="M193.61,283.91l-9.8-3.37c4.95-3.64-.83-24.26-.83-24.26l5.74.05c1.4,7.06,2.52,9.37,5.34,10.34s5.13-.16,10.59-4.86l4.55,3.49S191.94,278,193.61,283.91Z" style="fill:#dbdbdb"></path><path d="M182.79,280.85l-6.24,8.28c-1.93-5.83-23.33-6.71-23.33-6.71L155,277c7.15.85,9.7.5,11.49-1.88s1.43-4.92-1.35-11.57l4.73-3.25S176.65,280.61,182.79,280.85Z" style="fill:#dbdbdb"></path><path d="M176.53,290.2l5.95,8.48c-6.15,0-13.59,20.13-13.59,20.13l-4.62-3.42c3-6.54,3.47-9.07,1.76-11.51s-4.24-2.88-11.43-2.29l-1.62-5.5S174.4,296,176.53,290.2Z" style="fill:#dbdbdb"></path><path d="M183.49,299l9.91-3c-1.87,5.86,14.93,19.14,14.93,19.14l-4.67,3.34c-5.29-4.89-7.56-6.1-10.41-5.23s-4.05,3.15-5.71,10.16l-5.73-.16S188.31,302.84,183.49,299Z" style="fill:#dbdbdb"></path><path d="M194,295.15l.18-10.36c5,3.58,22.82-8.29,22.82-8.29l1.73,5.48c-6.28,3.51-8.14,5.29-8.19,8.27s1.74,4.83,7.89,8.57l-1.91,5.41S199.15,291.74,194,295.15Z" style="fill:#dbdbdb"></path><path d="M195.15,293a9.58,9.58,0,1,1-5.94-12.17A9.58,9.58,0,0,1,195.15,293Z" style="fill:#dbdbdb"></path><circle cx="550.48" cy="359.11" r="48.99" transform="translate(-87.66 201.74) rotate(-19.27)" style="fill:#263238"></circle><circle cx="550.48" cy="359.11" r="35.77" transform="translate(-103.27 291.28) rotate(-27.2)" style="fill:#dbdbdb"></circle><circle cx="550.48" cy="359.11" r="32.98" transform="translate(111.51 848.29) rotate(-81.22)" style="fill:#a6a6a6"></circle><path d="M558.06,353l-9.79-3.37c5-3.64-.84-24.26-.84-24.26l5.75,0c1.4,7.07,2.52,9.38,5.34,10.35s5.13-.16,10.59-4.86l4.55,3.49S556.4,347.06,558.06,353Z" style="fill:#dbdbdb"></path><path d="M547.24,349.91,541,358.19c-1.93-5.83-23.33-6.71-23.33-6.71L519.5,346c7.15.85,9.69.5,11.49-1.88s1.43-4.93-1.35-11.57l4.73-3.25S541.11,349.67,547.24,349.91Z" style="fill:#dbdbdb"></path><path d="M541,359.26l5.94,8.48c-6.14,0-13.58,20.12-13.58,20.12l-4.62-3.41c3-6.54,3.47-9.07,1.76-11.51s-4.25-2.88-11.43-2.29l-1.62-5.5S538.86,365,541,359.26Z" style="fill:#dbdbdb"></path><path d="M548,368.09l9.9-3c-1.86,5.86,14.94,19.14,14.94,19.14l-4.68,3.34c-5.28-4.89-7.55-6.1-10.4-5.23s-4.05,3.15-5.71,10.16l-5.73-.16S552.77,371.9,548,368.09Z" style="fill:#dbdbdb"></path><path d="M558.5,364.21l.18-10.36c5,3.58,22.82-8.29,22.82-8.29l1.73,5.48c-6.29,3.51-8.14,5.29-8.19,8.27s1.74,4.83,7.89,8.57L581,373.29S563.61,360.8,558.5,364.21Z" style="fill:#dbdbdb"></path><path d="M559.6,362a9.57,9.57,0,1,1-5.93-12.17A9.57,9.57,0,0,1,559.6,362Z" style="fill:#dbdbdb"></path><path d="M662.89,281.68c3.21,1.6,8.08,12.08,8.06,13.93s-1.8,13.78-3.48,15.06-7.13,4.05-10.64,3-24.08-16-25.13-17.94.75-10.72,3.48-12.81S658.79,279.65,662.89,281.68Z" style="fill:#fff"></path><path d="M662.89,281.68a9.07,9.07,0,0,1,2.58,2.51,33.83,33.83,0,0,1,2,3.05,43.68,43.68,0,0,1,3.12,6.55,8.08,8.08,0,0,1,.46,1.77,18.12,18.12,0,0,1-.13,1.82c-.13,1.21-.3,2.41-.48,3.61a62.63,62.63,0,0,1-1.47,7.13,17.17,17.17,0,0,1-.61,1.74,3.59,3.59,0,0,1-.53.85,1.26,1.26,0,0,1-.37.33,3.28,3.28,0,0,1-.38.27,20.26,20.26,0,0,1-3.25,1.73,16.51,16.51,0,0,1-3.54,1.09,7.26,7.26,0,0,1-3.78-.14,21.69,21.69,0,0,1-3.28-1.74c-1-.64-2.07-1.29-3.08-1.95q-3-2-6-4.11t-5.84-4.32c-1.93-1.48-3.84-3-5.68-4.58l-.67-.64a3.53,3.53,0,0,1-.64-.82,4.78,4.78,0,0,1-.28-2,19.5,19.5,0,0,1,.47-3.67,24.15,24.15,0,0,1,1.06-3.52,11.82,11.82,0,0,1,1.78-3.24,4.37,4.37,0,0,1,.68-.68c.27-.16.57-.31.86-.45a14.53,14.53,0,0,1,1.77-.48c1.2-.27,2.4-.44,3.6-.59,2.41-.28,4.83-.44,7.24-.55s4.84-.14,7.26-.06c1.21,0,2.42.12,3.62.26a18,18,0,0,1,1.79.28c.3.07.6.11.89.2Zm0,0-.86-.3c-.28-.09-.59-.13-.88-.2-.59-.14-1.2-.17-1.79-.26-1.21-.12-2.41-.18-3.62-.21-2.42-.06-4.84,0-7.25.12s-4.82.39-7.21.73a35,35,0,0,0-3.54.66c-1.15.31-2.38.55-3,1.54a11.29,11.29,0,0,0-1.6,3.13,22.85,22.85,0,0,0-.94,3.45,18.4,18.4,0,0,0-.37,3.53,4.18,4.18,0,0,0,.24,1.6c0,.11.16.19.23.29a2.32,2.32,0,0,0,.27.29l.64.6c3.65,3.11,7.6,5.93,11.53,8.73q2.92,2.13,5.93,4.14c1,.68,2,1.33,3,2a22,22,0,0,0,3.1,1.69,6.82,6.82,0,0,0,3.37.19,16.5,16.5,0,0,0,3.41-1,20.62,20.62,0,0,0,3.19-1.59,2.44,2.44,0,0,0,1.1-1.19,15,15,0,0,0,.64-1.66,63.67,63.67,0,0,0,1.63-7c.21-1.18.41-2.38.57-3.57.07-.6.16-1.2.18-1.79a7.18,7.18,0,0,0-.43-1.73,44.42,44.42,0,0,0-3-6.57,33.53,33.53,0,0,0-1.95-3A9.07,9.07,0,0,0,662.89,281.68Z" style="fill:#263238"></path><path d="M631.7,295.74c1,1.9,21.63,16.88,25.13,17.93,2.68.8,6.48-.62,8.88-1.91-3.09.74-5.7.63-7.5-.19s-21.73-14.2-23.12-16.76.94-9.6,1.64-10.77,19.8-3.35,19.8-3.35c-8.27-.8-19.5.82-21.34,2.23C632.46,285,630.66,293.82,631.7,295.74Z" style="fill:#ebebeb"></path><path d="M152.13,209.7c-3.51,5.2-28.14,13.67-37.27,14.79-5.74.71-25.56,1.14-26.66.06s9-13.88,14-16.89,30.07-10.27,37.52-9.62S155.68,204.44,152.13,209.7Z" style="fill:#fff"></path><path d="M152.13,209.7a12.65,12.65,0,0,1-3.54,3c-1.31.82-2.68,1.54-4.07,2.23-2.78,1.36-5.64,2.55-8.53,3.67a136.34,136.34,0,0,1-17.71,5.59,52.51,52.51,0,0,1-9.25,1.11c-3.1.18-6.19.31-9.29.36s-6.2.06-9.32-.16c-.39,0-.79-.07-1.19-.13-.2,0-.4-.06-.61-.11a1.64,1.64,0,0,1-.75-.33,1.51,1.51,0,0,1-.2-.35,1.14,1.14,0,0,1,0-.26,1.56,1.56,0,0,1,0-.4,4.48,4.48,0,0,1,.22-.62c.17-.39.36-.73.55-1.08a42.14,42.14,0,0,1,2.64-3.89,73.34,73.34,0,0,1,6.14-7,33.79,33.79,0,0,1,3.51-3.13,17.54,17.54,0,0,1,4.19-2.21,148.37,148.37,0,0,1,17.81-5.39c3-.72,6-1.38,9.1-1.9a29,29,0,0,1,9.25-.47,19.81,19.81,0,0,1,8.49,3.6,9.16,9.16,0,0,1,3,3.53,5.09,5.09,0,0,1,.22.54l.12.57a4,4,0,0,1,0,1.15,7.39,7.39,0,0,1-.26,1.13C152.51,209,152.31,209.35,152.13,209.7Zm0,0c.18-.35.37-.68.53-1a7.39,7.39,0,0,0,.26-1.13,4.45,4.45,0,0,0-.06-1.15l-.12-.56a5.09,5.09,0,0,0-.22-.54,9.22,9.22,0,0,0-3-3.48,19.83,19.83,0,0,0-8.47-3.52c-3.06-.47-6.15.11-9.18.64s-6,1.3-9,2.08a155.79,155.79,0,0,0-17.61,5.69,16.81,16.81,0,0,0-4,2.13,33.79,33.79,0,0,0-3.39,3.07,76.77,76.77,0,0,0-6,7,39.5,39.5,0,0,0-2.6,3.77,8.32,8.32,0,0,0-.51,1,3.46,3.46,0,0,0-.18.47s0,.15,0,.17,0,0,0,0a.1.1,0,0,0-.06-.08s.15.06.31.09l.53.1,1.13.13c3,.24,6.15.23,9.23.23s6.18-.07,9.27-.19a52,52,0,0,0,9.17-.92,129.71,129.71,0,0,0,17.77-5.24c2.89-1.09,5.76-2.26,8.55-3.6,1.39-.67,2.76-1.39,4.08-2.19A12.6,12.6,0,0,0,152.13,209.7Z" style="fill:#263238"></path><path d="M88.19,224.56c1.11,1.08,20.93.64,26.68-.07,9.12-1.12,33.74-9.59,37.27-14.8s-5-11-12.4-11.65a13.92,13.92,0,0,0-1.75,0c6.84,2.85,8,8.33,3.69,11.26s-18.21,9.63-23.69,10.92c-5.28,1.26-24.87,3.49-26.5,2.1-.63-.53-.73-1.66-.63-2.83C89,222.06,87.78,224.15,88.19,224.56Z" style="fill:#ebebeb"></path><g style="opacity:0.1"><path d="M132.32,287.79c-1.08,5.08-1.53,8.44-2,8.51-2.21.29-36.82-9.5-40.43-11.28s-13.72-15.28-13.72-15.28a.48.48,0,0,1,0-.17,146.6,146.6,0,0,0,38.25,14.84C116.78,285,123,286.13,132.32,287.79Z"></path><path d="M498.66,349c-2.45,8.94-3.11,15.7-3.53,16-1.34.86-257.26-45.58-258.76-45.83-.4-.07.8-5.39,1.59-13.29C316.32,319,417.53,335.68,498.66,349Z"></path><path d="M663.71,369.39c-.55.83-7.76,10.3-11.56,10.57s-47.6-2.67-49.8-3.17c-.57-.12,0-4.42.2-10.87a359.4,359.4,0,0,0,43.06,4.24,46.57,46.57,0,0,0,18-4.21S664.26,368.57,663.71,369.39Z"></path></g><g style="opacity:0.2"><path d="M258.8,309.31c1.21-8.73,2.52-17.43,3.87-26.14s2.77-17.4,4.18-26.09c.74-4.34,1.48-8.68,2.27-13,.1-.54.2-1.09.34-1.67a2.08,2.08,0,0,1,.43-.85c.18-.26.35-.45.53-.67.7-.88,1.44-1.69,2.17-2.52,1.46-1.66,3-3.28,4.46-4.88q9-9.67,18.31-19.06L277.62,234l-4.38,4.93c-.72.82-1.45,1.65-2.13,2.5-.16.21-.36.43-.48.62s-.3.32-.31.61c-.11.49-.21,1-.3,1.57-.77,4.33-1.47,8.68-2.19,13l-4.41,26.05C261.92,292,260.41,300.65,258.8,309.31Z"></path><path d="M462,237.9c.9,8.66,1.78,17.32,2,26,0,.56,0,1.1,0,1.67a11.86,11.86,0,0,1-.26,1.65l-.67,3.19-1.34,6.39L459,289.62l-5.57,25.51-2.87,12.74-3,12.71L450,327.77l2.6-12.79L458,289.43l2.77-12.76,1.39-6.37.7-3.19a12.51,12.51,0,0,0,.36-3.16c0-4.32-.25-8.68-.48-13Z"></path><path d="M597.32,333.29c4.4-1.7,8.82-3.3,13.25-4.89s8.88-3.12,13.29-4.75l1.65-.59.81-.31.38-.16.35-.21c.93-.6,1.89-1.32,2.81-2l5.55-4.35,5.53-4.39,5.57-4.34c-3.47,3.19-7,6.28-10.62,9.32-1.78,1.54-3.62,3-5.47,4.48-.94.73-1.84,1.45-2.88,2.13a3.34,3.34,0,0,1-.84.43c-.29.13-.56.23-.84.34l-1.66.62c-4.45,1.56-8.9,3.09-13.38,4.53S601.85,332,597.32,333.29Z"></path><path d="M153.53,206.2c8.68.16,17.36.44,26,.72l26,.94,13,.52c2.15.07,4.37.18,6.46.18,1-.09,2.11-.33,3.16-.52l3.2-.59L257,202.52q-12.68,3-25.42,5.69c-2.14.43-4.21.93-6.44,1.21-2.25,0-4.38-.07-6.56-.13l-13-.43c-8.67-.38-17.35-.73-26-1.18S162.19,206.78,153.53,206.2Z"></path><path d="M419.32,261.05a17,17,0,0,0,1.21,3.73,6.6,6.6,0,0,0,1,1.6,2,2,0,0,0,.66.53,5.9,5.9,0,0,0,.88.23c2.55.5,5.16.9,7.75,1.29s5.2.78,7.79,1c.32,0,.65.05,1,.05H440c.15,0,.25-.05.39-.06a5,5,0,0,0,1.45-1.13,25.32,25.32,0,0,0,2.5-3,19.87,19.87,0,0,1-2.14,3.36,5.25,5.25,0,0,1-1.56,1.38,4,4,0,0,1-.57.14l-.52,0c-.35,0-.68,0-1,0a67.06,67.06,0,0,1-7.91-.8,75,75,0,0,1-7.79-1.54,5.44,5.44,0,0,1-1-.35,2.56,2.56,0,0,1-.84-.75,6.85,6.85,0,0,1-.94-1.82A14.33,14.33,0,0,1,419.32,261.05Z"></path><path d="M419.75,257.68a12.3,12.3,0,0,1,1.7-3.68,3.92,3.92,0,0,1,1.59-1.44,8.78,8.78,0,0,1,2.12-.15,52.64,52.64,0,0,1,8,.92c1.33.24,2.64.52,3.95.86A16.48,16.48,0,0,1,441,255.6a9.74,9.74,0,0,1,2.77,3.07,10.87,10.87,0,0,1,1.48,3.76,12.18,12.18,0,0,0-1.89-3.49,9.19,9.19,0,0,0-2.75-2.67,18.89,18.89,0,0,0-3.71-1.16c-1.29-.3-2.6-.57-3.91-.8-2.61-.48-5.26-.89-7.89-1.13a9.3,9.3,0,0,0-1.89,0,3.84,3.84,0,0,0-1.41,1.15A14,14,0,0,0,419.75,257.68Z"></path><path d="M420.59,257.61a8.1,8.1,0,0,0-1.91.3,3.33,3.33,0,0,0-.87.42,1.1,1.1,0,0,0-.51.77,1.06,1.06,0,0,0,.35.85,2.93,2.93,0,0,0,.76.59,8.08,8.08,0,0,0,1.77.74c2.49.68,5.06,1.05,7.61,1.49s5.12.79,7.68,1.15l3.84.54c1.26.17,2.6.38,3.78.45a6.52,6.52,0,0,0,1.77-.25c.55-.15,1-.51,1.05-.79s-.39-.75-.86-1a7.21,7.21,0,0,0-1.67-.75c-2.42-.73-5-1.31-7.49-1.88s-5.06-1.09-7.61-1.57A57,57,0,0,0,420.59,257.61Zm0,0a33.7,33.7,0,0,1,3.87.34l3.84.54c2.57.38,5.13.78,7.68,1.22s5.1.88,7.66,1.55a7.74,7.74,0,0,1,1.89.79,2.93,2.93,0,0,1,.45.3,2.7,2.7,0,0,1,.77.9,1.54,1.54,0,0,1,.12.71,1.63,1.63,0,0,1-.7,1.14,3.48,3.48,0,0,1-1,.49,7.31,7.31,0,0,1-2.06.32c-2.72-.24-5.19-.7-7.77-1.14s-5.09-1-7.63-1.51-5.08-1.06-7.56-1.84a8.18,8.18,0,0,1-1.78-.81,3.18,3.18,0,0,1-.75-.62,1.15,1.15,0,0,1-.35-.89,1.12,1.12,0,0,1,.53-.79,3.21,3.21,0,0,1,.88-.41A7.76,7.76,0,0,1,420.59,257.61Z"></path></g><path d="M81,249.05s22.53,6.38,22.83,6.38,1.64-3,3.52-2.76,7.51,7.2,7.54,12.87-2,9.53-5.39,8.46-6.8-9-6.8-9-17.41-4.3-17.88-4.07a20.22,20.22,0,0,1-2.53,1.31,16,16,0,0,1-3.11.14Z" style="fill:#263238"></path><path d="M310.36,227.84c2-2,1.59-20.08.11-21.53s-21.56-2.52-23,8.7S307.25,231,310.36,227.84Z" style="fill:#FF81AE"></path><path d="M310.36,227.84c2-2,1.59-20.08.11-21.53s-21.56-2.52-23,8.7S307.25,231,310.36,227.84Z" style="opacity:0.1"></path><g style="opacity:0.4"><path d="M495.8,322.44A59.35,59.35,0,0,1,522,294.85c1.42-.78,2.92-1.42,4.4-2.1s3-1.19,4.59-1.64,3.12-.89,4.7-1.29c.79-.18,1.59-.31,2.39-.47s1.6-.31,2.4-.4a71,71,0,0,1,19.42,0,69.21,69.21,0,0,1,18.7,5.27,55.64,55.64,0,0,1,16,11,60.15,60.15,0,0,1,11.3,15.69,64.89,64.89,0,0,1,3.61,9,51.13,51.13,0,0,1,2.16,9.37,64.19,64.19,0,0,0-6.64-17.88,59.34,59.34,0,0,0-11.5-15.05,61.54,61.54,0,0,0-7.41-5.86,59.52,59.52,0,0,0-8.28-4.56,67.6,67.6,0,0,0-18.22-4.95,69.56,69.56,0,0,0-18.9-.14c-.79.08-1.57.21-2.34.36s-1.56.27-2.33.44c-1.53.38-3.07.71-4.57,1.21a55.93,55.93,0,0,0-8.81,3.46,57.85,57.85,0,0,0-15.41,11A61.61,61.61,0,0,0,495.8,322.44Z" style="fill:#fff"></path><path d="M131.56,254.66a59.3,59.3,0,0,1,26.2-27.59c1.42-.79,2.92-1.43,4.4-2.1s3-1.19,4.59-1.65,3.12-.88,4.7-1.28c.79-.18,1.59-.32,2.39-.48s1.6-.31,2.4-.4a71.36,71.36,0,0,1,19.42,0,68.85,68.85,0,0,1,18.7,5.27,55.6,55.6,0,0,1,16,11,60.2,60.2,0,0,1,11.3,15.7,65.27,65.27,0,0,1,3.61,9,51.42,51.42,0,0,1,2.16,9.38,64.46,64.46,0,0,0-6.64-17.89,57.08,57.08,0,0,0-18.92-20.9,57.85,57.85,0,0,0-8.27-4.56,67.6,67.6,0,0,0-18.22-4.95,69.56,69.56,0,0,0-18.9-.15c-.79.08-1.57.22-2.34.37s-1.56.27-2.33.44c-1.53.38-3.07.71-4.57,1.2a56.92,56.92,0,0,0-8.81,3.46,58.07,58.07,0,0,0-15.41,11A61.85,61.85,0,0,0,131.56,254.66Z" style="fill:#fff"></path><path d="M308.82,239.69c9.77,1.07,19.53,2.26,29.29,3.39l29.27,3.6c19.51,2.42,39,5,58.49,7.51,19.48,2.66,39,5.24,58.43,8l29.2,4.15c9.72,1.45,19.45,2.84,29.16,4.36-9.77-1.07-19.53-2.26-29.29-3.39l-29.27-3.6c-19.51-2.42-39-5-58.49-7.52-19.48-2.66-39-5.23-58.43-8L338,244.05C328.26,242.59,318.53,241.2,308.82,239.69Z" style="fill:#fff"></path></g><path d="M424.83,209.63c6.35,14.05,7.22,37.11,6.34,43.06-1.33,9.05-28.81,18.73-34.19,21-2.3,1-8-21-5.51-22.11,2.12-1,23.57-7.7,23.67-8.69.07-.81.91-18.28,2-30.14C418,202.56,423.15,205.91,424.83,209.63Z" style="fill:#f7a9a0"></path><path d="M396.41,249.87l-3.86,1.33a13.46,13.46,0,0,1-3.89.62A25.77,25.77,0,0,0,367.08,270c-1.65,5.25,1.3,8.7,4,3.55,1.89-3.62,2.88-6.29,3.83-7.3,0,0,1.19,6.14,4.49,7.63a66.34,66.34,0,0,0,8.9,3.3,13,13,0,0,0,.77-1.61,7.63,7.63,0,0,0,7.92-1.8l6-2.42Z" style="fill:#FF81AE"></path><g style="opacity:0.2"><path d="M396.41,249.87l-3.86,1.33a13.46,13.46,0,0,1-3.89.62A25.77,25.77,0,0,0,367.08,270c-1.65,5.25,1.3,8.7,4,3.55,1.89-3.62,2.88-6.29,3.83-7.3,0,0,1.19,6.14,4.49,7.63a66.34,66.34,0,0,0,8.9,3.3,13,13,0,0,0,.77-1.61,7.63,7.63,0,0,0,7.92-1.8l6-2.42Z"></path></g><path d="M383.86,252.93c-1.9,1.89-5.84,6-7.9,10.43-2.29,4.95-5.37,15.1-1.7,16.76,2.69,1.21,4.21-2.56,4.21-2.56s-.39,4.46,2.28,5c2.44.51,3.44-2.48,3.44-2.48s.23,2.75,2.67,2.79c2.93.06,2-5.72,5-8.23C392.53,274.1,383.86,252.93,383.86,252.93Z" style="fill:#FF81AE"></path><path d="M383.86,252.93c-1.9,1.89-5.84,6-7.9,10.43-2.29,4.95-5.37,15.1-1.7,16.76,2.69,1.21,4.21-2.56,4.21-2.56s-.39,4.46,2.28,5c2.44.51,3.44-2.48,3.44-2.48s.23,2.75,2.67,2.79c2.93.06,2-5.72,5-8.23C392.53,274.1,383.86,252.93,383.86,252.93Z" style="opacity:0.2"></path><path d="M381.59,264.9a21.86,21.86,0,0,0-3.19,12.57c0,.11.1.16.11.06a53.35,53.35,0,0,1,3.13-12.6A0,0,0,0,0,381.59,264.9Z" style="fill:#263238"></path><path d="M386.53,267.36a24.42,24.42,0,0,0-2.44,12.73c0,.11.11.16.11.06a57.78,57.78,0,0,1,2.37-12.77A0,0,0,0,0,386.53,267.36Z" style="fill:#263238"></path><path d="M396.41,249.87,403,271.3s2.44,1.32,7.85-1,19.59-11.44,20.83-16.55-.11-26.45-4.61-39.87-10.32-8-10.45-.79-2,29.12-2.22,29.49-10.3,2.69-13.6,4A9.29,9.29,0,0,0,396.41,249.87Z" style="fill:#FF81AE"></path><path d="M396.41,249.87,403,271.3s2.44,1.32,7.85-1,19.59-11.44,20.83-16.55-.11-26.45-4.61-39.87-10.32-8-10.45-.79-2,29.12-2.22,29.49-10.3,2.69-13.6,4A9.29,9.29,0,0,0,396.41,249.87Z" style="fill:#fff;opacity:0.7000000000000001"></path><path d="M414.83,238.94c.25-1.36.43-2.72.6-4.08s.3-2.73.42-4.1.22-2.73.27-4.1l.09-2.06c0-.69,0-1.37,0-2.07-.13.68-.22,1.36-.33,2l-.27,2c-.17,1.36-.3,2.73-.42,4.1s-.22,2.73-.27,4.1S414.81,237.56,414.83,238.94Z" style="fill:#263238"></path><path d="M415.84,226.6a7.68,7.68,0,0,0-.17-1.46,11.75,11.75,0,0,0-.38-1.41,2.63,2.63,0,0,0,0,.74,4.7,4.7,0,0,0,.1.74A5,5,0,0,0,415.84,226.6Z" style="fill:#263238"></path><path d="M432,251.22c.13-1.29.18-2.59.24-3.89s0-2.59,0-3.89c0-2.6-.21-5.19-.45-7.78s-.62-5.16-1.12-7.71a72.5,72.5,0,0,0-1.82-7.57c.21,1.28.51,2.54.7,3.82s.45,2.55.63,3.83l.54,3.84c.14,1.29.31,2.57.42,3.86.29,2.56.46,5.15.6,7.73S432,248.63,432,251.22Z" style="fill:#263238"></path><path d="M429.9,224.86a7.2,7.2,0,0,0,.33-1.5,6.61,6.61,0,0,0,0-1.54,6.49,6.49,0,0,0-.33,1.5A6.61,6.61,0,0,0,429.9,224.86Z" style="fill:#263238"></path><path d="M400.34,250.08c.59,2.43,1.3,4.84,2,7.24s1.45,4.74,2.19,7.1c.42,1.36.84,2.72,1.31,4.06,0,.08.11,0,.09,0-.61-2.43-1.33-4.84-2-7.24s-1.39-4.76-2.12-7.13c-.42-1.36-.86-2.71-1.34-4C400.42,249.91,400.31,250,400.34,250.08Z" style="fill:#FF81AE"></path><path d="M407,206.6c2.27,1.5,8-.72,10.77-3.18.19-.17.69-2.51,1.43-5.33.46-1.71,1-3.6,1.63-5.3l-11.56-1.34a28.85,28.85,0,0,1-1.38,6.88,3.39,3.39,0,0,1-.33.66,1.17,1.17,0,0,0-.05.11C406.82,200.34,404.83,205.14,407,206.6Z" style="fill:#f7a9a0"></path><path d="M420.06,192.7c-1.27,2.31-5.49,8.92-11.47,6.87a8.18,8.18,0,0,1-1.06-.47s0-.07.05-.11a3.22,3.22,0,0,0,.33-.67,28.38,28.38,0,0,0,1.37-6.87Z" style="fill:#263238"></path><path d="M424.78,180.4c.12,4.19-5,14.79-8.44,16.53-5,2.51-11.6,1-13.35-4.58-1.69-5.47,5.22-19.17,8.92-20.59C417.35,169.68,424.61,174.21,424.78,180.4Z" style="fill:#f7a9a0"></path><path d="M411.7,184.29s0,.06,0,.09c-.38.69-.7,1.54-.18,2.1,0,0,0,.05,0,0C410.79,186,411.23,184.88,411.7,184.29Z" style="fill:#263238"></path><path d="M412.7,183.87c1.17.49.1,2.8-1,2.35S411.71,183.46,412.7,183.87Z" style="fill:#263238"></path><path d="M407.5,182.34s-.08,0-.09,0c-.31.73-.78,1.51-1.53,1.45a0,0,0,0,0,0,0C406.7,184.12,407.32,183.08,407.5,182.34Z" style="fill:#263238"></path><path d="M407.2,181.3c-1.11-.62-2.26,1.65-1.23,2.22S408.13,181.82,407.2,181.3Z" style="fill:#263238"></path><path d="M414.09,183.24c-.28-.23-.49-.48-.75-.73a1.69,1.69,0,0,1-.62-.89.53.53,0,0,1,.35-.55,1.34,1.34,0,0,1,1.28.43,2,2,0,0,1,.67,1.24A.58.58,0,0,1,414.09,183.24Z" style="fill:#263238"></path><path d="M406.84,179.73c.35.09.68.12,1,.18a1.69,1.69,0,0,0,1.09,0,.54.54,0,0,0,.24-.61,1.33,1.33,0,0,0-1.1-.78,2,2,0,0,0-1.4.18A.58.58,0,0,0,406.84,179.73Z" style="fill:#263238"></path><path d="M409.54,191c-.23.13-.47.33-.75.29a2.12,2.12,0,0,1-.78-.39s-.05,0,0,0a1.06,1.06,0,0,0,.87.65.84.84,0,0,0,.77-.53S409.57,190.94,409.54,191Z" style="fill:#263238"></path><path d="M409.59,188.48a2.68,2.68,0,0,1-2.13.34,3.29,3.29,0,0,1-.89-.37,2.59,2.59,0,0,1-.31-.19.19.19,0,0,1-.07-.22h0l.75-1.51c-.25,0-1.49,0-1.34-.28A40.7,40.7,0,0,1,410,179.3c.05-.07.16,0,.12.08-1.1,2.27-2.6,4.34-3.74,6.61a4.46,4.46,0,0,1,1.31.18s-1,1.82-1,1.84a3.72,3.72,0,0,0,2.88.38C409.62,188.37,409.66,188.45,409.59,188.48Z" style="fill:#263238"></path><path d="M407.05,188.29a3.16,3.16,0,0,0,.75,1.41,1.44,1.44,0,0,0,.76.4c.64.11.88-.41,1-.9a3.37,3.37,0,0,0,0-.8A4.1,4.1,0,0,1,407.05,188.29Z" style="fill:#263238"></path><path d="M407.8,189.7a1.44,1.44,0,0,0,.76.4c.64.11.88-.41,1-.9A1.46,1.46,0,0,0,407.8,189.7Z" style="fill:#ff9cbd"></path><path d="M420.7,188.9c-1.88-.73-.18-5.38-.18-5.38s-2.76-1.48-2.89-6c0,0-4.55,1.15-7.53-.45-4.68-2.51-2.46-8.92-.17-9.64,3.23-1,7.05,3.23,7.05,3.23s7.74.32,8.3,5.8a3.84,3.84,0,0,1,2.21,4.74C426.58,184.79,422.11,189.45,420.7,188.9Z" style="fill:#263238"></path><path d="M421,184.3a6.85,6.85,0,0,1-3.06-3.23,5.12,5.12,0,0,1,.28-4.71c.05-.08-.08-.15-.12-.07a5.92,5.92,0,0,0-.74,5,4.83,4.83,0,0,0,3.58,3.18C421.06,184.45,421.11,184.34,421,184.3Z" style="fill:#263238"></path><path d="M428.41,179.26c-.58-1.56-2-2.24-3.5-2.66-.09,0-.12.11,0,.13a4.32,4.32,0,0,1,3,3.18,5.41,5.41,0,0,1-1,4,10.84,10.84,0,0,1-6.11,4.81s0,.08,0,.07a10.84,10.84,0,0,0,6.8-5.23C428.31,182.3,428.94,180.69,428.41,179.26Z" style="fill:#263238"></path><path d="M417.1,171a5.1,5.1,0,0,0-2.05-3,6.09,6.09,0,0,0-4.26-.91,3.44,3.44,0,0,0-2.62,2.23,6.05,6.05,0,0,0,.11,4.09s.07,0,.06,0a6.09,6.09,0,0,1,.06-3.66,3.16,3.16,0,0,1,2.64-2.09c2.33-.25,5.27.87,5.93,3.37C417,171.11,417.12,171.07,417.1,171Z" style="fill:#263238"></path><path d="M419.86,188.75s3.57-2.85,4.94-1.47-2.08,6-4.2,6.17a2,2,0,0,1-2.3-1.82Z" style="fill:#f7a9a0"></path><path d="M423.78,188.59s0,0,0,0a5.13,5.13,0,0,0-3.45,2.32,1.12,1.12,0,0,1,1.69.19s0,.08-.06.06a1.25,1.25,0,0,0-1.44,0,6.53,6.53,0,0,0-.94.88c-.1.1-.3,0-.21-.15l0,0C419.85,190.21,421.89,188.21,423.78,188.59Z" style="fill:#263238"></path><path d="M421,205.36a5.73,5.73,0,0,1-2,2.27c-2.8,1.82-8,1.9-11.91-.61-2.5-1.6-3.62-3.46-3.79-5.22A21.62,21.62,0,0,0,421,205.36Z" style="fill:#455a64"></path><path d="M434.89,176.37c-4.54-9.86-17.43-17.69-30.28-8.11-8.87,6.62-11.27,18.56-7.63,26.66,5.15,11.46,20.63,14.51,29.25,8.7C432.77,199.22,439.68,186.79,434.89,176.37ZM420.7,199.16c-6.53,3.94-18.79,1.09-23.28-7.55a15.12,15.12,0,0,1,4.95-19.3c9.7-6.54,20.52-1,24.46,6.43C431,186.6,425.66,196.19,420.7,199.16Z" style="fill:#FF81AE"></path><path d="M434.89,176.37c-4.54-9.86-17.43-17.69-30.28-8.11-8.87,6.62-11.27,18.56-7.63,26.66,5.15,11.46,20.63,14.51,29.25,8.7C432.77,199.22,439.68,186.79,434.89,176.37ZM420.7,199.16c-6.53,3.94-18.79,1.09-23.28-7.55a15.12,15.12,0,0,1,4.95-19.3c9.7-6.54,20.52-1,24.46,6.43C431,186.6,425.66,196.19,420.7,199.16Z" style="fill:#fff;opacity:0.7000000000000001"></path><path d="M420.7,199.16c-6.53,3.94-18.79,1.09-23.28-7.55a15.12,15.12,0,0,1,4.95-19.3c9.7-6.54,20.52-1,24.46,6.43C431,186.6,425.66,196.19,420.7,199.16Z" style="fill:#455a64;opacity:0.1"></path><path d="M420.7,199.16c-6.53,3.94-18.79,1.09-23.28-7.55a15.12,15.12,0,0,1,4.95-19.3c9.7-6.54,20.52-1,24.46,6.43C431,186.6,425.66,196.19,420.7,199.16Z" style="fill:#455a64;opacity:0.1"></path><g style="opacity:0.2"><path d="M418.17,170.84a112.91,112.91,0,0,0-22,10.77,14.93,14.93,0,0,1,2.56-5.75A116,116,0,0,1,412,169.42,16.72,16.72,0,0,1,418.17,170.84Z" style="fill:#fff"></path><path d="M425.12,194.74a14.72,14.72,0,0,1-4.42,4.42,13.46,13.46,0,0,1-6.95,1.74A92,92,0,0,1,425.12,194.74Z" style="fill:#fff"></path><path d="M421.12,172.48A109.37,109.37,0,0,0,395.8,185c0-.25,0-.5,0-.75a110.32,110.32,0,0,1,24.69-12.14Z" style="fill:#fff"></path><path d="M428,188a96.14,96.14,0,0,0-21.7,11.37l-.64-.27a96.32,96.32,0,0,1,22.46-11.74Z" style="fill:#fff"></path><path d="M426.61,192.14c-.13.26-.25.52-.39.77a93.77,93.77,0,0,0-14.64,7.86l-.87-.12A93.22,93.22,0,0,1,426.61,192.14Z" style="fill:#fff"></path><path d="M428.11,182.46a100,100,0,0,0-27,13.8,14.27,14.27,0,0,1-1.56-1.55,102.25,102.25,0,0,1,28-14.22A11.45,11.45,0,0,1,428.11,182.46Z" style="fill:#fff"></path></g><path d="M434.49,199c2-1.8,4.18-6.33,2.92-9.61-1.19-3.1-4.86-5.12-8.76-1.26-2.7,2.66-3.57,6.8-2.61,9.35C427.39,201.09,431.89,201.37,434.49,199Z" style="fill:#FF81AE"></path><path d="M435.58,198.51c1.52-1.38,3.21-4.86,2.24-7.38s-3.74-3.93-6.73-1c-2.07,2-2.74,5.22-2,7.18C430.12,200.12,433.58,200.33,435.58,198.51Z" style="fill:#FF81AE"></path><path d="M435.58,198.51c1.52-1.38,3.21-4.86,2.24-7.38s-3.74-3.93-6.73-1c-2.07,2-2.74,5.22-2,7.18C430.12,200.12,433.58,200.33,435.58,198.51Z" style="fill:#fff;opacity:0.7000000000000001"></path></g></svg>